<?xml version="1.0" encoding="UTF-8" standalone="no"?>
<svg
   width="114.5879"
   height="43.75"
   viewBox="0 0 114.5879 43.75"
   fill="none"
   version="1.1"
   id="svg11"
   sodipodi:docname="bibo.svg"
   inkscape:version="1.1 (c68e22c387, 2021-05-23)"
   xmlns:inkscape="http://www.inkscape.org/namespaces/inkscape"
   xmlns:sodipodi="http://sodipodi.sourceforge.net/DTD/sodipodi-0.dtd"
   xmlns="http://www.w3.org/2000/svg"
   xmlns:svg="http://www.w3.org/2000/svg">
  <sodipodi:namedview
     id="namedview13"
     pagecolor="#ffffff"
     bordercolor="#666666"
     borderopacity="1.0"
     inkscape:pageshadow="2"
     inkscape:pageopacity="0.0"
     inkscape:pagecheckerboard="0"
     showgrid="false"
     inkscape:zoom="7.9239766"
     inkscape:cx="57.294465"
     inkscape:cy="21.012177"
     inkscape:window-width="1920"
     inkscape:window-height="991"
     inkscape:window-x="-9"
     inkscape:window-y="-9"
     inkscape:window-maximized="1"
     inkscape:current-layer="svg11" />
  <g
     clip-path="url(#clip0_1531_54362)"
     id="g4"
     transform="translate(-28.2061,-14)"
     style="fill:#000000">
    <path
       d="m 55.032,50.3594 c -0.9993,1.6936 -2.3761,3.0134 -4.1083,3.9372 -1.5545,0.8359 -3.3754,1.4298 -5.4629,1.8037 -2.0874,0.3519 -5.5517,0.5499 -10.3928,0.5499 H 34.1575 28.2061 V 14.9458 h 7.8834 c 4.0861,0 7.0618,0.154 8.9494,0.4619 1.8876,0.308 3.5309,0.8359 4.9077,1.5618 1.6211,0.9238 2.8869,2.1556 3.7752,3.6733 0.8883,1.5177 1.3324,3.2334 1.3324,5.147 0,2.4636 -0.7328,4.4432 -2.2207,5.939 -1.4656,1.4957 -3.6863,2.4855 -6.6176,2.9694 3.3976,0.5059 5.9736,1.5837 7.7057,3.2774 1.7322,1.6937 2.5983,3.9373 2.5983,6.7528 0,2.0676 -0.4886,3.9373 -1.4879,5.631 z m 11.9251,6.2908 H 57.9633 V 14.9458 h 8.9938 z m 29.6906,-6.2908 c -0.9993,1.6936 -2.3761,3.0134 -4.1082,3.9372 -1.5545,0.8359 -3.3755,1.4298 -5.4629,1.8037 -2.0875,0.3519 -5.5518,0.5499 -10.3929,0.5499 H 75.751 69.7996 V 14.9458 h 7.8834 c 4.0861,0 7.0618,0.154 8.9716,0.4619 1.8876,0.308 3.5309,0.8359 4.9078,1.5618 1.6433,0.9238 2.8868,2.1556 3.7751,3.6733 0.8883,1.5177 1.3324,3.2334 1.3324,5.147 0,2.4636 -0.7328,4.4432 -2.2207,5.939 -1.4656,1.4957 -3.6863,2.4855 -6.6176,2.9694 3.3976,0.5059 5.9514,1.5837 7.6836,3.2774 1.7321,1.6937 2.5982,3.9373 2.5982,6.7528 0.0444,2.0676 -0.4664,3.9373 -1.4657,5.631 z m 44.4363,-6.0269 c -1.111,2.6615 -2.732,4.993 -4.841,7.0167 -2.199,2.0676 -4.642,3.6513 -7.395,4.7511 -2.732,1.0998 -5.574,1.6497 -8.505,1.6497 -2.576,0 -5.086,-0.4399 -7.551,-1.2978 -2.465,-0.8578 -4.73,-2.1116 -6.773,-3.7173 -2.643,-2.0896 -4.663,-4.5971 -6.0846,-7.5006 -1.3991,-2.9035 -2.1097,-6.0269 -2.1097,-9.3703 0,-3.0134 0.5552,-5.8069 1.6655,-8.4465 1.1108,-2.6395 2.7318,-4.971 4.8858,-7.0167 2.109,-2.0236 4.552,-3.6073 7.35,-4.7291 2.798,-1.1218 5.663,-1.6717 8.617,-1.6717 2.931,0 5.796,0.5719 8.571,1.6717 2.776,1.1218 5.219,2.7055 7.351,4.7291 2.132,2.0457 3.753,4.3992 4.863,7.0387 1.111,2.6396 1.666,5.455 1.666,8.4245 -0.023,2.9915 -0.578,5.8069 -1.71,8.4685 z"
       fill="#2b333f"
       id="path2"
       style="fill:#000000" />
  </g>
  <defs
     id="defs9">
    <clipPath
       id="clip0_1531_54362">
      <rect
         width="114.588"
         height="43.75"
         fill="#ffffff"
         transform="translate(28.2061,14)"
         id="rect6"
         x="0"
         y="0" />
    </clipPath>
  </defs>
</svg>
