<?xml version="1.0" encoding="UTF-8" standalone="no"?>
<svg
   width="190"
   height="28.000027"
   viewBox="0 0 190 28.000027"
   fill="none"
   version="1.1"
   id="svg32"
   sodipodi:docname="coleccionista.svg"
   inkscape:version="1.1 (c68e22c387, 2021-05-23)"
   xmlns:inkscape="http://www.inkscape.org/namespaces/inkscape"
   xmlns:sodipodi="http://sodipodi.sourceforge.net/DTD/sodipodi-0.dtd"
   xmlns="http://www.w3.org/2000/svg"
   xmlns:svg="http://www.w3.org/2000/svg">
  <defs
     id="defs36" />
  <sodipodi:namedview
     id="namedview34"
     pagecolor="#ffffff"
     bordercolor="#666666"
     borderopacity="1.0"
     inkscape:pageshadow="2"
     inkscape:pageopacity="0.0"
     inkscape:pagecheckerboard="0"
     showgrid="false"
     inkscape:zoom="7.0572917"
     inkscape:cx="95.078967"
     inkscape:cy="14.098893"
     inkscape:window-width="1920"
     inkscape:window-height="991"
     inkscape:window-x="-9"
     inkscape:window-y="-9"
     inkscape:window-maximized="1"
     inkscape:current-layer="svg32" />
  <path
     d="M 3.61456,14.608 H 7.63772 V 11.7697 H 3.61456 V 3.2858597 H 10.4036 V 0.47870968 H 0 V 27.3649 H 10.5922 V 24.6202 H 3.61456 Z"
     fill="#000000"
     id="path2" />
  <path
     d="m 15.3069,0.47870968 h -3.646 V 27.3649 h 9.2092 v -3.119 h -5.5632 z"
     fill="#000000"
     id="path4" />
  <path
     d="m 31.5567,5.4068297 c 0.1505,-0.73301 0.4981,-1.41199 1.0057,-1.96502 0.5216,-0.47982 1.2061,-0.74709 1.9173,-0.74856 0.6407,-0.02291 1.2802,0.07226 1.8859,0.2807 0.3752,0.2108 0.6809,0.52497 0.8801,0.90453 0.2364,0.61839 0.364,1.27253 0.3771,1.93382 0,0.8421 0,1.8402 0.1886,3.1191 h 3.5203 c 0.0097,-1.4201 -0.0954,-2.8386 -0.3143,-4.24196 -0.0897,-0.83795 -0.3348,-1.65221 -0.7229,-2.40166 -0.4817,-0.75562 -1.2162,-1.31880002 -2.0745,-1.59072002 -1.218,-0.38439 -2.4947,-0.55332 -3.7717,-0.49906 -1.4022,-0.07236 -2.7993,0.21783 -4.0546,0.84215002 -1.0317,0.59788 -1.8042,1.55329 -2.1687,2.68239 -0.4441,1.2138 -0.7088,2.48496 -0.7858,3.77406 0,1.4659 -0.1886,3.6805003 -0.1886,6.6124003 0,2.9319 0,5.1464 0.1886,6.6436 0.0845,1.2243 0.3383,2.4312 0.7543,3.5869 0.4053,1.1 1.183,2.0261 2.2002,2.62 1.243,0.6298 2.6287,0.9306 4.0232,0.8733 1.2645,0.0629 2.5281,-0.139 3.7088,-0.5926 0.7723,-0.3641 1.4328,-0.9261 1.9135,-1.6278 0.4806,-0.7018 0.764,-1.518 0.821,-2.3646 0,-0.9045 0.2829,-2.4017 0.44,-4.4914 H 37.78 l -0.1572,3.119 c -0.0102,0.5545 -0.1165,1.1032 -0.3143,1.6219 -0.1898,0.4877 -0.5311,0.9028 -0.9743,1.1853 -0.5844,0.251 -1.2182,0.3682 -1.8545,0.3431 -0.691,0.0447 -1.3741,-0.1664 -1.9173,-0.5927 -0.5256,-0.5281 -0.8765,-1.2027 -1.0057,-1.9338 -0.2216,-1.0269 -0.3583,-2.07 -0.4086,-3.119 0,-1.2788 0,-3.1191 0,-5.4896 0,-2.3704 0,-4.1483003 0,-5.4271003 0.0544,-1.0486 0.191,-2.0915 0.4086,-3.11906"
     fill="#000000"
     id="path6" />
  <path
     d="m 56.4814,3.8160997 c -0.4218,-1.11734 -1.2218,-2.05451 -2.263,-2.65119 -1.275,-0.59694002 -2.6778,-0.87535002 -4.0861,-0.81096002 -1.4351,-0.06204 -2.8627,0.23845 -4.1488,0.87333002 -1.0658,0.59028 -1.8807,1.54293 -2.2945,2.68239 -0.4771,1.16545 -0.7738,2.39583 -0.8801,3.64933 -0.1883,2.0009 -0.2723,4.0102003 -0.2514,6.0197003 0,2.8696 0,5.0529 0.2514,6.5812 0.0978,1.3053 0.3946,2.5883 0.8801,3.8053 0.4655,1.1104 1.2817,2.0407 2.3259,2.6512 1.2791,0.6202 2.6954,0.9099 4.1174,0.8421 1.4314,0.0573 2.8552,-0.2317 4.1489,-0.8421 0.946,-0.524 1.6875,-1.3477 2.1059,-2.3393 0.4929,-1.2597 0.7999,-2.5833 0.9115,-3.93 0,-1.5907 0.1571,-3.8677 0.1571,-6.7684 0,-2.9007 0,-4.9905003 -0.1571,-6.2381003 -0.0953,-1.2085 -0.3707,-2.39622 -0.8172,-3.5245 z M 53.5897,19.0995 c -0.0579,1.0483 -0.1945,2.0908 -0.4086,3.119 -0.1364,0.7422 -0.5113,1.4206 -1.0686,1.9338 -0.5828,0.3238 -1.2544,0.4549 -1.9173,0.3743 -0.7297,0.0443 -1.4522,-0.1653 -2.043,-0.5926 -0.5447,-0.5326 -0.9354,-1.2004 -1.1315,-1.9338 -0.2818,-1.0184 -0.4505,-2.0643 -0.5029,-3.1191 0,-1.2788 0,-3.119 0,-5.3647 0,-2.2458 0,-3.6493003 0,-4.8346003 0.0444,-1.0556 0.2132,-2.1024 0.5029,-3.11904 0.1853,-0.7539 0.5897,-1.43717 1.1629,-1.96499 0.5661,-0.45444 1.2855,-0.67755 2.0116,-0.62383 0.7049,-0.03883 1.4024,0.15893 1.9802,0.56143 1.0453,1.34346 1.5696,3.01493 1.4772,4.70973 0,1.3724 0,3.1191003 0,5.1153003 0,1.9962 0,3.8676 0,5.5207"
     fill="#000000"
     id="path8" />
  <path
     d="M 62.0761,0.47870968 H 58.4615 V 27.3649 h 9.1779 v -3.119 h -5.5633 z"
     fill="#000000"
     id="path10" />
  <path
     d="m 72.354,14.608 h 4.0232 V 11.7697 H 72.354 V 3.2858597 h 6.7891 V 0.47870968 H 68.7394 V 27.3649 H 79.3317 V 24.6202 H 72.354 Z"
     fill="#000000"
     id="path12" />
  <path
     d="m 90.7725,21.813 c -0.0102,0.5546 -0.1165,1.1032 -0.3143,1.6219 -0.1898,0.4877 -0.5311,0.9028 -0.9743,1.1853 -0.5844,0.251 -1.2182,0.3682 -1.8545,0.3431 -0.6713,0.0896 -1.3525,-0.0656 -1.9173,-0.4367 -0.5256,-0.5281 -0.8765,-1.2027 -1.0057,-1.9338 -0.2216,-1.0269 -0.3583,-2.0701 -0.4086,-3.1191 0,-1.2788 0,-3.119 0,-5.4895 0,-2.3705 0,-4.1483003 0,-5.4271003 0.0544,-1.0487 0.191,-2.0915 0.4086,-3.1191 0.1505,-0.73301 0.4981,-1.41197 1.0057,-1.96499 0.5401,-0.43474 1.2227,-0.65681 1.9173,-0.6238 0.6407,-0.02291 1.2802,0.07226 1.8859,0.2807 0.3735,0.20309 0.6711,0.5203 0.8486,0.90453 0.2518,0.54008 0.401,1.12166 0.4401,1.71549 0,0.84217 0,1.84027 0.1885,3.11907 h 3.5203 c 0.0097,-1.4201 -0.0954,-2.8386 -0.3143,-4.24193 -0.1044,-0.83495 -0.3487,-1.6467 -0.7229,-2.40169 -0.4817,-0.75562 -1.2161,-1.31880002 -2.0745,-1.59072002 -1.2186,-0.38187 -2.4948,-0.55072 -3.7717,-0.49903 -1.4022,-0.07236 -2.7993,0.21781 -4.0546,0.84213 -1.0317,0.59787002 -1.8042,1.55329002 -2.1687,2.68239002 -0.4441,1.2138 -0.7087,2.48495 -0.7858,3.77405 0,1.466 -0.1886,3.6805003 -0.1886,6.6124003 0,2.9319 10e-5,5.1464 0.1886,6.6436 0.0771,1.289 0.3417,2.5602 0.7858,3.774 0.4053,1.1 1.183,2.0261 2.2002,2.62 1.243,0.6299 2.6287,0.9307 4.0231,0.8734 1.2644,0.0601 2.5275,-0.1417 3.7089,-0.5926 0.8139,-0.3566 1.5121,-0.9302 2.0171,-1.6571 0.5049,-0.7268 0.7968,-1.5785 0.8431,-2.4601 0,-0.9045 0.2829,-2.4017 0.44,-4.4914 h -3.5831 z"
     fill="#000000"
     id="path14" />
  <path
     d="m 99.919,5.4068297 c 0.125,-0.74158 0.476,-1.42735 1.006,-1.96502 0.53,-0.43004 1.201,-0.652 1.886,-0.6238 0.641,-0.0282 1.281,0.06712 1.885,0.2807 0.389,0.19383 0.699,0.51277 0.88,0.90453 0.238,0.54514 0.386,1.12417 0.441,1.71549 0,0.84217 0.157,1.84027 0.188,3.11907 h 3.52 c -0.022,-1.4188 -0.127,-2.8351 -0.314,-4.24193 -0.114,-0.83692 -0.369,-1.64886 -0.754,-2.40168 -0.405,-0.76737 -1.075,-1.36499002 -1.886,-1.68427002 -1.229,-0.38422 -2.516,-0.55311 -3.803,-0.49906 -1.402,-0.07236 -2.8,0.21784 -4.0549,0.84216 -1.0149,0.61698002 -1.7817,1.56538002 -2.1687,2.68236002 -0.4142,1.22201 -0.678,2.48922 -0.7858,3.77412 0,1.154 0,2.7759003 -0.1886,4.8345003 h -4.7146 v 3.0255 h 4.5575 c 0,2.4016 0,4.2731 0.1886,5.5519 0.1077,1.2848 0.3716,2.552 0.7857,3.774 0.4164,1.0936 1.1913,2.0164 2.2002,2.62 1.2446,0.6259 2.6296,0.9265 4.0236,0.8734 1.264,0.0629 2.528,-0.139 3.708,-0.5927 0.779,-0.3598 1.446,-0.9199 1.932,-1.6219 0.486,-0.7021 0.774,-1.5206 0.834,-2.3704 0,-0.9046 0.252,-2.4017 0.44,-4.4915 h -3.614 v 3.1191 c -0.004,0.5582 -0.122,1.1098 -0.346,1.6219 -0.179,0.4935 -0.523,0.9115 -0.974,1.1852 -0.584,0.2542 -1.218,0.3716 -1.855,0.3431 -0.68,0.0399 -1.352,-0.1711 -1.886,-0.5926 -0.558,-0.5039 -0.915,-1.1903 -1.005,-1.9338 -0.255,-1.021 -0.392,-2.0674 -0.409,-3.1191 0,-1.2788 0,-3.119 0,-5.4895 0,-2.3705 0,-4.1483003 0,-5.4271003 0.022,-1.0513 0.159,-2.0971 0.409,-3.1191"
     fill="#000000"
     id="path16" />
  <path
     d="m 114.409,0.47870968 h -3.615 V 27.3649 h 3.615 z"
     fill="#000000"
     id="path18" />
  <path
     d="m 129.433,3.8160997 c -0.422,-1.11734 -1.222,-2.05451 -2.263,-2.65119 -1.287,-0.59713002 -2.699,-0.87542002 -4.118,-0.81096002 -1.434,-0.05533 -2.86,0.24481 -4.149,0.87333002 -1.048,0.60241 -1.85,1.55211 -2.263,2.68238 -0.488,1.16376 -0.795,2.39414 -0.911,3.64934 -0.175,2.0016 -0.249,4.0107003 -0.22,6.0197003 0,2.8695 0,5.0529 0.22,6.5812 0.106,1.3072 0.413,2.5904 0.911,3.8053 0.445,1.1231 1.266,2.0595 2.326,2.6512 1.269,0.6176 2.674,0.9073 4.086,0.8421 1.432,0.0637 2.857,-0.2256 4.149,-0.8421 0.954,-0.5141 1.698,-1.3409 2.106,-2.3393 0.522,-1.2506 0.83,-2.5788 0.911,-3.93 0,-1.5907 0.189,-3.8677 0.189,-6.7684 0,-2.9007 0,-4.9905003 -0.189,-6.2381003 -0.091,-1.1857 -0.356,-2.35189 -0.785,-3.46213 M 126.509,19.1618 c -0.024,1.0512 -0.161,2.0968 -0.408,3.1191 -0.128,0.7383 -0.492,1.4162 -1.037,1.9338 -0.598,0.3878 -1.297,0.5944 -2.012,0.5944 -0.714,0 -1.413,-0.2066 -2.011,-0.5944 -0.567,-0.5151 -0.962,-1.1899 -1.132,-1.9338 -0.282,-1.0184 -0.45,-2.0643 -0.503,-3.1191 0,-1.2788 0,-3.119 0,-5.3647 0,-2.2458 0,-3.6493 0,-4.8346003 0.045,-1.0556 0.213,-2.1024 0.503,-3.11901 0.164,-0.75518 0.559,-1.44159 1.132,-1.96502 0.569,-0.44892 1.286,-0.67132 2.011,-0.6238 0.716,-0.046 1.425,0.1521 2.012,0.56143 1.034,1.34773 1.547,3.0188 1.445,4.7098 0,1.3724 0,3.1190003 0,5.1152003 0,1.9962 0,3.8676 0,5.5207 z"
     fill="#000000"
     id="path20" />
  <path
     d="M 141.816,19.0995 135.247,0.47870968 h -3.74 V 27.3649 h 3.08 V 8.7753997 L 141.188,27.3649 h 3.709 V 0.47870968 h -3.081 z"
     fill="#000000"
     id="path22" />
  <path
     d="m 149.611,0.47870968 h -3.614 V 27.3649 h 3.614 z"
     fill="#000000"
     id="path24" />
  <path
     d="m 161.681,14.5456 c -0.971,-0.8133 -2.024,-1.5242 -3.143,-2.1209 l -0.943,-0.5614 c -0.994,-0.5295 -1.854,-1.2761 -2.515,-2.1834003 -0.54,-0.8809 -0.802,-1.9018 -0.754,-2.9319 -0.082,-0.96735 0.138,-1.93631 0.629,-2.77594 0.295,-0.28816 0.651,-0.50761 1.043,-0.64246 0.391,-0.13485 0.808,-0.18173 1.22,-0.1373 0.365,-0.04508 0.736,-0.01281 1.088,0.09471 0.353,0.10752 0.678,0.28784 0.955,0.52909 0.464,0.62159 0.707,1.37857 0.691,2.15215 h 2.923 c -0.052,-0.80825 -0.168,-1.61125 -0.346,-2.40168 -0.12,-0.53285 -0.356,-1.03321 -0.691,-1.46596 -0.585,-0.66485 -1.33,-1.17317002 -2.164,-1.47836002 -0.835,-0.30518 -1.734,-0.39744 -2.614,-0.2683 -0.868,-0.07338 -1.743,0.02384 -2.573,0.28608 -0.831,0.26224 -1.601,0.68436002 -2.267,1.24225002 -1.085,1.34585 -1.603,3.05585 -1.446,4.77212 -0.052,1.6243 0.374,3.2285 1.226,4.6162003 0.97,1.4079 2.276,2.5548 3.803,3.3374 l 0.723,0.4055 c 0.467,0.2419 0.919,0.5128 1.352,0.8109 0.314,0.2024 0.581,0.4681 0.785,0.7798 0.351,0.455 0.607,0.9744 0.755,1.5283 0.165,0.6417 0.239,1.3031 0.22,1.9651 0.099,1.202 -0.129,2.4085 -0.66,3.4933 -0.28,0.3643 -0.65,0.6507 -1.074,0.831 -0.424,0.1804 -0.888,0.2487 -1.347,0.1983 -0.523,0.0122 -1.042,-0.1058 -1.508,-0.3431 -0.283,-0.1506 -0.526,-0.3641 -0.712,-0.6239 -0.185,-0.2598 -0.308,-0.5587 -0.357,-0.8733 -0.131,-1.1599 -0.152,-2.3295 -0.063,-3.4933 h -3.143 v 0.7798 c 0.044,1.2116 0.16,2.4197 0.346,3.6181 0.082,0.6733 0.33,1.3162 0.723,1.8714 0.499,0.6387 1.161,1.1339 1.917,1.4348 0.924,0.3404 1.906,0.4993 2.892,0.4678 0.924,0.0786 1.855,-0.0363 2.732,-0.3371 0.878,-0.3009 1.681,-0.7811 2.36,-1.4096 1.21,-1.553 1.783,-3.5032 1.603,-5.4583 0.029,-1.2291 -0.108,-2.4566 -0.409,-3.6493 -0.227,-0.7851 -0.661,-1.4957 -1.257,-2.0586 z"
     fill="#000000"
     id="path26" />
  <path
     d="M 176.453,0.47870968 H 163.724 V 3.2858597 h 4.526 V 27.3649 h 3.583 V 3.2858597 h 4.62 z"
     fill="#000000"
     id="path28" />
  <path
     d="m 184.531,0.47870968 h -3.803 L 175.353,27.365 h 3.395 l 1.131,-5.7391 h 5.061 l 1.1,5.7391 H 190 Z M 180.131,18.7564 182.425,6.2801997 184.594,18.7564 Z"
     fill="#000000"
     id="path30" />
</svg>
