<svg width="146" height="48" viewBox="0 0 146 48" fill="none" xmlns="http://www.w3.org/2000/svg">
<path d="M25.9885 37.1576V37.8309L25.8224 38.616L25.2493 39.235L24.4069 39.404L23.5645 39.3467H22.7794L21.2665 39.2923L20.4785 39.3467H18.7966L18.0115 39.404H14.937L13.4785 39.4585H12.7478L11.851 39.3467H11.0086L10.2808 39.4585H9.49283L8.59026 39.404H4.72493L3.20917 39.2923L2.48137 39.404H1.69627L0.911173 39.1776L0.338107 38.6046L0.169053 37.8195V36.9799L0.111748 36.2493L0.169053 35.4642V33.2751L0.111748 32.2665L0.0573057 31.5358L0.111748 30.8625V29.235L0.169053 28.3954L0.111748 27.6103L0.169053 26.8797L0.226359 26.0946V25.2521L0.280801 24.3553V23.5702L0.169053 21.9971V20.4928L0.111748 19.7622L0.226359 18.192L0.169053 17.3496L0.111748 16.5645L0.169053 15.8367L0.111748 15.0487V13.4785L0.0573057 12.7507L0 11.9628L0.0573057 11.1777L0.169053 10.3926V7.24069L0.111748 6.45272V5.61318L0.169053 4.82808V4.09742L0.0573057 2.41547L0.111748 1.62751L0.226359 0.954155L0.512892 0.449859L1.02006 0.163326L1.86246 0.108884H2.64756L3.37536 0.277937L3.94842 0.782238L4.06017 1.56734V2.44126L4.17192 3.2808V4.12321L4.11748 4.96562L4.06017 5.69341L4.17192 6.36676L4.22922 7.15186L4.17192 8.05158L4.11748 8.89112V11.0802L4.17192 11.8653V12.7564L4.06017 13.5415L4.11748 14.2693L4.06017 15.0544L4.00573 15.9083V16.7507L4.06304 17.5358V19.8281L4.12034 20.6132V21.4556L4.06304 22.1834L4.00573 23.0258V24.596L4.06304 25.4384L4.12034 26.2235V27.6819L4.06304 28.5244V29.4212L4.12034 30.1519V30.808L4.17478 31.6476V32.5473L4.12034 33.3868L4.06304 34.1748L4.17478 34.8481L4.51289 35.2407L5.01719 35.5759L5.63323 35.745H6.36389L7.149 35.6877L7.9914 35.5759L8.83381 35.5215L9.61891 35.5759H10.3467L11.0774 35.6332L11.8052 35.745H12.6476L13.4327 35.5759H14.2178L15.0602 35.6332H16.745L17.3181 35.6877H19.7307L21.3582 35.745H22.1433L22.8166 35.6332H24.3324L25.0602 35.745L25.5673 36.0315L25.9026 36.4785L25.9885 37.1576ZM0.965615 18.8195L0.796561 18.7077L0.573066 18.8195V19.0458L0.630372 19.2693L0.796561 19.1576L0.965615 18.8195ZM0.630372 15.3983L0.916905 15.51L0.971346 15.6791L1.08309 15.7908L1.19484 15.6218L0.908309 15.3352L0.630372 15.3983ZM0.916905 14.4441L0.747851 14.5559L0.916905 14.7249L1.02865 14.5014L1.08309 14.1633L0.796561 13.9398L0.916905 14.4441ZM1.20344 21.3467L1.149 21.2894L1.03725 21.2321L0.979942 21.3467L0.9255 21.4011L0.979942 21.5129H1.09169L1.20344 21.4585V21.3467ZM0.979942 5.6361L1.149 5.80516H1.37249L1.26074 5.5788L1.09169 5.46705L1.03725 5.5788L0.979942 5.6361ZM1.31805 7.31805L1.149 7.54155V7.82808L1.20344 7.88539H1.26074L1.4298 7.71633L1.48424 7.32378L1.77077 6.98854L1.71633 6.59599L1.48997 6.48138L1.26648 6.59599H1.04298L1.20917 6.98854L1.31805 7.31805ZM1.37249 12.0888L1.31805 12.0315H1.09169L1.03725 12.1433L1.09169 12.255H1.149L1.26074 12.2006L1.37249 12.0888ZM1.18911 20.7794L1.13467 20.6103H1.02292V20.8338L1.07736 21.0029L1.18911 20.7794ZM3.37822 18.8711L3.04298 18.702L2.87392 18.533V18.2464L2.70487 17.7966L2.31232 17.9083L2.02579 18.0774L1.63324 18.0201L1.52149 17.851V17.6275L1.57879 17.4585V17.341L1.80229 17.2292L1.97134 17.0057L2.30659 16.9484L2.6447 16.7794L2.69914 16.6132L2.58739 16.3868L2.25215 16.2751V15.9398L2.58739 15.8281V15.5415L2.47564 15.3725V15.149L2.53009 14.9799L2.75645 14.8682L2.86819 15.0344L3.03725 15.0917L3.20344 14.8682L3.09169 14.5817L3.20344 14.2951L2.97994 14.0688L2.86819 13.7335L3.09169 13.6762L3.31805 13.5645L3.26074 13.3954L3.03725 13.1089L2.69914 12.8825L2.41261 12.9398L1.96562 12.49L1.85387 12.2034L2.1404 12.0917L2.30945 11.8682L2.88252 11.9799L3.16905 11.9226L3.11175 11.7564L2.94269 11.6991L2.7765 11.3639V11.0258L2.94269 10.9685V10.8023L2.83094 10.5759L2.7765 10.2407L2.66476 10.8138L2.55014 10.9799L2.43839 11.0946L1.87966 11.0373L1.65329 11.2063L1.59885 11.149V10.9255L1.88539 10.639L1.82808 10.5272L1.65902 10.4155L1.48997 10.5272L1.43553 10.639L1.26648 10.6963L1.15473 10.9828L1.09742 11.2693L1.43553 11.6075L1.54728 11.9427L1.83381 12.1691L1.54728 12.4556L1.60458 12.7421L1.77077 12.6848L2.10888 12.7966L2.05157 13.0201L1.99714 13.1891H1.60458L1.65902 13.4126L1.82808 13.3582L1.99714 13.4126V13.639L2.10888 13.808L2.33238 13.9742L2.55587 13.8625L2.61318 13.9198V14.0315L2.55587 14.255L2.44413 14.3668V14.7049L2.22063 14.9914L1.99714 14.8797L1.88539 15.1032L1.65902 15.4384L1.54728 15.6648L1.48997 15.8883L1.20344 16.1117L1.149 16.4499L1.20344 16.6734L1.31805 16.8424L1.26074 17.0659L1.4298 17.1776L1.31805 17.6275V18.0201L1.65329 18.1891L1.82235 18.3582L1.76504 18.5817L1.82235 18.7507L1.9914 18.5817L2.04585 18.4126H2.2149L2.38395 18.3582L2.55014 18.4126V18.639L2.60745 18.8052L2.71919 19.0315V19.255H2.55014L2.4957 19.4241L2.55014 19.5358L2.71919 19.5903L2.88825 19.5358L3 19.3668V18.7937L3.16905 18.9628L3.37822 18.8711ZM1.1404 14.9971L1.6447 14.7106L1.98281 14.3725L2.03725 14.086L1.81375 13.8625L1.6447 13.9198L1.53295 14.086L1.1404 14.9971ZM1.1404 19.9341H1.42693L1.71347 19.765H1.37536L1.1404 19.9341ZM1.19484 5.12321L1.3639 5.45845L1.70201 5.12321L1.81375 4.89685L1.70201 4.72779L1.53295 4.67335L1.3639 4.7851L1.19484 5.12321ZM1.30945 6.24356H1.3639L1.4212 6.18911V6.02006L1.30945 5.96275L1.25215 6.02006V6.13181L1.30945 6.24356ZM1.30945 19.3725L1.25215 19.4842L1.3639 19.596H1.59026L1.81375 19.4298L1.75644 19.2034L1.53295 19.149L1.4212 18.8625L1.25215 19.0315L1.30945 19.3725ZM1.30945 23.3553L1.4212 23.467L1.59026 23.5244L1.70201 23.467V23.3009L1.6447 23.1318L1.47564 23.0745L1.3639 23.1891L1.30945 23.3553ZM1.4212 3.83095L1.47564 4L1.59026 4.11175L1.70201 4L1.6447 3.83095H1.4212ZM1.42693 9.89112L1.48137 9.94556H1.59599L1.70773 9.89112V9.72206L1.59599 9.66762L1.48137 9.72206L1.42693 9.89112ZM2.10029 22.0659H1.98854L1.87679 22.1777L1.65043 22.3467L1.42693 22.6332V22.7851L1.59599 22.8395L1.70773 23.0086L1.93123 22.9513L2.10029 22.8395L2.04298 22.616V22.3295L2.10029 22.2178V22.0659ZM2.04298 23.9742L1.75644 23.8625L1.53295 24.086L1.4212 24.3725L1.59026 24.7077L1.75644 24.149L2.04298 23.9742ZM1.46991 2.9341L1.58453 2.98854V2.82235L1.75072 2.7106L1.80802 2.59599L1.69627 2.48424L1.52722 2.54155V2.7106L1.46991 2.87679V2.9341ZM1.75644 8.37823H1.53295L1.47564 8.43553L1.53295 8.54728L1.6447 8.60458H1.75644L1.81375 8.48997L1.75644 8.37823ZM1.81375 9.38968L2.149 9.33238L2.26361 9.27794L2.31805 9.22063L2.26361 9.05158L2.149 8.93983H2.03725L1.98281 8.99714L1.47564 9.28367L1.81375 9.38968ZM1.59026 21.8453L1.47564 22.0115L1.53295 22.2378L1.70201 22.1261L1.75644 21.8997L1.70201 21.8453H1.59026ZM1.70201 25.2665H1.59026L1.53295 25.3782V25.49H1.59026L1.6447 25.4355V25.3639L1.70201 25.2665ZM1.98854 20.8911L1.93123 20.6648L1.81948 20.4986L1.70773 20.553L1.59599 20.6648L1.70773 20.8338L1.76218 21.0602L1.87679 21.1146L1.98854 20.8911ZM1.76218 5.34957L1.70773 5.51863L1.76218 5.63037H2.10029L2.15472 5.51863L2.10029 5.34957H1.76218ZM1.81948 21.2837L1.70773 21.3954L1.81948 21.5072L1.93123 21.4527V21.2837H1.81948ZM2.93983 5.96562L2.77364 5.51863L2.4871 5.96562L1.91404 6.07737H1.80229L1.74498 6.19198L1.80229 6.30372H2.25215L2.53868 6.13467L2.93983 5.96562ZM2.04298 7.53582L2.10029 7.24928L1.93123 7.36103L1.81948 7.52722V7.81375L2.04298 7.87106L2.10029 7.70201L2.04298 7.53582ZM3.10888 9.50143H2.99713L2.93983 9.38968V9.10315L2.88538 8.81662L2.93983 8.64757L2.77364 8.47851V8.03152H2.32378L1.87679 8.14327L2.10029 8.36676L2.32378 8.42407L2.54728 8.53582L2.83381 8.82235L2.77937 9.10888L2.72206 9.33238L2.38682 9.61891L2.27507 10.0115L1.82521 10.1805L1.93696 10.404L2.22349 10.5731L2.44699 10.404L2.61604 10.235L2.44699 10.0688L2.55874 9.78223L2.84527 9.83668L3.07163 9.94842L3.29513 9.83668L3.46418 9.67049L3.40688 9.44413L3.29513 9.38968L3.10888 9.50143ZM1.81948 19.7135V20.1605L2.15472 19.8739L2.32378 19.5387L2.21203 19.4814L2.10029 19.5387L1.81948 19.7135ZM1.93123 1.53295L2.10029 1.70201L2.32378 1.6447L2.38109 1.59026L2.32378 1.47851L2.15472 1.53295H1.93123ZM1.93123 2.54441L2.04298 2.37536L1.98854 2.2063L1.93123 2.37536V2.54441ZM2.04298 19.0946L2.26934 19.1519H2.38109L2.49284 18.9255L2.38109 18.8138L2.21203 18.702L1.98854 18.7593L1.93123 18.9255L2.04298 19.0946ZM2.10029 4.50717L2.04298 4.95702L2.43553 4.50717L2.04298 4.11461L2.10029 4.50717ZM2.10029 7.03152L2.21203 6.97708V6.91977L2.26934 6.86533L2.15472 6.80803H2.10029L2.04298 6.86533V6.91977L2.10029 7.03152ZM2.15472 17.3009L2.04298 17.5874L2.10029 17.8138H2.21203L2.32378 17.7565V17.533L2.15472 17.3009ZM2.10029 22.404V22.5186H2.26934L2.32378 22.404V22.3496L2.21203 22.2923L2.10029 22.404ZM2.43553 24.8195L2.38109 24.6504L2.26934 24.4814L2.15472 24.6504L2.10029 24.8195L2.15472 24.9857L2.26934 25.043L2.43553 24.9312V24.8195ZM2.149 7.59312L2.2063 7.65043H2.4298L2.65616 7.70487L2.7679 7.48138L2.65616 7.42407L2.4871 7.48138L2.26361 7.42407L2.149 7.59312ZM2.7679 20.8338L2.54155 20.6648L2.4298 20.4986L2.37536 20.2722L2.149 20.5587L2.37536 20.7851L2.4871 20.9513L2.65616 21.0086L2.7679 20.8338ZM2.93409 12.3639L2.59885 12.1948H2.31232L2.20057 12.4183L2.4871 12.8109L2.9914 12.7564L3.16046 12.5301L2.93409 12.3639ZM2.54155 22.0115L2.4298 21.8453L2.26361 21.788L2.31805 21.957L2.4298 22.0688H2.54155V22.0115ZM2.54155 24.2579L2.4871 24.0315L2.31805 23.8653V24.0888L2.37536 24.3123H2.4298L2.54155 24.2579ZM2.4298 3.34098L2.37536 3.45272V3.56447L2.4298 3.62178L2.54155 3.56447V3.34098H2.4298ZM2.82235 6.93123L2.93409 7.10029L3.04871 7.21203L2.9914 6.70774H2.41834V6.81948L2.58739 6.93123H2.82235ZM2.53581 4.91117L2.48137 5.13754L2.65043 5.19198L2.81662 5.13754L2.92837 5.19198L3.04298 5.13754L2.98567 4.91117L2.76218 4.79943L2.53581 4.91117ZM2.53581 17.5358L2.48137 17.5903L2.53581 17.7049H2.76218L2.81662 17.6476L2.76218 17.5358L2.65043 17.4785L2.53581 17.5358ZM3.48997 17.3123L3.37822 17.1977H3.20917L2.87392 17.086H2.65043L2.81662 17.3725L3.20917 17.5415L3.43553 17.4842L3.48997 17.3123ZM3.60172 15.404L3.37822 15.2923L3.09169 15.3467L2.80516 15.2923L2.75071 15.7393L2.97421 16.1318L3.03152 16.4183H2.97421L3.14327 16.5874L3.1977 16.3639V16.1375L3.08596 15.9713V15.745H3.25501L3.31232 15.914L3.53582 15.8596L3.7192 15.6218L3.60172 15.404ZM3.02865 20.2292L2.97135 20.0602L2.8596 20.0029L2.80229 20.0602V20.2063L2.91404 20.3754L3.02865 20.2292ZM3.1404 10.2006H3.02865L2.91404 10.3123L3.02865 10.4241L3.1404 10.3696L3.19484 10.255L3.1404 10.2006ZM3.36389 18.447L3.25215 18.3926L3.1404 18.447V18.5587L3.19484 18.6734H3.25215L3.36389 18.5587V18.447ZM3.93696 16.596L3.71346 16.3725L3.48711 16.2607L3.43266 16.3152V16.4269L3.59885 16.6533L3.93696 16.596ZM6.29799 37.4384L6.1318 37.6648V37.8309L6.24355 37.8882L6.29799 37.7192V37.4384ZM8.03725 37.2149H7.87106L7.75644 37.3266V37.384L7.81375 37.4384H7.98281L8.03725 37.3266V37.2149ZM8.82522 36.3725L8.87965 36.4298L8.9914 36.4842V36.4298L9.04871 36.3725L8.9914 36.3181L8.87679 36.2521H8.82235L8.82522 36.3725ZM9.11175 37.5501L9.05731 37.4957L8.94556 37.5501L8.88825 37.6648V37.7192L8.94556 37.7765L9.05731 37.7192L9.11175 37.6075V37.5501ZM10.3467 36.9914L10.2923 36.8768H10.0659L10.0115 36.9914L10.0659 37.1576H10.1776L10.2923 37.1031L10.3467 36.9914ZM10.235 37.5501L10.1232 37.384L10.0659 37.4384V37.6075L10.1776 37.8309L10.235 37.5501ZM10.5215 37.2636L10.6332 37.3754L10.8567 37.3181V37.149H10.5215V37.2636ZM11.0258 37.7106L10.8567 37.5415H10.6332L10.8023 37.8281L11.0258 38.0544V37.7106ZM11.1948 37.2636H11.0258V37.4298L11.1375 37.4871V37.3983L11.1948 37.2636ZM11.4183 37.2636L11.7049 37.3181L11.8739 37.2063L11.8166 36.9198L11.6504 36.808H11.4241L11.2006 36.9198V37.1117L11.4183 37.2636ZM12.0372 37.8797L11.9799 37.6562L11.7564 37.5415L11.6447 37.5989L11.5874 37.7679L11.6447 37.9914L11.8109 38.0487L11.9799 37.9914L12.0372 37.8797ZM11.6991 36.3095L11.7564 36.4212H11.8682L11.9799 36.3095L11.8682 36.2521H11.7421L11.6991 36.3095ZM12.0372 37.3181L12.149 37.4298H12.2607L12.318 37.3754V37.3181L12.2034 37.2636H12.0917L12.0372 37.3181ZM12.8223 38.1605L12.765 37.8224L12.596 37.5358L12.5415 37.4241L12.4298 37.3696L12.3725 37.4814V37.6504L12.318 37.7622L12.2607 37.9284L12.149 38.0974L12.2034 38.2665L12.4298 38.3782L12.596 38.2665L12.765 38.3238L12.8223 38.1605ZM12.2493 36.7565L12.361 36.9828L12.4728 37.2693L12.5845 37.1547L12.5301 37.1003V36.7622L12.361 36.596L12.2493 36.6504V36.7565ZM12.8223 37.043L12.9885 37.1003H13.0458L13.1032 36.9885L12.9341 36.7622L12.8223 36.8195V37.043ZM14.4499 38.2206L14.3925 38.1089L13.8195 37.5358V37.4814L13.8768 37.4241L13.6504 37.1375L13.596 36.8023L13.7077 36.6905V36.4642L13.3725 36.5788H13.2034L13.0917 36.6905L13.1461 36.745H13.2579L13.3725 36.914L13.4269 37.1375L13.3725 37.2521V37.3066L13.2579 37.4183L13.1461 37.4756L13.2034 37.3639V37.1948L12.8653 37.4814L13.0344 37.7049L13.1461 37.7622L13.2579 37.7049L13.3725 37.8166L13.8195 38.1031L14.212 38.2722L14.3266 38.3295L14.4499 38.2206ZM13.4957 38.6132L13.4384 38.3897L13.384 38.1031L13.3266 37.9914H13.2149L13.1032 38.0487L13.0458 38.1031V38.2149L13.1032 38.2722L13.2693 38.4957L13.4384 38.6648L13.4957 38.6132ZM14.1691 37.6619L14.616 37.5473L14.7307 37.043L14.5616 36.8195L14.3381 36.8739V37.3983L14.1691 37.6619ZM14.9542 38.1089L14.8968 37.9971L14.7851 37.8854L14.6733 37.9971L14.5616 38.1662L14.616 38.2779L14.7307 38.3352L14.8968 38.2779L14.9542 38.1089ZM16.0201 37.8224L15.7966 37.7106L15.0659 37.8224L15.1232 38.2722L15.3467 38.6074V38.4957L15.404 38.384L15.6275 38.2722L15.7966 38.1031L16.0201 37.9914V37.8224ZM15.1777 37.149L15.235 37.2063L15.404 37.0946L15.5702 36.9255H15.2837L15.1719 37.0372L15.1777 37.149ZM16.3009 37.4355V37.3238L16.1318 37.2693L15.9627 37.3811H15.851L15.7966 37.4355L15.6275 37.3238L15.4585 37.4928L15.5702 37.6046H16.1433L16.3009 37.4355ZM15.8911 37.1117L15.9456 37.1662H16.1146L16.0573 37.0544H16.0029L15.8911 37.1117ZM16.1146 36.7192L16.2837 36.8309H16.4527L16.5072 36.7192L16.4527 36.6619H16.2837L16.1146 36.7192ZM18.1347 37.7278L17.8481 37.3352L17.5616 37.2808L17.3381 37.1662L17.0516 36.7736L16.659 36.5501L16.6017 36.8367L16.8281 37.2865L16.8825 37.51L16.659 37.6218L16.3725 37.8453V38.0143L16.2607 38.1834L16.4298 38.2378H16.6533L16.8223 38.4642H17.4728L17.5301 38.5759L17.6963 38.6304L17.7536 38.5759V38.5186L17.6963 38.4069H17.5845L17.4155 38.2951H17.1862L16.9627 38.0086V37.6734L17.5788 37.7851L18.0287 38.2321L18.1347 37.7278ZM18.2464 36.7192L18.0229 36.6074L17.8539 36.4384L17.6848 36.3266L17.5186 36.4384L17.4613 36.6074L17.5731 36.7736L17.9112 36.9427L18.2464 36.7192ZM19.8739 37.3926V37.3352L19.9312 37.2235L19.7049 37.1117L19.3696 37.0544L19.0315 36.7679L18.5845 36.8252L18.4699 37.0487L18.639 37.2751V37.4986L18.4699 37.8911L18.6963 38.2264L18.8653 37.8338L18.639 37.4986L18.9771 37.3295L19.3696 37.1605L19.5931 37.3868L19.8739 37.3926ZM20.447 37.9513L20.2779 37.8395L19.9914 37.8968L19.8797 38.0086V38.1203L20.0487 38.2321L20.2178 38.1203L20.4413 38.0659L20.447 37.9513ZM20.3897 38.6819L20.1662 38.5702L19.9971 38.6819V38.7937H20.2235L20.3897 38.6819ZM21.063 36.7192L20.8395 36.6619L20.7278 36.7736L20.7822 36.9427L20.6705 37.2808V37.5043L20.894 37.3926L21.063 36.9427V36.7192ZM21.1203 37.5587L21.3438 37.5043L21.4556 37.3352L21.3438 37.2235L21.1748 37.3352L21.1203 37.5587ZM21.6246 38.2894L21.5129 38.0659L21.2894 38.0086L21.2321 38.0659V38.1777L21.4011 38.3467L21.6246 38.2894ZM22.5215 37.5587H22.3438L22.2865 37.6161L22.3438 37.7278H22.51L22.5215 37.5587ZM23.1404 37.7851L23.0831 37.6734L22.9713 37.7278V37.9513L23.0831 38.0086L23.1404 37.9513V37.7851ZM24.2063 37.1117L24.0945 37.0544L24.0372 37.1662V37.2808H24.2063V37.1117Z" fill="#000"/>
<path d="M60.6046 38L60.3181 38.6734L59.6447 39.1776L58.8596 39.404L58.0745 39.3467H57.3438L56.616 39.404L55.7163 39.3467H54.9312L54.1461 39.4585H53.4183L52.6304 39.5158L51.0057 39.4585H50.4986L48.086 39.404L47.1318 39.3467H45.6189L44.8883 39.2923L43.2063 39.3467L42.3639 39.404H41.5788L40.7937 39.3467H40.0086L39.2235 39.4585L38.5473 39.5158L37.0344 39.404H36.0974L35.6476 39.4585L33.9083 39.404L33.1805 39.3467L32.6733 39.0602L32.4499 38.6103L32.3381 37.0401V34.5731L32.3954 33.7307V33L32.3381 32.2722L32.2808 31.4298L32.3954 30.6447V29.1862L32.2808 28.4011L32.2264 27.616L32.3381 26.8854L32.3954 26.1547L32.2808 25.3152L32.2264 24.4155L32.2808 23.5186L32.3954 22.7335L32.3381 22.0029L32.2264 21.2751V20.5501L32.3381 19.8223V19.0373L32.3725 18.2006V17.341L32.3152 16.5559V15.7708L32.3725 14.9284L32.3152 14.1433V12.6275L32.2579 11.788L32.3725 10.3295V9.54155L32.3152 8.75644L32.2034 7.97135V5.55874L32.1461 4.71633V3.98854L32.2034 3.31519L32.2579 2.41834V1.58166L32.4269 0.796561L33 0.223495L33.7851 0.054442H36.255L37.8252 0.16619H38.6103L39.4527 0.054442L40.2951 0H41.9198L43.4355 0.111748H44.2779L44.7822 0.054442L45.6791 0H46.5788L47.3639 0.054442L48.149 0L49.7192 0.111748H52.1433L52.8166 0.054442H57.5301L58.3152 0.111748L59.0458 0.335243L59.4928 0.558738L59.7794 0.951291L59.8797 1.58166L59.9943 2.25502L59.937 2.92837L59.6504 3.37823L59.2006 3.71347L58.4155 3.88252L57.6304 3.77077L56.788 3.82522H55.8367L55.3295 3.77077H54.4355L53.5931 3.88252H52.6963L51.2951 3.82522H48.8825L48.0401 3.77077L45.7478 3.71347L44.9054 3.65616L44.1203 3.71347L43.3353 3.82522L42.5501 3.77077L41.8768 3.71347L41.0917 3.77077H40.1375L38.3983 3.65616H37.9484L37.1633 3.82522L36.659 4.11175L36.3725 4.61605L36.2034 5.45845L36.149 5.96275V6.9169L36.2607 8.60172V13.2579L36.3152 13.9312V15.6218L36.3725 16.4069L36.4842 17.192L36.9885 17.8109L37.8309 17.9799L39.4585 17.8653L40.1862 17.9226H40.8596L41.702 17.8109H43.3295L44.788 17.8653H45.5731L47.1433 17.9799L48.7708 17.8653L51.063 17.7536H52.5215L55.0086 17.914L55.851 17.8567H56.6361L57.4756 17.914L58.2063 18.0831L58.7106 18.6562L58.9971 19.3295V20.1146L58.6619 20.8997L58.0888 21.404L57.3582 21.5158L56.5731 21.4613H55.7307L54.2178 21.5731L53.4327 21.4613H52.5903L50.9054 21.5158L50.4585 21.5731H48.7736L47.9341 21.4613H47.1461L45.5215 21.6275H44.1203L43.2779 21.5158L42.4384 21.4613H41.6504L40.9799 21.5731L40.192 21.5158H37.9484L37.2206 21.6275L36.7135 21.914L36.3782 22.4183L36.2092 23.0372V25.3639L36.1547 26.149V26.937L36.2665 27.7765L36.3209 28.6189V29.404L36.2665 30.1891L36.2092 31.0315L36.2665 31.8739L36.3209 32.5473V33.2206L36.2665 34.1175L36.3782 34.9026L36.6648 35.3524L37.1691 35.5759L37.8424 35.6877H38.5702L40.1433 35.5759H40.9284L43.2206 35.6332L44.9599 35.745L46.4756 35.6332H48.0458L48.7192 35.5759H49.447L50.2321 35.6877H54.2178L55.0029 35.6332L55.6762 35.5759L57.3037 35.6877H58.9857L59.6017 35.7994L60.1089 36.086L60.3954 36.5358L60.5616 37.2665L60.6046 38ZM32.8882 26.6676L33 26.553L33.0573 26.3295L32.8882 26.2178L32.7192 26.3295L32.6619 26.553L32.7192 26.7221L32.8882 26.6676ZM32.7192 22.9083L32.8882 22.9627L33.0573 23.0745L33.1117 23.2436L33.2235 23.3009L33.2808 23.1891L33.1691 23.0201L33 22.851L32.7192 22.9083ZM32.8309 22.1232L33 22.235L33.1117 22.0659L33.1691 21.7307L32.8825 21.4441L32.937 21.7794L32.9943 22.0029L32.8825 22.0602L32.8309 22.1232ZM33.2808 28.7421H33.1117L33.0573 28.7994L33 28.9112L33.0573 28.9656L33.1691 29.0229L33.2808 28.9112V28.7421ZM33.1117 13.2006L33.2808 13.3696L33.5043 13.4241L33.3925 13.2006L33.1691 13.0888L33.1117 13.1461V13.2006ZM33.1117 19.7106L33.1691 19.8223H33.2808L33.3925 19.765L33.4499 19.6533V19.596L33.3381 19.5415L33.2235 19.596L33.1117 19.7106ZM33.3381 28.3066L33.2808 28.1375L33.1691 28.0802L33.1117 28.1375V28.3066L33.2235 28.4728L33.3381 28.3066ZM33.4499 14.9513L33.2808 15.1777V15.4642H33.3925L33.5616 15.298V14.9599L33.8969 14.6246L33.7851 14.1748L33.5616 14.063L33.3381 14.2321L33.2808 14.1748H33.1691L33.2808 14.5673L33.4499 14.9513ZM35.4699 26.3983L35.3009 26.341L35.1318 26.2292L34.9628 26.0602L35.0201 25.7736L34.851 25.3266L34.404 25.4384L34.2894 25.4928L34.1232 25.6074L33.9542 25.5501H33.7851L33.616 25.3811V25.1576L33.6734 25.0458L33.7307 24.8768L33.9542 24.765L34.0659 24.596L34.7393 24.3725L34.851 24.149L34.6819 23.9226L34.3467 23.8109V23.6447L34.404 23.5329L34.3467 23.4756L34.6819 23.4212V23.0716L34.6275 22.9054L34.5702 22.6791L34.6819 22.5129L34.851 22.3983L34.9628 22.5673L35.1891 22.6246L35.3009 22.3983L35.1891 22.1748L35.3009 21.8882L34.9513 21.3524L35.2378 21.2378L35.4069 21.1834L35.3496 21.0143L35.1261 20.6762L34.7908 20.51L34.5043 20.5645L34.2779 20.341L34.1118 20.1175L34 19.7794L34.2235 19.6676L34.3925 19.4441L34.6791 19.4986L34.9656 19.6103L35.2521 19.4986L35.1977 19.3868L35.0831 19.2751L34.8596 18.9885V18.6533L35.0831 18.596L35.0286 18.4269L34.9513 18.2006L34.8395 17.8625L34.7278 18.3696L34.7851 18.4241L34.4986 18.7106H34.212L33.9255 18.6562L33.7564 18.8224L33.702 18.7679H33.6447V18.5415L33.9312 18.255V18.1404L33.7622 18.0287L33.5931 18.1404L33.4814 18.255L33.3696 18.3095L33.2579 18.596L33.2006 18.8825L33.5387 19.2178L33.5931 19.5559L33.8797 19.6676V19.7794L33.6562 20.0659V20.3524L33.8797 20.2951L34.1662 20.4097L34.1118 20.5759V20.7794L33.9427 20.7221L33.7192 20.7794V21.0029L33.7736 20.9456H33.8854L34.0544 21.0029V21.1719L34.1662 21.341L34.3925 21.5645L34.6791 21.4527V21.788L34.5129 21.957L34.5673 22.2435L34.4011 22.5301H34.2865L34.063 22.4728L33.9513 22.6418L33.894 22.8109L33.7822 22.9771L33.6132 23.2034L33.5587 23.49L33.2722 23.7163L33.2149 24.0516L33.2722 24.2206L33.384 24.3897L33.3295 24.6132L33.4957 24.7822L33.4413 24.9513L33.384 25.1748V25.5673L33.7221 25.7364L33.8883 25.9026L33.8338 26.1289L33.8883 26.298L34.0573 26.1289L34.1146 25.9599H34.2808L34.4499 25.9026L34.5072 25.9599H34.6189V26.1834L34.6734 26.3524L34.788 26.5759V26.8023H34.6189L34.5616 26.9713L34.6189 27.0831L34.788 27.1375L34.9542 27.0831L35.0659 26.914V26.341L35.235 26.51L35.4699 26.3983ZM33.4499 22.0774L33.2235 22.5272L33.7307 22.3009L34.0659 21.9656L34.1232 21.6791L33.9542 21.4556H33.7307L33.616 21.6791L33.4499 22.0774ZM33.2235 27.4642H33.51L33.7966 27.2951H33.4613L33.2235 27.4642ZM33.3381 12.765L33.5043 13.1003L33.6734 12.8768L33.8424 12.7077L33.8969 12.5387L33.8424 12.3725L33.6734 12.3152L33.4499 12.4269L33.3381 12.765ZM33.5043 13.8854L33.5616 13.8309V13.7163L33.5043 13.6046H33.4499L33.3925 13.6619V13.7736L33.5043 13.8854ZM33.4499 26.8453V26.9026H33.3925V27.0143L33.4499 27.1261H33.6734L33.8969 26.9599L33.8424 26.7335L33.616 26.6791L33.5616 26.51L33.5043 26.3983L33.3925 26.5645L33.4499 26.8453ZM33.3925 30.8309L33.5043 30.9427L33.6734 30.9971L33.8424 30.9427V30.7736L33.7307 30.6046H33.5616L33.4499 30.7192L33.3925 30.8309ZM34.235 29.7077L34.1776 29.596H34.0659L33.9542 29.7077L33.7307 29.8768L33.5616 30.1003L33.5043 30.3266L33.6734 30.3811L33.8424 30.5501L34.0659 30.4928L34.1776 30.3266L34.1232 30.1576V29.8711L34.235 29.7077ZM34.0115 31.5587L34.1776 31.447L33.8424 31.3352L33.616 31.6218L33.5043 31.9083L33.6734 32.1948L33.7851 31.8567L33.8424 31.6332L34.0115 31.5587ZM33.5616 11.6418L33.7307 11.7536L33.7851 11.6991V11.6418L33.7307 11.4728L33.5616 11.4183V11.6418ZM33.8481 16.0172L33.7908 15.9627H33.6218L33.5673 16.0745L33.6218 16.1862H33.8481L33.9026 16.1289L33.8481 16.0172ZM33.9599 16.9713L34.2464 16.9169H34.4155L34.4699 16.8023L34.4155 16.6361L34.3009 16.5215H34.1891L34.1347 16.6361L33.5616 16.9226L33.9599 16.9713ZM33.7908 17.3095L33.7364 17.2521L33.6218 17.3095L33.5673 17.4756L33.6218 17.533H33.6791L33.7908 17.4756L33.8481 17.4212L33.7908 17.3095ZM33.6791 29.3725L33.5673 29.5387L33.6218 29.765L33.7908 29.6504L33.8481 29.4269L33.7908 29.3725H33.6791ZM33.6218 10.5759L33.6791 10.6304L33.7364 10.5759V10.4069L33.9026 10.3524V10.2378L33.7908 10.1261L33.6218 10.1834V10.5759ZM33.7908 32.7392H33.6791L33.6218 32.851V32.9627H33.6791L33.7364 32.9054V32.851L33.7908 32.7392ZM34.0774 28.4183L34.0229 28.1318L33.9656 28.0201H33.7966L33.6848 28.1862L33.7966 28.3553L33.8539 28.5788H33.9656L34.0774 28.4183ZM34.0229 12.9312L33.8539 12.9885L33.7966 13.1003L33.9083 13.212L34.0774 13.2693H34.1891L34.3009 13.1576L34.1891 12.9885L34.0229 12.9312ZM33.9656 28.8109H33.9083L33.7966 28.9226L33.9083 28.9771L34.0229 28.9226L34.0774 28.7536L33.9656 28.8109ZM34.6934 13.7736L35.0315 13.6046L34.8625 13.1003L34.5759 13.6046L34.0716 13.7163H33.9026L33.8481 13.8309L33.9026 13.9427H34.0716L34.3582 13.8854L34.6934 13.7736ZM34.1347 15.1203L34.1891 15.0086V14.8968L34.0229 15.0086L33.9083 15.1777L33.9656 15.4011L34.1891 15.4556L34.2464 15.2894L34.1347 15.1203ZM33.9083 27.2407L33.9656 27.6877L34.2522 27.4011L34.4212 27.0659L34.3639 27.0086L33.9083 27.2407ZM35.255 17.1404H35.086L35.0315 16.9713V16.2436L34.8625 16.1289V15.6819L34.4155 15.6246L33.9656 15.7364L34.2522 15.9627L34.4756 16.0172L34.6447 16.1862L34.8138 16.298L34.9255 16.4097L34.8682 16.6963L34.8138 16.9226L34.5272 17.2092L34.3582 17.6017L33.9656 17.7708L34.0774 17.9971L34.3009 18.1633L34.5272 17.9971L34.6934 17.8281L34.5817 17.659L34.6934 17.4355L35.1433 17.5473L35.3668 17.4355L35.5358 17.2665L35.4814 17.043L35.3668 16.9857L35.255 17.1404ZM34.3582 34.4756L34.2464 34.4212H34.1347L33.9656 34.6447L34.0229 34.9312L34.1347 34.8768L34.3009 34.7622V34.6504L34.3582 34.4756ZM34.0229 9.17192L34.2464 9.34097L34.4155 9.28653L34.4699 9.22923V9.11748L34.2464 9.17192H34.0229ZM34.0229 10.1834L34.1347 10.0143V9.84527L34.0229 10.0143V10.1834ZM34.1347 26.6218L34.3582 26.6791H34.5272L34.5817 26.4527L34.4699 26.341L34.3009 26.2292L34.1347 26.2865L34.0229 26.4527L34.1347 26.6218ZM34.1891 12.1461L34.1347 12.596L34.5272 12.1461L34.1347 11.7536L34.1891 12.1461ZM34.2464 24.8281L34.1347 25.1146L34.2464 25.341H34.3009L34.4155 25.2837V25.0602L34.2464 24.8281ZM34.3009 14.616L34.3582 14.5587V14.447L34.3009 14.3897H34.1891V14.6762L34.3009 14.616ZM34.3009 29.8195L34.1891 29.9312V29.9885L34.2464 30.0458L34.3582 29.9885L34.4155 29.9312V29.8195H34.3009ZM34.4699 32.1117L34.3582 32L34.2464 32.1117L34.1891 32.2808L34.2464 32.4499L34.4155 32.5043L34.5272 32.4499L34.5817 32.2808L34.4699 32.1117ZM34.3582 33.3467L34.5272 33.4585L34.6934 33.235L34.639 32.8424L34.5272 32.6734H34.3582L34.1891 32.8968L34.3009 33.1232L34.3582 33.3467ZM34.5272 15.2235V15.2808L34.8138 15.3352L34.8682 15.1117L34.7565 15L34.5874 15.0544H34.4212L34.2522 15.1691L34.3639 15.2235H34.5272ZM34.8625 28.3524L34.639 28.1834L34.5272 28.0172L34.4699 27.7307L34.2464 28.0659L34.639 28.4584H34.808L34.8625 28.3524ZM35.0315 19.937L34.8625 19.8252L34.6934 19.7679H34.4069L34.3496 19.9914L34.6361 20.3295H35.0831L35.2521 20.106L35.0315 19.937ZM34.639 29.5301V29.4756L34.5272 29.3639L34.3582 29.2493L34.4155 29.4756L34.5817 29.5874L34.639 29.5301ZM34.639 31.7765L34.5817 31.5501L34.4155 31.3266V31.6132L34.4699 31.7822L34.639 31.7765ZM34.808 36.7135L34.7507 36.6562H34.4642V36.7679L34.4097 36.8252L34.5215 36.937L34.6332 36.8797H34.745L34.8023 36.7679L34.808 36.7135ZM34.5215 10.9599L34.4642 11.0716V11.1834H34.6332V10.9599L34.5759 10.9026L34.5215 10.9599ZM35.1948 14.8309L35.0802 14.3267L34.6877 14.2693L34.5759 14.3267L34.5215 14.3811L34.6877 14.5501H34.914L35.0258 14.7192L35.1948 14.8309ZM34.8567 12.4183L34.6332 12.5301V12.6991L34.745 12.8109L34.9513 12.7564H35.063L35.1203 12.6991L35.063 12.4756L34.8567 12.4183ZM34.8567 25.043L34.745 24.9857L34.6332 25.043V25.212H34.8567L34.914 25.1547L34.8567 25.043ZM34.914 24.8739L35.3066 25.043H35.5244L35.5817 24.8195L35.4699 24.7049L35.3009 24.7622L34.9513 24.5903H34.7278L34.914 24.8739ZM35.5244 22.7851L35.2378 22.8969L34.9026 22.7851L34.8453 23.2321L35.0688 23.6819L35.1261 23.9054L35.0688 23.9627L35.2378 24.1318L35.2951 23.8453V23.6447L35.1834 23.4756V23.3095H35.3496L35.4069 23.4212L35.6934 23.3639L35.8052 23.1977L35.6934 22.9112L35.5244 22.7851ZM35.1318 27.6562L35.0745 27.5444L34.9628 27.4871V27.5444L34.9083 27.7135L35.0745 27.8252L35.1318 27.6562ZM35.3553 34.5587L35.1891 34.3897L34.9628 34.2779V34.4441L35.0201 34.5587L35.1318 34.6132L35.1891 34.6705H35.3009L35.3553 34.5587ZM35.0201 29.8997L35.0745 30.1261L35.1318 30.1805L35.1891 30.1261L35.2435 29.957L35.1891 29.7335L35.0201 29.8997ZM35.2435 17.7249H35.1891L35.0745 17.8367L35.1891 17.9513L35.2435 17.894L35.3009 17.7822L35.2435 17.7249ZM35.4699 25.9169H35.2378V26.0287L35.2951 26.1404H35.3496L35.4642 26.0287L35.4699 25.9169ZM36.0287 24.1232L35.8109 23.9312L35.5874 23.7622L35.5301 23.8195V23.9312L35.6991 24.1576L36.0287 24.1232ZM35.6361 36.9713L35.5817 37.0258V37.0831L35.5244 37.1375V37.2521H35.5817V37.1117L35.6361 37.0544V36.9713ZM36.5903 2.30086L36.702 2.3553H36.7593L36.8166 2.18625L36.702 1.96275L36.5903 2.13181V2.30086ZM37.2636 37.9828L36.9771 37.8711L36.8109 37.9828L36.7536 38.0945L36.8109 38.1519L37.0344 38.0945L37.2636 37.9828ZM38.2178 1.8682H38.3897L38.5014 1.81089V1.69914L38.3897 1.64184L38.2779 1.69914L38.2206 1.75645L38.2178 1.8682ZM39.2292 0.802293L39.2837 0.856735L39.3954 0.914041L39.4527 0.856735V0.802293L39.3954 0.744987L39.2837 0.690545H39.2292V0.802293ZM39.4527 1.92264L39.341 1.97994L39.2837 2.09169L39.341 2.149H39.3954L39.5072 2.09169L39.5645 2.03725V1.92264H39.4527ZM40.4069 1.3639L40.4613 1.53009L40.5731 1.58739L40.7421 1.53009L40.7994 1.3639L40.6819 1.29513H40.4556L40.4069 1.3639ZM40.6934 1.92264L40.6361 1.75645L40.5788 1.81089H40.5244V1.97994L40.6361 2.20344L40.6934 1.92264ZM40.8052 19.9341L40.9169 20.0458L40.9742 19.9885H41.0287L40.9742 19.8768L40.8596 19.8223H40.8052V19.9341ZM40.9169 1.64184L41.086 1.81089L41.3095 1.69914V1.53009H40.9685L40.9169 1.64184ZM41.49 2.09169L41.2636 1.92264H41.0974L41.2636 2.20917L41.4327 2.43553L41.49 2.09169ZM41.4327 1.75645L41.5444 1.8682L41.6017 1.75645L41.6562 1.69914L41.6017 1.64184H41.5415L41.4298 1.69914L41.4327 1.75645ZM41.6017 1.30659L41.6562 1.47565L41.8825 1.64184L42.1691 1.69914L42.2808 1.58739V1.30086L42.0573 1.18911H41.831L41.6017 1.30659ZM41.8883 19.2607L41.9427 19.3725L42 19.4298H42.1117V19.2034L42 19.0917L41.9427 19.149L41.8883 19.2607ZM42.4613 2.26074L42.404 2.03725L42.235 1.92264L42.0688 1.97994L42.0115 2.149L42.1232 2.37249L42.235 2.4298L42.4613 2.37249V2.26074ZM42.1748 0.802293H42.2865L42.3983 0.690545L42.3438 0.63324L42.1748 0.575934V0.802293ZM42.51 1.75645L42.6218 1.81089H42.7364L42.7908 1.75645L42.6791 1.64184L42.5673 1.58739L42.51 1.69914V1.75645ZM42.51 19.4842L42.5673 19.596H42.7364L42.7908 19.5415L42.7364 19.4298H42.5673L42.51 19.4842ZM43.2607 2.48424L43.0373 1.91117L42.9828 1.79943L42.8682 1.74499L42.7564 1.85674L42.8138 2.02579L42.702 2.13754L42.6447 2.30659L42.533 2.41834L42.6447 2.64183L42.8138 2.75358L43.0373 2.64183H43.2063L43.2607 2.48424ZM42.6447 1.13754L42.8682 1.58739L43.0373 1.53009L42.9828 1.41834L42.9255 1.1318L42.7564 0.962751H42.6447V1.13754ZM43.2178 1.30659L43.2722 1.41834L43.3868 1.47565L43.4986 1.41834V1.3639L43.4413 1.24928L43.3295 1.13754L43.2722 1.19484L43.2178 1.30659ZM43.553 1.13754H43.6648L43.7794 1.30659V1.53009H43.8338L43.7794 1.58739V1.69914L43.6648 1.81089L43.6103 1.92264H43.5473V1.8682H43.6046L43.659 1.75645L43.6046 1.58739L43.3181 1.81089L43.4298 2.09742H43.7163L43.8281 2.20917L44.2206 2.43553L44.7937 2.72206L44.851 2.60745L44.7937 2.4957L44.447 2.15473L44.2779 1.92837V1.76218L44.1089 1.53582L43.9971 1.20057L44.1662 1.08883V0.862467L43.9971 0.919773L43.7736 0.974215H43.6046L43.5473 1.08883L43.553 1.13754ZM43.9456 2.98854L43.8911 2.70201L43.7794 2.47564V2.3639H43.5473L43.4355 2.4212V2.53295L43.7221 2.81949L43.8911 3.04298V2.98567L43.9456 2.98854ZM43.4413 18.8682L43.6103 19.0917L43.8338 19.149L43.8911 19.0917L43.8338 18.9799L43.6648 18.8109L43.4413 18.8682ZM43.9456 19.6533L43.7221 19.7106L43.6103 19.8223L43.6648 19.9341H43.7221L43.8911 19.8223L43.9456 19.6533ZM44.0029 20.4957L44.2264 20.5501L44.3381 20.4384V20.2693L44.4527 19.8768V19.6533L44.1662 19.8223L43.9971 20.2149L44.0029 20.4957ZM44.5759 2.03725L45.0802 1.92264L45.192 1.47565V1.41834L45.1375 1.3639L45.0229 1.19484L44.7364 1.24928V1.75645L44.5759 2.03725ZM44.6304 19.2034L44.8567 19.3725L45.1433 19.2607L45.255 19.2034V19.0373L45.086 18.9226L44.9169 19.0373L44.6934 19.0917L44.6304 19.2034ZM44.7421 18.4756L44.9685 18.5874L45.1375 18.5301V18.3639H44.9112L44.7421 18.4756ZM45.2493 2.20344L45.0802 2.31805L44.9685 2.48424L45.0802 2.59599L45.1375 2.7106L45.3037 2.6533L45.361 2.48424L45.3037 2.37249L45.2493 2.20344ZM45.5358 19.8223H45.2493L45.192 19.8768V19.9341L45.361 20.1032L45.6476 20.1576H45.7593L46.0946 20.4441L46.5444 20.3897L46.6562 20.1633L46.49 19.9398V19.7163L46.6562 19.3238L46.49 18.9857L46.2636 19.3782L46.49 19.7163L46.0946 19.8825L45.7593 19.9943L45.5358 19.8223ZM45.5358 2.20344L45.5903 2.59599L45.8166 2.98854V2.76505L46.0401 2.6533L46.2092 2.4298L46.4327 2.37249L46.49 2.149L46.2636 2.09169L45.9771 2.149L45.7536 2.20344L45.5845 2.26074V2.20344H45.5358ZM45.5903 1.41834L45.6476 1.47565V1.53009L45.8711 1.47565L45.9828 1.24928H45.7593L45.5903 1.41834ZM46.0401 1.70487L45.9284 1.81662L46.0401 1.98568L46.2092 1.92837H46.2636L46.3209 1.98568H46.5444L46.7679 1.76218L46.7135 1.64756H46.5444L46.3754 1.76218H46.2092L46.0401 1.70487ZM46.3267 1.41834L46.4384 1.47565V1.53009H46.5501L46.6075 1.47565L46.4957 1.3639L46.4384 1.41834H46.3267ZM46.6132 1.08309L46.7249 1.19484L46.894 1.13754L46.9484 1.08309L46.894 1.02579H46.7794L46.6132 1.08309ZM47.3983 1.8682L47.1118 1.97994L46.8883 2.20344L46.8309 2.37249L46.7736 2.48424L46.9427 2.59599H47.1118L47.2808 2.76505L47.5043 2.82235H47.8968L48.0086 2.9341L48.1203 2.98854L48.1777 2.9341V2.82235L48.1203 2.76505H48.0086L47.8424 2.59599L47.6161 2.6533L47.3926 2.31805V1.97994L48.0086 2.09169L48.4585 2.54155L48.5702 2.09169L48.3467 1.69914L48.0086 1.64184L47.8424 1.53009L47.5559 1.13754L47.1605 0.914041L47.106 1.20057L47.1605 1.42407L47.3295 1.59312L47.3983 1.8682ZM46.894 20.4928L47.1175 20.659L47.2865 20.8281L47.4527 20.8854L47.6791 20.8281V20.659L47.6218 20.4355L47.2292 20.2665L46.894 20.4928ZM47.0057 19.4814L47.2923 19.8739L47.6275 19.9312L47.7966 20.043L48.0831 20.4355L48.4757 20.659L48.5301 20.4355L48.4757 20.149L48.3066 19.9799L48.2522 19.7564L48.5387 19.5874L48.765 19.3639L48.8195 19.1948L48.9341 19.0831L48.7077 18.9713H48.5387L48.3725 18.8023L48.1461 18.7479H47.7536L47.6418 18.6361L47.5301 18.5788L47.4183 18.6905L47.4728 18.8023H47.6418L47.8109 18.914H48.0344L48.2607 19.2522V19.5874L47.6418 19.4756L47.192 18.9713L47.0057 19.4814ZM47.9026 0.965619L48.0143 1.13467L48.3524 1.30373L48.745 1.08023L48.5186 0.965619L48.3524 0.799429L48.1261 0.687682L47.9599 0.799429L47.9026 0.965619ZM49.0458 20.4928L48.8797 20.4355H48.7049L48.6476 20.4928L48.7049 20.5473L48.8739 20.6046L49.0458 20.4928ZM49.0458 1.63897V1.8682L48.8797 2.26074L49.1032 2.59599L49.2722 2.20344L49.0458 1.8682L49.4384 1.69914L49.7765 1.58739L50 1.75645H50.2865L50.3438 1.69914V1.64184L50.1748 1.47565L49.8883 1.41834H49.7765L49.4384 1.1318L49.0458 1.18911L48.8797 1.41261L49.0458 1.63897ZM49.0458 19.5931L48.8797 19.7622V19.9312L49.0458 19.9857L49.2149 19.8739L49.3267 19.8195H49.384L49.5501 19.8739L49.7192 19.7622L49.6074 19.5931L49.384 19.6504H49.2779L49.0458 19.5931ZM49.2722 20.1662L49.1576 20.0544L49.1032 20.1117H49.0458V20.1662L49.1032 20.2235H49.1576L49.2722 20.1662ZM49.1576 19.4384L49.384 19.5501L49.6074 19.4384H49.8309L50.0573 19.3811L50.1118 19.4384L50.0573 18.9885L49.8309 18.596V18.8195L49.5444 18.9312L49.3782 19.1576L49.1519 19.212L49.1576 19.4384ZM50 20.1117L49.9456 20.0544L49.7765 20.1662L49.6074 20.3352H49.894L50.0057 20.1662L50 20.1117ZM50.3926 2.32665L50.2808 2.38109V2.49284L50.4499 2.60459L50.6161 2.49284L50.8424 2.4384V2.32665L50.6734 2.21203L50.3926 2.32665ZM50.2808 19.1003L50.3381 19.212L50.3926 19.3811L50.5616 19.2693L50.6734 19.1003L50.5616 18.9885L50.5043 18.8768L50.3381 18.9312L50.2808 19.1003ZM50.7851 3.11175L50.5616 2.99714L50.3926 3.05444V3.16619H50.6161L50.7851 3.11175ZM51.0716 19.6046L50.5673 19.7192L50.4556 20.1662V20.2235L50.6218 20.447L50.9083 20.3352V19.8854L51.0716 19.6046ZM50.7851 18.9885L50.8424 19.1576L50.9542 19.212L51.1777 19.4384L51.404 19.7249L51.3467 19.7794V19.8367L51.5702 20.1232L51.6275 20.4585L51.4585 20.5702V20.7794L51.6848 20.7221L51.851 20.6648H52.0201L52.0774 20.553V20.4928H51.9656L51.851 20.3238V20.1003L51.7966 20.043L51.851 19.9857V19.9312L51.9656 19.8195L52.0201 19.6504L52.0774 19.7077L52.0201 19.8739V20.043L52.3582 19.7564L52.1891 19.4699H52.0774L51.9656 19.5272L51.9083 19.4155L51.7966 19.3582L51.404 19.1347L50.9542 18.9083H50.8424L50.7851 18.9885ZM51.0716 1.93123L51.3582 1.76504L51.4699 1.3725V1.08596H51.2464L51.1891 1.1404V1.36676L51.0774 1.70201L51.0716 1.93123ZM51.5215 1.93123L51.745 1.87679L51.8567 1.70774L51.8023 1.65043H51.745L51.6332 1.76504L51.5215 1.93123ZM51.914 2.4384H51.6906L51.6332 2.49284V2.60459L51.8023 2.7192L52.0258 2.66189L51.914 2.4384ZM51.6906 18.596L51.8023 18.8825L51.8567 19.106L51.914 19.2178L52.0258 19.2751L52.1375 19.2178L52.1948 19.1633V19.0516L52.1375 18.937L51.9713 18.7708L51.8023 18.5444L51.745 18.6017L51.6906 18.596ZM52.4183 20.1662H52.1948L52.1375 20.2779L52.2493 20.3925L52.3066 20.5043L52.4183 20.3925V20.1662ZM52.4183 19.1003L52.4757 19.3868L52.6418 19.6734L52.6991 19.7851L52.8109 19.8424L52.8682 19.7307V19.616L52.9226 19.4499L53.0344 19.3381L53.149 19.1691L53.0344 19L52.8109 18.8309L52.6418 18.9427H52.4183V19.1003ZM53.0344 20.5043L52.9226 20.2178L52.8109 19.9914L52.6418 20.106L52.6991 20.1605V20.447L52.8682 20.6705L52.9799 20.616L53.0344 20.5043ZM52.6991 2.04584L52.8109 2.15759L52.9226 2.10029H52.9799L52.9226 1.98854H52.7565L52.6991 2.04584ZM53.2034 19.9427L53.149 19.8309H52.9799L52.9226 19.8854L53.0344 19.9971H53.149L53.2034 19.9427ZM53.2607 19.3696L53.3152 19.5931L53.4842 19.7077L53.6533 19.5931L53.7077 19.4269L53.596 19.2579L53.4298 19.1461L53.2607 19.2006V19.3696ZM53.5473 20.9398L53.49 20.8281H53.4355L53.3209 20.8854V20.9398L53.3782 20.9971L53.49 21.0544L53.5473 20.9971V20.9398ZM53.3782 2.36963L53.49 2.42693L53.5473 2.36963V2.20057L53.49 2.08883L53.3782 2.14613V2.36963ZM53.8281 19.9312L53.5415 19.8739L53.3725 20.043L53.4298 20.3295L53.6533 20.4413H53.8625L54.0888 20.3295L54.0315 20.106L53.8281 19.9312ZM54.0516 19.9312H54.1089L54.1633 19.9857L54.2751 19.9312V19.8195H54.2206L54.1633 19.7622L54.1089 19.8195L54.0516 19.9312ZM54.2206 19.4814L54.4441 19.7077H54.5559L54.6132 19.6504L54.5014 19.3639L54.2751 19.1404L54.2206 19.4814ZM54.4441 1.69627L54.5559 1.75358L54.6676 1.63897L54.5559 1.52722H54.5014L54.4441 1.58453V1.69627ZM54.6676 19.8195L54.4441 19.8739V20.1003H54.7822V19.9857L54.6676 19.8195ZM54.9542 20.2665L55.0115 20.3238H55.235L55.2923 20.2665L55.235 20.1003L55.1232 20.043L55.0115 20.1003L54.9542 20.2665ZM55.0659 19.6504L55.1232 19.8195H55.1805L55.235 19.7622V19.5931L55.1232 19.4269L55.0659 19.6504ZM56.1891 19.6504L56.3009 19.7077L56.4126 19.6504L56.4699 19.5387L56.4126 19.4269H56.3582L56.2464 19.4814L56.1891 19.5931V19.6504ZM56.4756 20.7736L56.3639 20.7163L56.3066 20.7736V20.8281L56.3639 20.9398H56.4413L56.4756 20.7736ZM57.2607 19.9312L57.3725 19.9857L57.4842 19.9312L57.5415 19.8739V19.7622H57.3725L57.2607 19.8195V19.9312Z" fill="#000"/>
<path d="M68.9599 11.7994L69.0172 11.1261V5.62751L69.1289 4.7851V4.05444L68.9599 3.26934V2.48424L69.0172 1.69914L69.2407 0.914041L69.745 0.340975L70.4757 0.171921H71.3181L72.2149 0.286533L72.831 0.790834L73.0602 1.58166L72.9484 3.26361L72.8338 4.04871L72.9484 5.50716L73.0029 6.34957L73.0602 7.13467L72.8911 8.70774V10.3352L72.9484 11.1203V11.9054L72.8911 12.7479V13.4756L72.9484 14.149V16.5616L73.0029 17.3467L72.9484 18.2464L72.8911 18.9742V22.1261L72.9484 22.7994L73.0029 23.5272V24.3123L72.8911 25.0974V26.5559L72.8338 27.2865L72.7794 28.0716L72.7221 28.8023V30.4298L72.8911 31.0458L73.2292 31.1031L73.7335 30.765L74.3066 30.149L74.6992 29.5301L75.1461 28.8567L75.7192 28.298L76.2235 27.6791L76.6733 27.063L77.1777 26.49L77.6275 25.9169L79.1433 24.0659L80.0401 22.7192L80.5444 22.1031L81.1175 21.596L81.5645 21.0372L82.0716 20.3639L82.5759 19.745L83.0258 19.0716L83.5301 18.3983L84.0344 17.7822L84.4842 17.1633L84.9885 16.5473L85.4928 15.9742L86.0659 15.3582L86.9628 14.1232L87.3553 13.5072L87.8625 12.8883L88.4785 12.2722L88.9284 11.5989L89.4327 11.0258L89.937 10.4097L90.51 9.79083L90.9599 9.17478L91.4642 8.55587L91.9112 7.93983L92.3066 7.32378L93.3152 6.08882L93.9312 5.51576L94.8309 4.2808L95.8395 3.16046L96.6246 1.9255L97.1289 1.30946L97.7478 0.802293L98.4212 0.355302L99.149 0.0687695L99.8224 0.237823L100.33 0.461318L100.616 0.908309L100.731 2.36963V3.09742L100.673 3.88252L100.785 5.45272V7.19484L100.673 8.03438L100.562 9.49284L100.673 10.2235L100.731 10.9513V11.7937L100.673 12.6934L100.785 14.2636L100.842 14.8797L100.785 15.6103L100.731 16.5645L100.673 17.404L100.616 18.0774L100.673 18.808L100.731 19.6504L100.673 20.49V22.1175L100.616 22.8481L100.673 23.6332V24.4183L100.616 25.2034V25.937L100.673 26.6676L100.731 27.5072V28.2951L100.673 29.1347L100.562 29.9198L100.616 30.7077L100.731 31.5473L100.785 32.3324L100.673 33.7908L100.731 34.6332V35.4183L100.616 37.1031V37.8882L100.504 38.616L99.9456 39.1891L99.1576 39.4126L98.3725 39.3009L97.5874 39.1347L96.9714 38.6275L96.745 37.788V35.4298L96.6906 34.5903V31.4928L96.8023 29.808L96.745 29.0229V27.341L96.6906 26.6103L96.6332 25.8252V25.0401L96.6906 24.3095L96.8023 23.467V22.5158L96.745 21.7307L96.6906 21V20.2693L96.745 19.4298V18.6447L96.8023 17.8567L96.745 17.0172L96.8023 16.2321L96.8596 15.5014V14.8281L96.8023 14.0974V13.2006L96.745 12.361L96.8023 11.5731L96.8596 10.8453L96.8023 10.1146V9.31805L96.745 8.70201L96.4097 8.58739L95.9054 9.03725L95.3983 9.7106L94.894 10.2837L94.3897 10.788L93.9398 11.361L93.4355 12.0344L92.8625 12.7564L92.4126 13.3152L91.9714 13.9312L90.8481 15.1089L90.3438 15.7822L90.0573 16.1748L89.553 16.9054L89.0459 17.5215L88.5989 18.2006L88.0258 18.8166L87.5215 19.3897L87.0716 19.9627L86.5673 20.5788L85.9943 21.1519L85.49 21.7708L84.9857 22.4413L84.5358 23.0143L84.1433 23.6332L83.6934 24.2493L82.5702 25.4842L82.1777 26.1576L81.7307 26.7736L81.2264 27.3925L80.7966 27.8453L80.2235 28.4183L79.6504 29.1461L79.2034 29.765L78.7908 30.3123L78.2178 30.8854L77.7708 31.5043L77.2636 32.063L76.6906 32.7364L76.212 33.3438L75.8195 33.9169L75.3524 34.5329L74.9026 35.0372L73.7851 36.2521L73.2264 36.8252L72.7737 37.4957L72.2693 38.169L71.6963 38.616L71.2464 38.9541L70.6304 39.1232H69.788L69.2149 38.616L68.9914 37.8882L69.0459 37.1031V36.3181L68.9914 35.4756L69.0459 34.6332L69.1032 33.9054L69.0459 33.1748L68.9914 32.3897V29.8653L69.0459 29.0802L69.1032 28.2378V25.1519L69.0459 24.3095V23.5817L69.1032 22.9083L69.0459 22.1232L69.1032 21.2235L69.1605 20.4384L69.0459 19.765L68.9914 19.0373L69.0459 18.2521L68.9341 16.5673V15.7822L68.9914 15.0516L68.8797 13.3696V12.5272L68.9599 11.7994ZM99.7077 12.7564L99.8195 12.4699L99.596 12.3009L99.3696 12.3582H99.2034L99.0888 12.3009H98.9771L98.7536 12.1891L98.5845 12.0201L98.6418 11.7335L98.5301 11.3983L98.4155 10.4986L98.2493 10.3324L98.1375 10.4986L98.0229 10.6103L98.0802 10.7249L97.9112 11.0602L98.1977 11.3467V11.5702L98.255 11.8567V11.914L98.1977 11.9685L97.9112 12.0831L97.6246 12.3066L97.9627 12.4183L98.3553 12.3639L98.5788 12.3066L98.6905 12.5301L98.5788 12.6418L98.7479 12.6991H98.8596L99.0287 12.8109L98.9714 12.9799H98.9169L98.6905 13.0917V13.3152L98.5244 13.3725L98.4097 13.4842L98.2436 13.5415V13.8281L98.0745 14.1146L98.1318 14.1719L98.0745 14.341L98.1318 14.4527L98.2436 14.6218L98.3553 14.8453L98.1862 15.0688V15.2951L97.8997 15.7421L98.2378 16.2493L98.3496 15.7421V15.2779L98.6848 15.2206L98.9112 14.9971L98.7966 14.8281H98.6304L98.5186 14.659L98.5731 14.2665L98.7966 13.9312L99.192 13.7622L99.5272 13.9312L99.6963 14.1547L99.8653 14.3238L99.9198 14.2665L99.6963 13.8195L99.8653 13.5931L100.089 13.5387L99.7507 13.2006L99.5272 12.914H99.4699L99.7077 12.7564ZM100.043 15.3926L99.7077 14.9971H99.6504L99.596 15.0516L99.4814 14.765L99.1461 14.7106L98.9771 15.1605L99.0888 15.2722L99.3754 15.384L99.6017 15.553L99.4871 15.6075H99.3209L99.2092 15.6648L98.8138 15.4957L98.6476 15.7822L98.4785 16.2321L98.7651 16.5673L98.8195 16.6246L98.9341 16.9112L99.1576 16.9656L99.6619 16.7966L99.8883 16.4613L99.8309 16.3496L99.7736 16.0115V15.957H99.9943L100.106 15.7307L100.043 15.3926ZM99.6504 17.3009L99.2034 17.2436L99.0888 17.6934L98.9226 17.7479V17.9742L98.808 18.1977V18.4842L98.6963 18.596L98.5845 18.5387L98.4728 18.4269H98.3037L98.2493 18.596L98.361 18.8195L98.5301 18.9885L98.7536 18.9312H99.0401L99.0946 19.1576L98.9284 19.3266L99.0401 19.4928L99.1519 19.6046L99.0401 19.7736L99.0946 19.9971H99.2636L99.3209 19.7736L99.2636 19.7192L99.4871 19.6046L99.6562 19.4384L99.3209 19.1519L99.2092 18.7593L98.9828 18.4728V17.9713L99.0946 17.8567L99.3209 17.745L99.7679 17.6332L100.054 17.5215L99.6504 17.3009ZM99.937 24.5387L99.7679 24.3123H99.6562L99.5444 24.3696L99.6017 24.6562L99.8883 24.8252L99.937 24.5387ZM99.4871 22.5731L99.3754 22.7421L99.2636 23.0774L99.4327 23.3639L99.6017 23.3095L99.6562 23.0229L99.8252 22.7994L99.6562 22.6304L99.4871 22.5731ZM99.5444 6.97708L99.3754 6.86533L99.2636 6.80802H99.1347L99.0774 6.91977L99.1347 6.97708L99.192 7.14327L99.0774 7.31232H99.0229V7.36963L98.9656 7.42407L98.7966 7.48137L98.8539 7.31232V7.25788L98.7966 7.14327L98.6304 7.08883L98.4613 7.14327L98.404 7.25788L98.4613 7.42407V7.59885L98.5186 7.65616L98.6304 7.7106V7.88539L98.7966 8.33525L99.0229 8.72779L99.0774 8.83954L99.192 8.78224L99.2464 8.67049V8.50143L99.192 8.2149L99.1347 7.88539H99.192L99.2464 7.82808V7.49284L99.3582 7.20631H99.5845L99.7077 7.02579L99.5444 6.97708ZM99.5444 11.4642L99.3754 11.4097L99.2092 11.2951V11.4642L99.0946 11.6905L99.0401 11.914L99.0946 12.0831H99.4212L99.6447 11.8567L99.702 11.6332L99.5444 11.4642ZM99.6017 29.9799L99.7135 29.7564V29.5301L99.6562 29.4756L99.5444 29.5301L99.4327 29.7564L99.6017 29.9799ZM99.3754 10.7822V10.9513L99.4871 11.0057H99.6017L99.6562 10.9513L99.6017 10.7822L99.4871 10.6705H99.4212L99.3754 10.7822ZM99.4327 20.6562L99.3754 20.7135V20.937L99.4327 20.9943H99.6017L99.6562 20.8825L99.6017 20.7135L99.4327 20.6562ZM99.6017 20.0974H99.3754L99.2092 20.0401L99.1519 20.1519L99.2092 20.2092L99.3754 20.2636L99.6017 20.0974ZM99.3754 26.8281L99.6017 26.7163L99.4871 26.5473H99.3209L99.2092 26.6046L99.1519 26.7163L99.3754 26.8281ZM98.8711 10.8395L99.0401 10.6705L99.1519 10.5014L99.2636 10.2779H99.4212L99.533 10.1662L99.4212 9.99713L99.2521 9.88539H99.0831L98.9714 10.0544L98.8023 9.99713L98.6361 10.0544L98.5244 9.93983L98.467 10.0544V10.1777H98.6361L98.8023 10.4642L98.8711 10.8395ZM99.4441 9.54728V9.43553L99.3868 9.32378L99.2751 9.26934H99.1347L99.0774 9.38109L99.1347 9.54728L99.3037 9.60458L99.4441 9.54728ZM99.3324 21.8367L99.4441 21.7249L99.3868 21.6103H99.2751L99.1633 21.6676V21.7249L99.2206 21.7794L99.3324 21.8367ZM98.8252 11.2865L98.9943 11.3438L99.2206 11.2321L99.2751 11.063L99.1633 10.8395L98.8768 11.063L98.8252 11.2865ZM98.9398 22.6218L99.2751 22.8453L99.1633 22.5587L99.106 22.2722V21.8968L98.9398 21.7307L98.8825 21.7851V21.8968L98.7135 22.1834L99.0516 22.2951L98.9398 22.6218ZM99.2264 23.1261L99.1117 23.0143L98.9456 22.9026L98.7765 22.957L98.7192 23.0688L98.7765 23.2378L98.9456 23.2951L99.1117 23.2378L99.2264 23.1261ZM99.1117 6.18338L99.0573 5.78796L98.7708 6.12607L98.9398 6.41261L98.9943 6.52436H99.106L99.1117 6.18338ZM99.0573 23.4069H98.8883L98.8309 23.5759V23.6447L98.8883 23.702L99 23.5903L99.0573 23.4069ZM98.9456 5.39542H98.8309L98.7765 5.45272V5.62178H98.8883L98.9456 5.56447L99 5.45272L98.9456 5.39542ZM98.1605 8.48138L98.2722 8.59312L98.4957 8.65043V8.76218L98.4384 8.87392L98.6074 9.21204L98.7192 9.60458L98.7765 9.71633H98.8883L99 9.54728L98.8883 9.32378L98.6648 8.98854V8.70201L98.6074 8.47564L98.4384 8.30945L98.1605 8.48138ZM99 14.4986L98.9456 14.3295H98.7765V14.4986L98.8883 14.6103H98.9456L99 14.4986ZM99 20.9484V20.7794L98.8883 20.6648V20.8338L99 20.9484ZM98.9456 4.61605L98.8309 4.5616L98.7192 4.61605V4.7851L98.8309 4.84241L98.9456 4.72779V4.61605ZM98.1032 6.90831H98.553L98.7765 6.96561L98.9456 6.85387L98.8883 6.79656L98.7765 6.73926L98.49 6.57307L98.3782 6.8596L98.0401 6.69055L97.7536 7.02579L98.1032 6.90831ZM98.8309 21.3839L98.9456 21.2722L98.8309 21.1605L98.6648 21.1032H98.4957L98.4384 21.2149L98.4957 21.3839L98.6648 21.4413L98.8309 21.3839ZM98.9456 24.1891L98.7192 24.3009L98.553 24.4699L98.6648 24.5817L98.8883 24.4699L98.9456 24.1891ZM98.3266 18.2435H98.384V18.298L98.553 18.0745L98.7192 17.9054L98.8309 17.8481L98.7765 17.7364L98.7192 17.6819L98.6074 17.6246H98.4957L98.4384 17.7364L98.384 18.0229L98.3266 18.2435ZM97.5415 17.2894L97.8281 17.4011H98.2206L98.6705 17.2894L98.7822 17.1748L98.6132 17.063L98.5587 16.9513L98.4441 17.0086L98.2206 16.9513V16.7278L98.2779 16.616V16.5014L98.1662 16.447L98.1089 16.5587L97.9398 16.616H97.702L97.6447 16.8395L97.5329 17.0086L97.5415 17.2894ZM98.4957 20.1547L98.7822 20.3238L98.6705 20.0372L98.6132 19.8138H98.5014L98.4441 19.9255L98.4957 20.1547ZM98.384 5.39828L98.553 5.68482L98.6074 5.79656H98.7192V5.46132L98.6648 5.06877L98.384 5.39828ZM97.5415 19.7622L97.8797 19.8195L98.1662 19.6504L98.2779 19.5387L98.4441 19.5931L98.5587 19.6504L98.7249 19.5931V19.4814L98.6705 19.3696L98.5587 19.3152H98.3897L98.2206 19.4269L98.0516 19.5931L97.765 19.5387L97.5387 19.5931L97.5415 19.7622ZM98.1146 20.8854L98.2264 21.0544H98.4499L98.6189 20.9398L98.7307 20.8854V20.7163L98.5645 20.4298L98.2779 20.2607L98.2206 20.149H98.1089L98.0516 20.3181L98.1662 20.4298V20.7163L98.1146 20.8854ZM98.6189 28.1776H98.6762L98.7307 28.0659L98.6762 27.9542H98.5072V28.0115L98.3954 28.0659L98.6189 28.1776ZM98.6762 9.83954V9.72779L98.5645 9.67335L98.1719 9.55874L97.9456 10.0086L98.1146 9.95129L98.2837 9.83954L98.4499 9.89685L98.6762 9.83954ZM98.3381 22.0716L98.5072 22.2951H98.6189L98.6762 22.2407L98.5645 22.0143L98.3381 21.7908V22.0716ZM98.2837 6.19484V6.41834L98.4499 6.24928L98.5072 6.08023H98.3954L98.2837 6.19484ZM97.4957 18.9857H97.6103L97.7794 19.043H97.9456L98.0029 19.2665L98.1719 19.3238L98.3381 19.2665L98.5072 19.1547L98.4499 18.9857L98.2837 18.9284L98.2264 18.8166V18.6504L98.1146 18.3123L97.8911 18.5989L97.6648 18.8224L97.4957 18.7679L97.4413 18.8797L97.4957 18.9857ZM98.3381 7.98854H98.2264L97.9398 8.10029L97.7736 8.21203L97.8281 8.38109L97.9398 8.32665L98.1662 8.26934L98.3897 8.10029L98.3381 7.98854ZM98.1719 12.8138V12.8711H98.3381L98.3954 12.7593L98.3381 12.702H98.2264L98.1719 12.8138ZM98.1719 4.39828H98.0573V4.56734L98.1719 4.67908L98.2264 4.51003L98.1719 4.39828ZM98.2264 5.85673L98.0573 5.79943H97.8911L97.7794 5.91404L97.8338 6.02579L97.9456 6.08023L98.1146 6.13753L98.2264 6.02579V5.85673ZM98.0029 7.76504L98.1719 7.59599L98.2264 7.37249L98.0573 7.53868L98.0029 7.76504ZM98.0029 23.8682L98.2264 23.5301H98.0573L98.0029 23.6418V23.8682ZM97.4957 10.9742L97.3295 11.1977L97.4413 11.6476L97.8338 11.8166L98.0573 11.6476L97.9456 11.4241L97.8338 11.255L97.7221 11.1433L97.4957 10.9742ZM98.0688 13.2178V12.9943L97.9026 12.8825L97.6161 12.9943L97.5014 13.2178L97.6705 13.6676L98.0086 14.1146V13.6103L98.0688 13.2178ZM97.4957 16.3696H97.7822V16.3123L98.0057 16.3696L98.0602 16.2579L97.9484 16.0888L97.7822 16.2006L97.7249 16.1433H97.6676L97.4986 16.0315L97.3324 16.0888L97.2751 16.1433L97.4957 16.3696ZM97.8338 9.13181L97.9456 9.18624H98.0029V9.0745L97.9456 8.96275L97.8338 8.90544H97.7794L97.7221 9.02006L97.8338 9.13181ZM97.7794 21.5874H98.0029V21.3524L97.9456 21.2378L97.8911 21.1834L97.702 21.3524L97.7794 21.5874ZM97.9456 14.6848L97.8911 14.6304L97.8338 14.5186L97.7794 14.6304L97.6648 14.7421L97.7221 14.8539H97.9456V14.6848ZM97.7794 15.639V15.192L97.553 15.1347L97.384 15.3037V15.3352L97.4957 15.7851L97.9456 15.8968L97.7794 15.639ZM97.4928 17.8825L97.5501 18.0516L97.6619 18.1089L97.7765 17.9971L97.8309 17.8825L97.7765 17.7163L97.6075 17.659L97.4928 17.8825ZM94.9685 7.5043L95.1375 7.39255L95.1948 7.2808L95.1375 7.16619L94.9685 7.11175L94.8567 7.2235L94.8023 7.33524V7.5043H94.9685ZM94.914 6.4384L94.8567 6.38109L94.745 6.60745L94.8567 6.66189V6.55014L94.914 6.49284V6.4384ZM94.745 7.95129L94.8567 7.7851V7.72779H94.8023L94.6332 7.7851L94.5215 8.00859L94.745 7.95129ZM94.0716 7.66476L94.3582 7.7765L94.2636 7.59885L94.2092 7.48711L94.3209 7.26361L94.4327 6.97708L94.1461 7.08883L94.0344 7.31232L94.0716 7.66476ZM93.7851 7.7765L93.6161 7.7192L93.5043 7.7765L93.4499 7.88825V8L93.5616 8.11175L93.7307 8.05731L93.8424 7.94269L93.7851 7.7765ZM93.1691 8.61605L93.2235 8.90258V9.01719L93.3381 9.07163L93.3925 9.01719L93.4499 8.84814L93.5043 8.79083L93.5616 8.67908L93.7307 8.56734V8.39828L93.6161 8.22923H93.2235L93.1691 8.34384V8.61605ZM93.6734 8.95415V8.89685L93.6161 8.7851H93.5616L93.5043 8.84241V9.01146H93.6161L93.6734 8.95415ZM93.4499 9.45845L93.6161 9.40401V9.31805L93.5616 9.26361H93.3925L93.2808 9.37536L93.4499 9.45845ZM93 8.61605L92.8309 8.7851V8.95415L92.8883 9.01146H93L93.1118 8.84241L93 8.61605ZM92.4957 10.5244L92.6648 10.4126L92.8309 10.3582H93.0573L93.1118 10.1891L92.9427 10.1318L92.7765 10.1891H92.49L92.4957 10.5244ZM92.7192 10.9742L92.7765 11.0287L92.9427 10.9742V10.8052H92.7765L92.7192 10.9169V10.9742ZM92.6648 9.34671V9.45845L92.7765 9.5702L92.8309 9.45845L92.7765 9.34671H92.6648ZM92.6075 9.851V9.60458H92.4957L92.3266 9.71633L92.1576 9.77364V9.93983L92.2722 9.99713H92.384L92.6075 9.851ZM87.6447 17.298L87.533 17.1834L87.7565 16.8969L88.043 16.8395H88.1547L88.3238 16.7822L88.1547 16.5587L87.9312 16.447L87.6447 16.3352L87.6991 16.1089L87.5874 15.8854L87.8138 15.7163L88.3725 15.6046L88.5416 15.8309L88.8797 15.8854L89.2149 15.7736L89.3266 15.7163L89.2722 15.5501L89.106 15.3352L89.4413 15.2235L89.7278 15.1691L89.7851 14.8825L90.0086 14.7679L90.0659 14.5444L89.8969 14.4327L89.6734 14.49L89.616 14.3209L89.6734 14.1519L89.7851 14.0401L89.9542 13.9284L90.1204 13.702L89.9542 13.4785H90.0086L90.1204 13.255L90.2894 13.3095H90.4585L90.682 13.255L90.7393 13.086L90.4011 12.5129V12.3467L90.2894 12.1203L90.3467 12.0086L90.4011 11.8395L90.5129 11.6734H90.682L90.851 11.7851L91.0201 11.8395L91.0745 11.9513L91.1318 12.1203L91.3009 12.4585L91.6934 12.1719L91.8596 12.0029L92.086 11.9456L92.4212 12.0602L92.3095 11.8338H92.086L92.255 11.6676L92.3668 11.4413L92.4212 11.2722L92.3095 11.1605L92.1977 11.106L92.086 11.1605L92.0287 11.2722L92.1404 11.3295L92.0287 11.553L91.8052 11.6103L91.6361 11.7221L91.5244 11.8911L91.467 11.8338H91.3983L91.2865 11.6676L91.1719 11.6103L91.2292 11.4413V11.2178L91.0602 11.3295L91.0057 11.4986H90.894L90.7794 11.553L90.4441 11.4413L90.2206 11.7278L90.106 11.8968L90.0516 12.0659H89.8281L89.7708 12.2894L89.6017 12.3467L89.4327 12.4585L89.2665 12.745L89.3782 13.0315L89.2665 13.2579L89.2092 13.4814V13.6504L89.1519 13.8739V14.043L89.3209 14.0974L89.3782 14.1547V14.4413L89.1519 14.6648L89.2092 14.8338L89.0974 15.0029L88.9857 15.0573V15.1146L88.8739 14.8911H88.5874L88.4183 14.9456L88.3066 15.0573L88.0802 14.9456V14.8911L87.914 15.0573H87.9685L88.0802 15.1719L88.1948 15.2264L88.1375 15.3954L88.0258 15.5645L87.7393 15.5072L87.6275 15.3381L87.4585 15.5072L87.5158 15.8453L87.4585 15.8997L87.1232 15.8453L86.8969 16.0115L86.7307 16.0688H86.5272L86.3582 16.2923L86.3037 16.5788L86.3582 16.6905V16.8596L86.4155 17.0287H86.5845L86.6963 16.9713L86.639 16.8023V16.5788L86.7536 16.4097L86.808 16.4671H86.8653L86.9198 16.6905L87.0888 16.8023L87.2006 16.8596L87.3696 16.9713V17.3095H87.3123L87.0888 17.702L87.3123 17.533L87.6447 17.298ZM92.3009 8.87966L92.1891 8.82521L92.0774 8.87966V9.04871L92.1891 9.10602L92.3009 8.99427V8.87966ZM92.0143 12.3037L92.1261 12.361L92.1834 12.3037V12.1834L92.1261 12.1261H92.0143V12.3037ZM91.7278 10.5645L91.8395 10.8997L91.8969 10.957H92.0086L92.0659 10.6189L92.0086 10.2837L91.7278 10.5645ZM91.9542 9.27507L91.7278 9.49857V9.55301H91.7851L91.9542 9.49857V9.27507ZM91.3353 11.3496L91.447 11.4613L91.6161 11.5186L91.7851 11.4613L91.8395 11.2923L91.7278 11.2378L91.5587 11.1261L91.3926 11.1805L91.3353 11.3496ZM91.6218 10.1719L91.3983 10.0602L91.4527 10.2837L91.6791 10.5072L91.6218 10.1719ZM91.6218 13.0372L91.4527 12.9255L91.1175 12.8138L90.8309 12.9255L91 13.0372L91.3353 13.1519L91.447 13.2636H91.5587L91.6218 13.0372ZM91.3353 10.4011H91.2235V10.5702H91.1662L91 10.7393V10.9628L91.2235 10.851L91.447 10.9054L91.5587 10.7937L91.5043 10.5702L91.3353 10.4011ZM90.9427 13.9914H91.5158L91.2923 13.7679L91.0057 13.8252L90.9484 13.8797L90.9427 13.9914ZM91.2808 12.5903V12.533L91.1662 12.4785L91.1117 12.4212L91 12.533L91.0544 12.5903L91.1662 12.6447L91.2808 12.5903ZM90.9943 12.2521L90.937 12.1404L90.8825 12.086L90.6562 12.1977L90.6017 12.4842L90.8252 12.4269L90.9943 12.2521ZM90.2092 14.384L90.3754 14.6103L90.5444 14.6648L90.7679 14.4986V14.2722L90.6562 14.1032L90.5444 14.2178L90.4327 14.1032L90.4871 13.937L90.6562 13.8797L90.7679 13.8252L90.8252 13.7679L90.937 13.5444H90.7135V13.5989L90.5444 13.7679L90.1519 13.937L89.9828 14.2722L90.2092 14.384ZM90.7135 10.4011L90.6017 10.2321L90.4871 10.3467L90.3754 10.5129L90.4327 10.6819L90.6562 10.7393L90.7135 10.5129V10.4011ZM88.9169 12.9255L88.7507 13.0372L88.6361 12.9828L88.467 12.9255L88.5817 13.1519H88.8195L88.9885 13.0946L89.043 12.9255H88.9169ZM88.3438 14.3295V14.553L88.4556 14.6648L88.7421 14.6103L88.8539 14.384L88.7966 13.9914L88.5731 13.4871L88.4585 13.937L88.3438 14.3295ZM88.6304 16.3352V16.1089L88.2951 15.8224L87.9026 15.8768L87.7908 16.1003L88.0143 16.2693L88.1834 16.3266L88.6304 16.3352ZM88.2378 13.5301L88.0688 13.5845V13.6418L88.1261 13.7536L87.957 13.8653L87.7335 14.0344H88.0688L88.2378 13.7478V13.5301ZM87.2292 17.9628L87.2837 18.0172L87.3954 17.9054L87.341 17.8481H87.2292V17.9628ZM85.9542 19.149L86.0688 18.9799H86.2923L86.3467 18.8109L86.5731 18.6447L86.6848 18.4183L86.7966 18.3639L86.9083 18.4756V18.6447H87.0774L87.1891 18.5301V18.3639L87.1347 18.1375L86.9083 18.0831L86.6848 17.9713L86.7421 17.6848H86.9656L86.9083 17.4585L86.8539 17.1719H86.5673L86.3983 17.2865L86.5673 17.6218L86.4556 17.9599L86.51 18.3524L86.3983 18.5759L86.2865 18.745H86.1175V18.7994H85.7249L85.5559 18.6877H85.2206L85.5072 19.0258L85.8424 19.2493L85.9542 19.149ZM87.1347 15.5587L87.0774 15.4441L87.0201 15.3897L86.9083 15.4441V15.5587L87.0201 15.6705H87.1347V15.5587ZM86.1805 18.1375L86.1232 18.0258L85.8997 17.8567L85.6132 17.6905L85.7249 17.9771L85.8367 18.2006L85.7822 18.3123L85.894 18.3696L86.063 18.3123L86.1748 18.2579L86.1805 18.1375ZM86.0115 17.2407L85.9542 17.298L85.8997 17.4097L85.9542 17.5215H86.0115L86.0688 17.4642L86.1232 17.3524L86.0115 17.2407ZM85.1146 19.2607V19.4298L85.2808 19.5415L85.3954 19.6533L85.5072 19.7106L85.5616 19.4842L85.3381 19.3725L85.2264 19.2607H85.1146ZM84.9456 20.1576L85.2321 20.3267L85.5673 20.0401H85.4012L85.2321 20.0974L85.063 19.9828H84.894L84.8395 20.0401L84.9456 20.1576ZM85.3954 18.3639L85.3381 18.2521H85.1691L85.1146 18.3639L85.2264 18.4756H85.3381L85.3954 18.4183V18.3639ZM84.8223 19.0917V19.2607L84.8768 19.4842L84.9914 19.2607L85.1576 19.149L85.2149 19.0373L85.0458 18.9226L84.8223 19.0917ZM84.8223 19.7106L84.7651 19.596L84.6533 19.7106L84.596 19.8223H84.7651L84.8223 19.765V19.7106ZM84.7651 20.8309L84.4298 20.2579L84.2607 20.0344L84.149 19.9771H84.0373V20.0917L84.0917 20.2034L84.4298 20.596L84.3725 21.0458L84.7651 20.8309ZM84.6533 18.5874L84.596 18.5301H84.5415L84.3725 18.7564V18.9799L84.086 19.149L83.7507 19.3725L83.8625 19.4298H83.9484L84.0057 19.7163H84.235L84.5731 19.49L84.5158 19.043H84.5731V18.9857L84.6848 18.8166L84.6533 18.5874ZM83.9799 21.5616L84.149 21.616L84.3181 21.5043V21.4499L84.2034 21.3926L84.0917 21.2235H83.9799L83.8682 21.3926L83.9799 21.5616ZM83.6619 20.7192L83.8281 20.7765L83.9971 20.7192V20.6074L83.8854 20.4957L83.7737 20.4384L83.6619 20.4957L83.6046 20.6074L83.6619 20.7192ZM83.6619 19.8223V19.9341H83.7163L83.8281 19.8768L83.8854 19.8223L83.8281 19.765H83.7163L83.6619 19.8223ZM83.3754 19.9885H83.2063V20.0458L83.149 20.1576H83.3754L83.5989 20.1032L83.3754 19.9885ZM83.5415 21.5616V21.0659L83.3754 21.4011L83.0888 21.6877L83.5415 21.5616ZM82.9685 20.7765L83.0229 20.9427L83.192 21.0573L83.361 20.9427L83.4155 20.7765L83.361 20.5501L83.4155 20.3267L83.0802 20.4384L82.9685 20.7765ZM82.9112 22.4584H82.9685L83.0802 22.3467V22.235H82.9685L82.9112 22.2894V22.4584ZM82.6246 21.616L82.7937 21.5043V21.3926H82.6246L82.4556 21.5043L82.6246 21.616ZM82.0086 22.1232V22.235L81.894 22.3467L81.8396 22.4584L81.894 22.5702H82.0086L82.063 22.4584L82.0086 22.3467L82.063 22.235L82.1203 22.1777L82.0086 22.1232ZM82.1203 22.851V22.6819L82.0086 22.7966L81.9513 22.9627L82.1203 22.851ZM81.808 23.6447H81.8653L81.9198 23.5329L81.7536 23.3639H81.5272L81.808 23.6447ZM72.384 17.4728L72.4384 17.3066V17.1375L72.384 17.0802L72.3267 17.1375L72.2722 17.3066L72.384 17.4728ZM72.1605 14.8367L72.2149 14.7794L72.1605 14.6132L72.0458 14.5559V14.3324L71.9914 14.106V13.8825L71.7651 13.7708V13.5473L71.7106 13.3782L71.5416 13.49H71.3725L71.149 13.7135L71.0373 14H70.7507L70.5817 13.8338L70.3582 13.7765L70.0716 13.8338L70.2951 14.2264L70.6877 14.5129L70.8567 14.6791V15.0172L71.3066 15.2407L71.7536 15.1289L71.3066 14.6791L71.192 14.063H71.5301L71.8166 14.2321V14.4556L71.9857 14.7908L72.0401 14.8481L72.1605 14.8367ZM71.9341 10.235L71.7651 10.0688L71.6533 10.0115H71.5416L71.4842 10.1232L71.4298 10.1805L71.4842 10.3496H71.5989L71.8854 10.404L72.1089 10.5158V10.4642L72.1662 10.4069L71.9341 10.235ZM71.7651 12.2006L71.3181 12.0888V12.1433H71.3725V12.2006L71.3181 12.3696L71.2608 12.5931L71.2034 12.8797L71.3181 13.1031L71.5416 13.0458L71.5989 12.8223L71.8224 12.6533L71.9341 12.4298L72.0458 12.3754H72.1032L71.7651 12.2006ZM71.9914 18.5387L71.8797 18.3725H71.7651L71.7106 18.4269L71.7651 18.6533L71.9914 18.765V18.5387ZM71.4842 17.4183L71.5989 17.5845H71.7106L71.7651 17.361L71.8797 17.192L71.7651 17.0258H71.6533L71.5416 17.1375L71.4842 17.4183ZM71.7106 9.16905L71.5416 9.05731L71.3725 9.16905L71.2608 9.28367L71.0917 9.33811H70.9255L70.8682 9.44986V9.50716L71.0373 9.56161L71.2608 9.73066L71.5989 9.78797H71.7651V9.56161L71.8224 9.39542L71.7106 9.16905ZM70.2522 10.6275L70.5874 10.6848L70.8739 10.8539H70.9857L71.2722 11.0774L71.6103 11.4155H71.7221L71.8338 11.3582L71.5473 10.7851L71.3238 10.3925L71.2665 10.3381L71.1547 10.2808L71.2092 10.1117V10L70.9226 9.88825L70.6361 10.1748L70.8023 10.2292L70.9714 10.1748H71.0287L70.8596 10.2292L70.7479 10.3983L70.6906 10.3438L70.6361 10.3983H70.3496L70.1805 10.2865V10.1777L70.1232 10.1203L70.0115 10.2321V10.4011L69.957 10.5702L69.8997 10.7937L70.1232 10.7393L70.2522 10.6275ZM71.8224 11.7507L71.7651 11.639L71.6533 11.5817L71.4298 11.639L71.3725 11.808L71.4842 11.9198L71.5989 11.9742L71.7651 11.8625L71.8224 11.7507ZM71.8224 15.7908L71.4842 15.6218L71.0917 15.7335L71.4298 15.9599L71.8224 15.7908ZM71.4842 20.3352L71.5989 20.3925L71.7106 20.3352L71.7651 20.2779L71.7106 20.1662H71.4842L71.4298 20.2779L71.4842 20.3352ZM71.2608 7.7106L70.9742 7.59885L70.9198 7.65616V7.76791L71.1433 7.9914L71.4785 7.9341L71.2608 7.7106ZM71.4298 8.60745L71.2034 8.55301L71.0373 8.60745L70.9799 8.72206L71.0917 8.94556L71.3181 9.00286L71.4298 8.94556L71.4842 8.7765L71.4298 8.60745ZM71.2608 19.6619L71.3725 19.7736L71.4298 19.7192V19.5501L71.3181 19.4928L71.2608 19.5501V19.6619ZM71.3181 3.04298L71.2608 2.98567H71.0917L70.8682 3.10029L71.1547 3.15473L71.3238 3.10029L71.3181 3.04298ZM71.0315 6.97135H70.8625L70.8052 7.02579V7.08309L70.9742 7.13754L71.1977 7.08309L71.0315 6.97135ZM70.3582 18.2493H70.6447L71.0373 18.0802L71.2034 17.7937H70.9169L70.5788 17.9628L70.4097 17.9054L70.298 18.0172L70.3582 18.2493ZM71.1977 18.3037L71.0315 18.361L70.9198 18.5272V18.5845L70.9742 18.6418L71.1433 18.5272L71.1977 18.3037ZM71.1433 5.84814V5.79083L71.086 5.73639L70.9742 5.79083L70.9198 5.95989V6.01719H70.9742L71.086 5.95989L71.1433 5.84814ZM70.4814 11.7421H70.5358L70.5931 11.7994L71.043 11.6304L71.1547 11.1805L70.8682 11.3496H70.3639L70.3066 11.5731L70.4814 11.7421ZM70.8739 12.9771L70.7622 13.1461L70.8166 13.3696H70.9857L71.1547 13.1461L71.0974 12.9198V12.6332L70.9857 12.5215L70.8166 12.6332L70.9312 12.8596V12.914L70.8739 12.9771ZM70.8739 21.3926L70.9857 21.5043L71.0974 21.3926L71.043 21.2808H70.9312L70.8739 21.3381V21.3926ZM71.043 15.7249H70.9857L70.8739 15.7822L70.6504 15.6132L70.4241 15.7249L70.3696 16.1748L70.6562 16.51V16.6246L70.7106 16.9112L70.8797 17.0774H70.937L70.9914 17.0229V16.7364L70.8224 16.51L71.043 15.7249ZM70.7049 7.98854L70.6504 8.10029H70.7049L70.7622 8.15759L70.8166 8.10029L70.9312 8.04585L70.8166 7.93123L70.7049 7.98854ZM70.7622 4.67908L70.6504 4.73352L70.5931 4.84814L70.6504 4.95988H70.7679L70.8797 4.73352L70.8224 4.67908H70.7622ZM70.8739 9.16619L70.8166 9.05444L70.7622 9L70.6504 9.11175L70.7049 9.16619L70.7622 9.2808L70.8166 9.33524L70.8739 9.2808V9.16619ZM70.6504 7.42693L70.5358 7.48424V7.81949H70.7679L70.8224 7.59599L70.6504 7.42693ZM70.1948 8.59886L70.3066 8.82521H70.6447L70.7564 8.65616L70.6991 8.36963L70.5301 8.14613H70.3066L70.1948 8.36963V8.59886ZM69.9714 9.32951L70.1948 9.55301H70.4814L70.5931 9.61032L70.7049 9.44126L70.4183 9.32951L70.1948 9.21776H70.0258L69.9714 9.32951ZM70.5874 12.4814L70.6991 12.255H70.5301L70.3639 12.3696L70.4183 12.6562L70.5874 12.4814ZM70.6991 13.0974L70.5874 12.9857L70.5301 13.0401V13.1547H70.5874L70.6447 13.2092V13.1547L70.6991 13.0974ZM70.3639 6.9255L70.3066 6.98281V7.20631L70.3639 7.31805L70.5301 7.26361L70.5874 7.09456L70.5301 6.98281L70.3639 6.9255ZM70.5301 10.0774V9.96275L70.4757 9.851L70.3639 9.79656L70.2522 9.851L70.1948 9.90831L70.3066 10.0201L70.4183 10.0774H70.5301ZM69.9714 15.0143L70.1375 15.1834L70.3066 15.4069L70.4814 15.0487L70.3123 14.6562L70.1433 14.6017L69.9771 14.6562L69.8653 14.8252L69.9714 15.0143ZM70.3066 13.3868L70.2522 13.2178L70.1375 13.3868L70.1948 13.5559L70.2522 13.6103L70.3066 13.5559V13.3868ZM69.8596 5.8682V5.81089L69.745 5.75645H69.6218V5.81089L69.6791 5.9255L69.7335 5.97995L69.8596 5.8682ZM69.6218 8.87966L69.7335 8.93696L69.7908 8.87966V8.71347H69.5673L69.6218 8.87966Z" fill="#000"/>
<path d="M145.991 38.616L145.599 39.1891L144.868 39.3582H144.026L143.241 39.3037L142.668 39.1347L142.095 38.7421L141.587 38.0115L141.364 37.3381L141.029 36.7221L140.636 35.9914L140.298 35.149L140.011 34.4212L139.725 33.7479L139.438 33.1748L139.215 32.5014L138.822 31.7736L138.415 31.0946L138.023 30.702L137.407 30.4756L136.622 30.3639H135.891L135.106 30.3066H132.751L131.963 30.2521H130.45L128.765 30.3066L127.925 30.2521L127.195 30.1948H126.464L125.625 30.3066L124.109 30.1948H123.203L122.418 30.2521L120.903 30.1948L120.229 30.2521H119.507L118.722 30.1404H117.937L117.04 30.1948L116.198 30.3066L115.625 30.533L115.232 30.9799L114.908 31.6676L114.516 32.5673L114.347 33.0143L113.954 33.8023L113.616 34.4183L113.223 35.0917L112.937 35.8195L112.771 36.5501L112.433 37.2808L112.097 37.9513L111.524 38.5243L111.075 38.9169L110.501 39.255L109.716 39.4785H108.905L108.117 39.192L107.67 38.6189L107.84 37.8911L108.287 37.2178L108.86 35.8711L109.195 35.1404L109.59 34.3553L109.925 33.5702L110.149 32.8969L110.436 32.2808L111.221 30.8223L111.447 30.149L111.734 29.4756L112.069 28.745L112.355 28.0172L112.748 27.2865L113.034 26.5014L113.321 25.8281L114.106 24.3696L114.441 23.639L114.728 22.9656L115.12 22.1261L115.347 21.6762L116.02 20.106L116.244 19.3754L117.255 17.1862L117.648 16.5129L117.934 15.8424L118.218 15.0487L118.441 14.6017L118.779 13.7593L119.003 12.8625L120.069 10.7307L120.461 10.0573L120.799 9.32665L121.086 8.59886L121.309 7.9255L121.596 7.25215L121.931 6.63324L122.324 5.84814L122.662 5.06304L122.948 4.33238L123.235 3.65903L123.521 2.93124L123.857 2.25788L124.249 1.52722L124.756 0.799429L125.149 0.349571L125.653 0.126075L126.438 0.0687695L128.009 0.180517L128.628 0.46705L129.075 0.916905L129.524 1.48997L129.748 2.16332L130.034 2.94843L130.765 4.40688L131.1 5.19198L131.438 6.03438L132.086 7.19771L132.421 7.92837L132.645 8.65616L132.931 9.38682L133.269 10.0602L133.605 10.8453L133.943 11.5731L134.516 12.9198L134.851 13.6504L135.189 14.3238L135.805 15.8395L136.14 16.4556L136.59 17.1834L136.877 17.9714L137.163 18.6447L137.556 19.3725L137.891 20.0458L138.464 21.5043L138.751 22.1777L139.536 23.6361L139.874 24.3668L140.16 25.1519L140.384 25.8252L140.607 26.4413L140.946 27.1146L141.393 27.8453L141.731 28.6304L142.066 29.361L142.404 30.1461L142.688 30.808L142.974 31.4241L143.312 32.0401L143.648 32.8825L143.874 33.6132L144.097 34.2865L144.384 34.9599L144.719 35.745L145.169 36.5301L145.504 37.2607L145.842 37.9312L145.991 38.616ZM116.086 28.6304L116.029 28.4069L115.917 28.5731V28.7421L115.974 28.7994H116.04L116.086 28.6304ZM116.928 20.6074H116.871L116.817 20.6619L116.702 20.7192L116.817 20.7765L116.928 20.7192V20.6074ZM117.264 19.596H117.375L117.487 19.4842L117.433 19.3725L117.264 19.3181H117.152L117.04 19.4298L117.152 19.5415L117.264 19.596ZM117.602 19.8825L117.375 20.0516L117.487 20.4441L117.656 20.1576L117.768 19.8711L117.713 19.8166L117.602 19.8825ZM117.375 20.8367L117.433 20.9484H117.544L117.602 20.8367V20.7794L117.544 20.7221H117.433L117.375 20.7794V20.8367ZM136 25.8854L135.946 25.2149L135.777 24.596L134.768 22.4069L134.43 21.6218L134.092 20.8883L133.705 20.2063L133.418 19.4756L133.08 18.7479L132.794 18.0745L132.458 17.4011L132.172 16.6705L131.885 15.8854L131.513 15.1662L131.226 14.3782L130.777 13.0315L130.384 12.3037L129.934 11.6304L129.384 10.1777L128.991 9.5043L128.705 8.66189L128.479 7.87679L128.143 7.14613L127.805 6.47278L127.519 5.80229L127.069 5.22923H126.564L126.115 5.84527L125.828 6.63037L125.232 7.88539L124.946 8.72779L124.659 9.45559L124.209 10.1289L123.874 10.8023L123.587 11.4756L122.576 13.6648L122.241 14.4499L122.017 15.235L121.731 15.9656L121.504 16.6934L121.198 17.341L120.805 18.0143L120.467 18.7994L120.02 20.2579L119.628 20.9312L118.954 22.3897L118.619 23.1891L118.395 23.8625L118.046 24.5903L117.653 25.3209L117.43 26.0487L117.822 26.553L118.55 26.6676H119.393L120.235 26.7221H122.527L123.255 26.6676H124.063L124.851 26.7794L126.59 26.6676L127.095 26.7221H127.991L131.143 26.8338L132.771 26.7221L133.499 26.6103H134.341L135.069 26.6676L135.742 26.4986L136 25.8854ZM117.484 18.5358L117.599 18.8739H117.934V19.1605L118.221 19.1032H118.39L118.278 18.9341L118.109 18.8797L118.052 18.8224H117.997L117.711 18.7106L117.484 18.5358ZM117.771 28.1862L117.659 28.1318H117.547L117.49 28.2435V28.3009L117.547 28.3553H117.659L117.759 28.2292L117.771 28.1862ZM117.659 19.49L117.716 19.5473H117.759V19.3782L117.648 19.2092L117.593 19.3782L117.659 19.49ZM117.759 20.2063L117.817 20.2607L117.871 20.2063V20.0373L117.817 19.9799L117.759 20.0373V20.2063ZM117.928 17.4556L118.04 17.6819L118.209 17.8481L118.321 17.9054L118.378 17.8481L118.332 17.6275L118.109 17.4585L118.052 17.404L117.928 17.4556ZM117.928 18.1863L117.986 18.3553L118.046 18.2006L117.991 17.9771L117.928 18.1863ZM118.321 19.3639L118.209 19.4212L117.986 19.5874L118.097 19.9799L118.266 19.6934L118.378 19.4069L118.321 19.3639ZM118.994 18.3553V18.298L119.106 18.0745L119.275 17.8481L119.332 17.7364V17.6275L119.275 17.5702H119.163L118.877 17.8567L118.539 18.1433L118.484 18.2006V18.2579H118.373L118.261 18.3123L118.203 18.4814L118.092 18.7049L118.261 18.8166L118.484 18.7049V18.6504L118.539 18.5358L118.653 18.5931L118.596 18.6504L118.653 18.7049V18.7622L118.708 18.9284L118.596 19.0974H118.539V19.2092L118.653 19.2665L118.765 19.2092L118.934 19.2665H119.1L119.046 19.043L118.877 18.9857L118.934 18.6991L119.046 18.4126L118.994 18.3553ZM118.209 17.0086H118.378L118.433 16.8969L118.49 16.8395L118.433 16.7822H118.332L118.221 16.8395L118.209 17.0086ZM118.713 17.4011H118.49L118.321 17.4556L118.544 17.6819L118.771 17.6246L118.883 17.4011L118.994 17.2321L119.163 17.1203L119.275 17.0086L119.444 16.8969V16.7278L119.332 16.6705L119.221 16.7278L118.994 16.9513L118.771 17.2378L118.713 17.3496V17.4011ZM118.619 27.3954L118.676 27.341V27.2837L118.562 27.1719L118.507 27.2264V27.2837L118.619 27.3954ZM118.788 28.4069H118.676L118.562 28.4613V28.6304H118.619L118.731 28.5731L118.788 28.4613V28.4069ZM118.731 14.8854L118.788 15.1719L119.011 15.1146L119.123 15.0573L119.292 14.9456L119.461 14.7765L119.35 14.6103H118.957L118.731 14.8854ZM118.731 16.1175L118.788 16.5673L119.123 16.6246H119.238L119.292 16.5673L119.123 16.3983H118.957L118.9 16.2321L118.731 16.1175ZM119.404 14.0974L119.573 14.384L119.742 14.6103V14.7221L119.573 14.8911L119.516 15.1146L119.181 15.2264V15.5645L119.069 15.6762L119.123 15.788L119.181 15.957L119.35 15.8997L119.797 15.1719L120.023 15.0029L120.077 14.6648H120.304L120.527 14.6103L120.582 14.6648H120.751L120.862 14.7221L121.032 14.8338L121.255 14.7765L121.312 14.553L121.201 14.3295L121.536 14.1605L121.874 14.0487L121.762 13.8797L121.705 13.7106L122.043 13.3754V13.318H121.986L121.817 13.4298L121.593 13.5444L121.255 13.4871L121.032 13.2006L120.974 12.8653L121.032 12.5272L121.143 12.4155L121.312 12.4728L121.481 12.4155L121.37 12.1289L121.143 11.9599L121.312 11.5673L121.424 11.1203L120.92 11.4069L121.032 11.8539L120.92 12.0802L120.974 12.3668L120.808 12.4785L120.639 12.533L120.527 12.6447V12.8138H120.47L120.527 13.1519L120.415 13.318L120.358 13.3754L120.527 13.4298V13.5989L120.639 13.7106L120.582 13.8797L120.696 14.0487H120.751V14.2178L120.582 14.2722L120.47 14.2178H120.304L120.358 14.2722V14.3295L120.189 14.4413L120.023 14.384L119.736 14.1605L119.404 14.0974ZM119.854 16.7364H120.023L120.189 16.6246L120.135 16.4556L119.966 16.3983V16.1117L119.908 15.9456V15.7765L119.685 16.063L119.398 16.2321L119.287 16.1748L119.232 16.2865L119.287 16.3983L119.398 16.3438L119.51 16.4556H119.679V16.6246L119.854 16.7364ZM119.797 16.9599H119.63L119.516 17.0716V17.1834L119.573 17.2407H119.685L119.854 17.0716L119.797 16.9599ZM119.63 13.5387L119.797 13.7622L119.966 13.7049L120.023 13.5387L120.189 13.2006L120.358 12.808L119.908 13.0315L119.622 13.318L119.63 13.5387ZM119.966 27.8453L119.908 27.788H119.685L119.63 27.8453L119.685 28.0143L119.797 28.0688L119.908 28.0143L119.966 27.8453ZM119.854 28.4183L119.797 28.2493H119.742L119.685 28.3066V28.4728L119.797 28.6418L119.854 28.4183ZM120.639 15.5244L120.862 15.467L120.92 15.3009L120.808 15.0143L120.522 14.9026L120.41 14.957V15.1834L120.352 15.4069L120.298 15.5759L120.129 15.4069H120.017L119.96 15.6304L120.072 15.9169L120.241 15.7479L120.298 15.5817L120.464 15.5244H120.639ZM120.023 13.8969V14.0086L120.135 14.0659L120.189 14.0086V13.8969H120.023ZM120.246 28.2607L120.47 28.2034V28.0372H120.135V28.149L120.246 28.2607ZM120.47 15.9169H120.338L120.226 16.0287V16.1404H120.45L120.507 16.0287V15.9742L120.47 15.9169ZM120.625 28.5731L120.401 28.3496H120.289L120.232 28.4069L120.401 28.6934L120.625 28.8596V28.5731ZM120.289 11.5731L120.344 11.7994H120.567L120.625 11.7421V11.6877L120.794 11.4613L120.96 11.2923L120.567 11.2378L120.344 11.5244L120.289 11.5731ZM120.456 12.0802H120.401L120.344 12.1347V12.2464L120.401 12.361L120.456 12.3037H120.513L120.567 12.1347L120.456 12.0802ZM120.513 10.8997L120.682 11.0115L120.848 10.957L120.905 11.0115H120.96L121.075 11.1261L121.241 11.0688L121.186 10.8997H121.017V10.8453L120.96 10.788L120.794 10.7335L120.567 10.788L120.513 10.8453V10.8997ZM120.799 28.1805L120.688 28.0688L120.573 28.1261V28.2292L120.688 28.341L120.742 28.2292L120.799 28.1805ZM121.023 28.1261L121.246 28.1805L121.415 28.0688L121.361 27.7822L121.192 27.6705H120.966L120.742 27.7822L120.799 27.9513L121.023 28.1261ZM121.08 10.5645L121.135 10.6189H121.192L121.304 10.6762L121.415 10.8997H121.473L121.527 10.788V10.6762L121.639 10.5072H121.808L121.92 10.6189L121.977 10.5645H122.146V10.3954L121.808 10.1089L121.473 9.99713L121.186 9.93983L121.075 10.3897L121.08 10.5645ZM121.246 12.6963L121.135 12.7536L121.08 12.9198H121.246L121.361 12.6963H121.246ZM121.585 28.6877L121.527 28.4613L121.361 28.4069L121.192 28.4613L121.135 28.6304L121.246 28.7994L121.361 28.9112L121.527 28.8539L121.585 28.6877ZM121.298 27.2837H121.41L121.467 27.2264H121.521L121.41 27.1146H121.298L121.241 27.1719L121.298 27.2837ZM121.355 9.72206H121.521L121.633 9.61032V9.49857L121.579 9.38682H121.484L121.372 9.49857L121.355 9.72206ZM122.533 11.9112V11.8539L122.819 11.5673L122.762 11.1748L122.427 10.8883L122.201 10.8338L122.034 11H121.977V11.0573L121.585 11.2264L121.527 11.6189L121.585 11.9054L121.92 11.9599L122.146 12.0745L122.201 12.1862L121.977 12.2407H121.585V12.298L121.527 12.7479L121.585 12.6905L121.871 12.8023L122.04 12.5788L122.095 12.6332V12.6905L122.544 12.5215L122.713 12.235V12.0115L122.533 11.9112ZM121.748 28.0688H121.633L121.579 28.1805L121.633 28.2378L121.748 28.2951H121.802L121.86 28.2378V28.1261L121.748 28.0688ZM122.364 28.9656L122.307 28.6791L122.14 28.3926L122.083 28.2808L121.971 28.2235L121.914 28.3352V28.5158L121.86 28.6275L121.748 28.7393L121.633 28.9083L121.748 29.0774L121.971 29.1891L122.14 29.1318H122.307L122.364 28.9656ZM121.691 8.65616L121.748 8.76791H121.86L121.971 9.05444L122.029 9.39255L122.14 9.2235L122.252 9.11175L122.307 9L122.421 8.88539L122.587 8.9427L122.702 8.83095L122.587 8.66189L122.476 8.55015H122.307L122.195 8.66189L122.029 8.60745L121.914 8.66189L121.802 8.55015L121.691 8.65616ZM122.083 27.8997V27.6132L121.914 27.4441L121.802 27.4986V27.6132L121.86 27.8367L121.971 28.0602L122.14 28.0057L122.083 27.8997ZM122.083 8.04011L122.252 8.2063L122.476 8.32092L122.587 8.48711L122.645 8.65616L122.814 8.71347H122.926L123.037 8.60172V8.48711L122.926 8.43267H122.639V8.26361L122.415 8.04011L122.129 7.98281H122.072L122.083 8.04011ZM122.195 10.1146H122.364L122.421 10.0029V9.89112L122.307 9.66762L122.252 9.49857H122.195L122.14 9.72206V10.0602L122.195 10.1146ZM122.645 9.94556L122.756 9.77937L122.868 9.55301L123.155 9.38682L123.378 9.10029L123.716 9.04298V8.81948L123.547 8.59599L123.261 8.76218L123.095 8.81948L123.206 9.04298L123.037 9.21204L122.814 9.10029L122.645 8.98854L122.476 9.04298L122.307 9.15473V9.38109L122.421 9.43553L122.533 9.32378L122.645 9.38109L122.702 9.49284L122.587 9.71633V9.93983L122.533 10.1089L122.645 10.2779L122.587 10.447V10.6705L122.926 10.7822H123.318L123.149 10.4957L122.98 10.4413L122.868 10.2722L122.702 10.1032V10.0487L122.645 9.94556ZM122.476 27.957L122.587 27.8997V27.8453L122.533 27.7335L122.421 27.6218L122.364 27.6762L122.307 27.788L122.364 27.8997L122.476 27.957ZM123.88 28.9112L123.768 28.8539L123.542 28.6304L123.318 28.3438V28.2894L123.373 28.2321L123.149 28.0086L123.095 27.6705L123.206 27.5587L123.261 27.3352L123.037 27.3897L122.868 27.447H122.702L122.645 27.5587V27.616H122.756L122.868 27.7822V28.0086H122.926L122.868 28.063V28.1203L122.756 28.2321L122.702 28.063L122.415 28.2894L122.527 28.5759H122.639L122.751 28.5215L122.92 28.6905L123.312 28.914L123.705 29.0831L123.817 29.1375L123.874 29.0258L123.88 28.9112ZM123.037 29.4155L122.926 29.192L122.868 28.9656L122.814 28.8539L122.702 28.7994L122.645 28.8539L122.533 28.9112V29.0229L122.645 29.0802L122.814 29.3037L122.926 29.4728H122.98L123.037 29.4155ZM122.702 28.3496L122.756 28.2378L122.702 28.4069L122.645 28.3496H122.702ZM122.756 7.81375L122.814 7.87106L122.926 7.81375L123.212 7.75931L123.436 7.64756L123.547 7.47851L123.436 7.42121L123.378 7.19771L123.155 7.1404L122.986 7.19771V7.36676L122.931 7.47851L122.874 7.64756L122.762 7.70201L122.756 7.81375ZM122.868 6.74785L122.926 6.91691H123.037L123.095 6.80516L123.149 6.6361L122.98 6.58166L122.868 6.74785ZM123.155 8.15186L123.378 7.98281H123.092L122.923 8.15186L122.977 8.26361L123.034 8.32092L123.155 8.15186ZM123.441 7.19771L123.553 7.30946H123.722L123.891 7.19771L123.779 7.08596L123.553 6.97422L123.441 7.08596V7.19771ZM123.553 6.58166L123.84 6.52436L124.009 6.3553V6.30086L123.897 6.24356L123.671 6.3553L123.553 6.58166ZM123.722 7.70201L123.779 7.64756V7.53295H123.722L123.61 7.64756V7.70201H123.722ZM123.779 8.37536L124.003 8.43267L123.891 8.26361L123.722 8.2063L123.61 8.26361V8.32092L123.779 8.37536ZM124.115 28.3496L124.226 27.957V27.8997L124.172 27.8453L124.057 27.6762L123.834 27.7335V27.957L123.779 28.2435L123.665 28.467L124.115 28.3496ZM123.946 4.89685L124.003 5.0659H124.115V4.95416L124.057 4.7851L123.946 4.89685ZM124.057 6.41261V6.69914L124.003 6.81089L124.057 6.8682L124.226 6.81089L124.284 6.64184L124.395 6.53009L124.507 6.24356L124.734 6.0745L124.395 6.13181L124.338 6.46705L124.057 6.41261ZM124.172 7.64756H124.115L124.003 7.87106L124.057 7.92837H124.172L124.284 7.87106V7.75931L124.172 7.64756ZM124.395 28.9112L124.284 28.6877L124.115 28.7994L124.057 28.9656L124.115 29.0802L124.172 29.1347L124.338 29.0802L124.395 28.9112ZM124.284 7.08596L124.395 7.1404L124.453 7.08596V6.97422L124.395 6.91691H124.284L124.226 6.97422V7.02579L124.284 7.08596ZM124.395 5.79656L124.507 5.90831H124.676L124.845 5.79656L124.734 5.68195L124.507 5.5702L124.395 5.68195V5.79656ZM125.461 28.6304L125.238 28.5186L124.788 28.6304L124.619 28.6877H124.564V28.6304H124.507L124.619 29.0802L124.788 29.4155L124.845 29.3037V29.192L125.069 29.0802L125.238 28.9112L125.461 28.8539V28.6304ZM124.619 5.45845L124.788 5.5702V5.40115L124.734 5.23496H124.676L124.619 5.2894V5.45845ZM124.676 28.0143L124.9 27.957L125.011 27.788L124.788 27.7335L124.619 27.8997V27.957L124.676 28.0143ZM125.742 28.2378V28.1261H125.519L125.404 28.2378H125.238L125.069 28.1805L124.957 28.2951L125.011 28.4613L125.238 28.4069H125.292L125.519 28.4613L125.742 28.2378ZM125.404 28.0143H125.519L125.573 27.957L125.519 27.8997H125.35L125.404 28.0143ZM125.742 27.6762H125.911V27.5645L125.742 27.5072L125.573 27.5645L125.742 27.6762ZM127.481 28.5731L127.258 28.1805L126.971 28.1261L126.745 28.0143L126.458 27.6762L126.123 27.3897L126.066 27.6762L126.123 27.8997L126.292 28.0688L126.347 28.2951L126.06 28.4613L125.837 28.6304V28.8023L125.725 28.9685L125.894 29.0831H126.117L126.229 29.2493H126.845L126.903 29.4183H127.072L127.126 29.3639V29.3066L127.072 29.1948H126.96L126.734 29.0831H126.567L126.341 28.7966V28.4584L126.96 28.5702L127.352 29.0201L127.481 28.5731ZM127.65 27.6218L127.424 27.4527L127.258 27.2837L127.089 27.2264L126.92 27.2837L126.862 27.4527L126.977 27.6762L127.312 27.788L127.65 27.6218ZM128.934 28.2292H129.158L129.215 28.1719V28.1175L129.046 27.9484H128.822L128.765 27.8911L128.711 27.9484L128.361 27.6218L127.968 27.7335L127.857 27.8997L127.968 28.1862V28.3553L127.799 28.6934L128.026 29.0287L128.195 28.6934L127.968 28.3553L128.361 28.1862L128.699 28.0745L128.934 28.2292ZM129.719 28.8023L129.55 28.6905L129.327 28.745L129.158 28.8567L129.215 28.9685L129.327 29.0831L129.496 28.9685L129.719 28.914V28.8023ZM129.665 29.5301L129.438 29.4183L129.327 29.4756L129.272 29.5874H129.507L129.665 29.5301ZM130.338 27.6246L130.112 27.5673L130.057 27.6791V27.8481L129.943 28.1834V28.4097L130.169 28.2407L130.338 27.8481V27.6246ZM130.625 28.3524L130.679 28.2407V28.1289H130.625L130.456 28.2407L130.398 28.4097L130.625 28.3524ZM130.848 29.1375L130.736 28.914L130.567 28.8567L130.456 28.9685L130.679 29.1948L130.848 29.1375ZM130.791 9.61318H131.077L131.189 9.55587L131.246 9.44413L131.189 9.38968L131.023 9.44413L130.791 9.61318ZM131.017 10.7908L131.129 10.6218V10.51L131.017 10.4556L130.903 10.6218V10.7364L131.017 10.9599H131.072V10.8481L131.017 10.7908ZM131.129 10.1175V10.2865L131.241 10.4556V10.2865L131.129 10.1175ZM131.295 11.6905L131.352 11.8567L131.576 11.914V11.8023L131.464 11.6905H131.295ZM131.745 28.4642H131.576L131.522 28.5215L131.633 28.6332L131.745 28.5759V28.4642ZM131.576 12.5874V12.9226L131.862 13.149L131.92 12.9226L132.032 12.6991V12.5301L131.862 12.3639L131.696 12.4183L131.576 12.5874ZM132.026 13.4269L131.802 13.3152L131.576 13.2607V13.4269L131.802 13.4842L132.026 13.4269ZM131.914 11.0143L131.969 11.1289H132.083V10.9599L132.026 10.9026H131.969L131.914 10.9599V11.0143ZM131.914 11.745L132.138 12.0831L132.249 12.4756L132.361 11.9026L131.914 11.745ZM131.969 13.7077L132.083 13.8224H132.195V13.765L132.138 13.6533L132.083 13.596H132.026L131.969 13.7077ZM132.642 14.7736V14.7192L132.756 14.3267L132.53 13.9885L132.307 13.9341L132.195 14.1576L132.083 14.2149H132.026L132.249 14.5014L132.536 14.788L132.481 15.0143L132.536 15.3009H132.705L132.762 15.0745L132.705 14.851L132.642 14.7736ZM132.418 12.8109H132.249L132.138 12.9226V13.043L132.249 13.1576L132.418 13.1003L132.53 13.043L132.587 12.8768L132.418 12.8109ZM132.361 28.6332L132.249 28.5759L132.195 28.6332V28.8567L132.307 28.914L132.361 28.8567V28.6332ZM133.034 12.6418L132.98 13.149L132.587 13.4842L132.476 13.5415V13.6533L132.53 13.7077L132.642 13.6533L132.928 13.5415L133.378 12.9685L133.034 12.6418ZM132.642 12.2493L132.699 12.4183H132.868L132.98 12.3066H133.092L133.149 12.1948L133.034 12.0258L132.748 12.0831L132.642 12.2493ZM133.092 14.2149L133.149 14.1576V13.9885H132.98V14.1003L133.092 14.2149ZM133.034 14.7736L133.149 15L133.372 14.9427L133.315 14.7736L133.203 14.6619L133.149 14.5501V14.4384L133.034 14.6074V14.7736ZM133.092 15.6734L133.149 15.7851L133.372 15.6734V15.6218L133.315 15.51H133.203L133.092 15.5673V15.6734ZM133.43 28.1289L133.315 28.0172L133.261 28.0716H133.203L133.261 28.1834L133.315 28.2407H133.372L133.43 28.1289ZM133.261 13.8224V13.8768L133.484 13.9341L133.653 13.8768L133.822 13.9885H133.989L133.702 13.596L133.261 13.8224ZM133.547 14.6619L133.834 14.6074V14.3811L133.722 14.3267L133.607 14.4384L133.384 14.4957L133.327 14.6619L133.441 14.7192L133.607 14.6619H133.547ZM134.052 14.8309L133.659 15L133.321 15.2865L133.607 15.341H133.805L133.971 15.3983L134.198 15.4527H134.252L134.364 15.51L134.479 15.9599L134.309 16.3524V16.6877L134.023 17.0258L134.192 17.192L134.479 17.2493L134.645 16.9627L134.702 16.7937L134.533 16.682V16.3954L134.759 16.341H134.983L135.152 16.1719L135.206 15.9484L135.095 15.7794L134.926 15.8367L134.871 15.9484L134.759 16.0029L134.645 15.9484L134.59 15.6619L134.421 15.4355V15.2693L134.198 15.212L134.092 15.0487L134.052 14.8309ZM133.994 16.1777L134.109 16.1203V16.0086L133.994 15.8968L133.883 15.8424H133.771V15.9542L133.436 16.4011L133.722 16.3467L133.994 16.1777ZM133.771 16.682H133.659L133.602 16.7937V16.9083L133.659 16.9627L133.771 16.9083L133.828 16.851V16.7393L133.771 16.682ZM136.183 23.192L136.352 23.2464L136.576 23.9198L136.968 23.9771L137.08 24.0315L137.138 24.0888L137.195 24.2579L137.307 24.4241L137.361 24.2006V24.0315L137.53 23.9771L137.642 23.8653H137.699L137.811 23.808L137.865 24.0315L137.98 24.2006L138.203 24.3123L138.261 24.5387L138.146 24.5931V24.7049L138.261 24.8195L138.373 24.7622L138.539 24.6504V24.4814L138.484 24.2579L138.373 23.9714L138.539 24.0831L138.708 23.914H138.361L138.135 23.745L138.08 23.5788L137.742 23.1862L137.407 23.4728L137.35 23.5874L137.238 23.6991L136.903 23.8109L136.676 23.7536L136.622 23.5874V23.4183L136.564 23.2493L136.734 23.0802L136.788 22.8567L137.075 22.6877L137.301 22.4011V22.235L137.075 22.0659H136.908L136.739 22.1232L136.682 21.9542V21.7851L136.851 21.6161L136.739 21.3295L136.628 21.2149L136.516 21.0487V20.8797L136.628 20.7106L136.794 20.7679H136.957L137.014 20.5416L136.845 20.3754V20.0373L136.559 19.9255L136.272 19.702L136.499 19.5329L136.61 19.3639L136.499 19.2522L136.212 19.0831L135.817 19.0287L135.593 19.1948L135.307 19.0831L135.083 18.9713L134.86 18.7479L135.026 18.5788L135.083 18.2923L135.37 18.2378L135.593 18.1805L135.817 18.0115L135.705 17.8997H135.593L135.307 17.7307L135.14 17.4441L135.307 17.2779L135.02 16.9914L134.854 16.765L134.966 17.2149L135.02 17.2722L134.951 17.6275L134.785 17.6848H134.665L134.441 17.7966L134.33 17.9656H134.218L134.106 17.7966L134.272 17.4585L134.16 17.3467L133.991 17.2923L133.88 17.4585V17.6275L133.768 17.6848V17.9714L133.88 18.2579L134.049 18.3696L134.272 18.4241L134.441 18.7106H134.779V18.7679L134.722 19.1032L134.834 19.3295L134.946 19.2149H135.284L135.338 19.384V19.553L135.172 19.6075L135.057 19.6648L135.003 19.7221L135.115 19.9456L135.284 19.7765H135.395L135.507 19.9456L135.676 20.0573L135.9 20.1146L136.123 19.9456L136.181 20V20.0573L136.238 20.2264L136.181 20.3954L136.292 20.6819V21.0201H135.957V21.4126L135.842 21.8625L135.9 22.086L135.788 22.4212L135.842 22.7077L135.957 22.8768L136.123 22.9885L136.183 23.192ZM134.178 19.0946H134.289L134.401 18.8711L134.347 18.8138H134.289L134.178 18.9255L134.123 19.0401L134.178 19.0946ZM135.02 21.0602L134.963 20.7736L134.57 20.6046L134.797 20.8281L134.908 21.0544L134.797 21.1662L135.02 21.2779V21.0602ZM135.244 21.788L135.02 21.957H135.355L135.467 22.0688L135.582 22.1261V21.957L135.244 21.788ZM135.244 16.5702V16.5129H135.132V16.6275L135.075 16.682H135.132L135.189 16.7393L135.301 16.682L135.244 16.5702ZM135.86 18.4785H135.467L135.244 18.5903V18.8138L135.636 19.0401L136.029 18.8138L136.086 18.5272L135.86 18.4785ZM135.636 21.0029L135.805 20.6103L135.748 20.3238L135.461 20.212L135.295 20.3238V21.3897L135.636 21.0029ZM136.648 24.9857L136.59 24.7622H136.384L136.272 24.8739L136.33 25.0974L136.441 25.2665L136.553 25.1547V25.043L136.648 24.9857ZM137.152 21.0029H136.865L136.977 21.4527L137.315 21.6762L137.481 21.8997L137.427 21.957L137.65 22.0115L137.596 21.788L137.539 21.6762L137.481 21.6189L137.315 21.5072V21.2837L137.427 21.2264L137.539 21.341L137.708 21.2264L137.762 21.0029L137.596 20.8338L137.37 20.7794L137.152 21.0029ZM137.152 25.043V25.2665L137.264 25.3238L137.433 25.212L137.544 24.9857L137.433 24.8195H137.244L137.132 24.7049L137.02 24.6504L136.963 24.8739L137.152 25.043ZM137.264 23.1347L137.04 23.0229V23.3095L137.209 23.4756L137.321 23.4212L137.375 23.3639L137.264 23.1347ZM137.209 25.659L137.433 25.5473L137.602 25.3238L137.315 25.4355L137.209 25.659ZM138.049 22.7937L138.275 22.6791L138.218 22.5129L138.106 22.4556L137.937 22.5129L137.602 22.5673L137.375 22.6246L137.662 22.7937H138.049ZM137.53 26.553L137.587 26.3868L137.473 26.2751H137.361V26.3295L137.418 26.4413L137.53 26.553ZM137.642 22.9627H137.53L137.473 23.0201V23.1318L137.53 23.1891L137.642 23.1318H137.699L137.754 23.0201L137.642 22.9627ZM137.642 24.5903H137.865L137.98 24.4785L137.923 24.3095L137.811 24.255L137.642 24.1977L137.473 24.3095V24.4785L137.642 24.5903ZM137.811 26.9456L137.754 26.8338L137.699 26.7794L137.587 26.8338V27.0029L137.642 27.0602H137.754L137.811 26.9456ZM137.642 25.2092L137.865 25.6017L137.98 25.2092L138.034 24.9226L137.923 24.8653L137.865 24.9226L137.642 25.2092ZM137.754 21.5616V21.6734L137.811 21.7851L138.034 21.8424L138.321 21.7307L138.034 21.6161L137.754 21.5616ZM138.146 26.3868H138.261V26.1605L137.974 25.8739L137.86 25.9312V26.1547L137.974 26.2693L138.146 26.3868ZM138.203 26.7221H138.373L138.427 26.6676L138.373 26.4986L138.261 26.6103L138.203 26.7221ZM138.931 25.9943L138.877 25.8252L138.708 25.7679L138.484 25.6562L138.373 25.4871L138.261 25.8252L138.765 25.9943H138.931ZM138.539 27.341L138.484 27.1146H138.373L138.315 27.1719L138.261 27.341L138.373 27.5072L138.539 27.341ZM138.373 23.6934L138.427 23.7478H138.539L138.596 23.6934V23.5817L138.539 23.5244H138.427L138.373 23.5817V23.6934ZM139.046 27.957L139.1 27.788L138.989 27.6762L138.931 27.5072L138.877 27.3954V27.2264L138.82 27.1719L138.708 27.2264L138.539 27.5645L138.484 27.851V28.0201H138.653L138.877 28.0745L139.046 27.957ZM139.046 28.4613L138.989 28.2951L138.82 28.2378H138.653L138.596 28.4069V28.5158L138.765 28.5702H138.931L139.046 28.4613ZM138.708 25.0401V25.1519L138.765 25.2636L138.931 25.3209V25.1519L138.82 25.0401H138.708ZM139.046 26.8338H138.82L138.931 27.0029H139.158V26.9456L139.212 26.8911L139.046 26.8338ZM139.1 27.2837H138.989V27.3954L138.931 27.4527L138.989 27.5072H139.046L139.1 27.4527L139.158 27.341L139.1 27.2837ZM139.493 28.7421L139.158 28.7994L139.1 29.086V29.3725L139.387 29.596V29.2579L139.332 29.0344L139.444 28.9226L139.493 28.7421ZM139.493 27.8453L139.605 28.0143H139.662L139.719 27.957L139.662 27.788L139.493 27.6218V27.8453ZM139.719 30.1375L139.662 30.0229L139.605 30.0802V30.1375L139.662 30.2493H139.719V30.1375ZM139.774 28.7908L139.943 28.9026H140L140.054 28.8453L139.943 28.6791L139.719 28.5645L139.774 28.7908ZM140.112 29.5759L140.166 29.4642V29.3754L140.054 29.2063L139.885 29.149L139.831 29.318V29.4871L139.943 29.5989L140.112 29.5759ZM140.398 30.9226H140.564L140.622 30.6361L140.284 30.298L140.118 30.3553V30.5788L140.284 30.7479L140.398 30.9226ZM140.845 31.8195L140.734 31.765L140.622 31.8768L140.564 32.1003L140.679 32.3238L140.845 32.1003V31.8195ZM141.418 31.6504L141.642 31.7077L141.699 31.6504V31.596L141.53 31.4842H141.307L141.418 31.6504ZM141.923 33.6562L141.868 33.5444H141.756L141.587 33.6562V33.7708L141.699 33.8252L141.811 33.7708L141.923 33.6562ZM142.708 36.235L142.542 36.1232H142.484L142.427 36.1805L142.484 36.3467L142.653 36.5158L142.708 36.235ZM143.046 34.4957H142.974L142.862 34.4384L142.808 34.4957V34.6075L142.862 34.7192L142.974 34.6075L143.046 34.4957Z" fill="#000"/>
<path d="M76.212 46.063L75.9857 45.3897L76.1347 44.5673L76.5845 43.745L77.1834 42.9226L77.9312 42.1777L78.7507 41.6533L79.7994 41.2779L80.9198 41.1289L82.0401 41.2034L82.8625 41.3524L84.659 42.1777L85.5559 42.4642L86.6017 42.7507L87.6476 43.1261L88.5444 43.5731L89.3668 43.7221L90.2636 43.4355L91.086 42.9112L91.9083 42.3152L92.5817 42.0143L93.404 41.9398L94.3009 42.3152L94.8367 42.8424L95.0602 43.5903L94.9112 44.6361L94.4613 45.6075L93.1175 46.9542L92.1433 47.553L91.6218 47.7765L90.4986 48L89.3782 47.9255L88.4069 47.7765L86.5272 47.1089L85.5559 46.6619L84.659 46.212L83.7622 45.9885L82.7135 45.702L81.7421 45.4756L80.9198 45.6246L80.0974 46.149L79.2751 46.8224L78.5272 47.2722H77.7049L76.7335 46.7479L76.212 46.063ZM76.8825 45.7765L76.957 45.851L77.1089 45.7765V45.6246L76.957 45.702L76.8825 45.7765ZM77.4814 44.4298L77.6304 44.5043H77.7794L77.8567 44.4298V44.2751L77.7049 44.2006L77.6304 44.1261L77.4814 44.2751V44.4298ZM77.7679 45.702L77.6189 45.7765L77.5444 45.9255L77.6189 46H77.6934L77.7679 45.9255V45.702ZM77.9198 44.8797L77.7679 44.9542L77.6189 45.1032V45.2522L77.6934 45.4756L77.7679 45.3267L77.9198 45.1777L78.0688 44.8911L77.9198 44.8797ZM78.1433 45.1662L78.0688 45.0172L77.9943 45.0917V45.2407L78.0688 45.3152L78.1433 45.2407V45.1662ZM78.0688 44.2693L78.1433 44.4928L78.2178 44.3438L78.1433 44.1948L78.0688 44.2693ZM78.3553 43.6705L78.5788 43.745L78.7278 43.894L78.5788 44.0459L78.5043 44.1948H78.6562L78.9427 44.3438V44.0573L78.7937 43.9054V43.831L78.6447 43.6075V43.235L78.3553 43.6705ZM78.3553 45.1032L78.6562 44.8797L78.7278 44.7307L78.8052 44.6533L78.5788 44.5788H78.5043L78.3553 44.7307V45.1032ZM79.0287 44.0573H79.1032L79.1777 44.1318H79.4642L79.3897 44.2808L79.3152 44.3553L79.2407 44.5043V44.7908L79.3152 44.8682V44.9427L79.3897 44.8682V44.6418L79.5415 44.4928L79.8281 44.3438H80.7249V44.1948H80.6504L80.2006 44.0459L79.8281 43.894H79.6504V43.745H79.2006L79.0516 43.8195L79.0287 44.0573ZM79.2522 43.533L79.4012 43.4585H79.4756L79.553 43.384L79.6275 43.235L79.4012 43.3095L79.3267 43.4585L79.2522 43.533ZM79.9255 43.533L80 43.6075L80.0745 43.4585L80.149 43.384V43.1605L80.2235 43.0086H80.0745L80 43.1605L79.9255 43.447V43.533ZM80.298 43.4585L80.2235 43.6075L80.298 43.6819L80.3754 43.831H80.5989L80.8854 43.7565L81.3353 43.9828H81.4098L81.5587 43.9054V43.7565L81.4098 43.6819H81.1232L80.8997 43.6075H80.5272L80.4527 43.4585L80.3009 43.384L80.298 43.4585ZM80.5845 43.0086L80.7335 43.1605H80.8825V43.0831L80.808 42.9341H80.7335L80.5845 43.0086ZM81.4814 44.2808L81.4069 44.2063L81.2579 44.1318H81.1834V44.2751L81.4069 44.4241H81.4814V44.2808ZM81.3324 43.1605L81.4069 43.384L81.4814 43.533L81.5559 43.6075H81.6304V43.533L81.7049 43.4585L81.6304 43.3095V43.235L81.7049 43.1605V43.0831L81.7794 42.9341L81.5559 43.0831L81.4069 43.1605H81.3324ZM81.8539 43.831L81.7794 43.9828L81.7049 44.0573V44.2063L81.9284 44.4298V44.5043L82.0802 44.4298L82.1547 44.1433H82.3037L82.3782 44.0688L82.6017 43.9169L82.4527 43.8424H82.3037L82.1547 43.6934L82.0029 43.6189V43.4699L81.8539 43.6934V43.831ZM82.1547 43.235L82.2292 43.384L82.3037 43.4585H82.4527L82.7393 43.533L83.0401 43.6819H83.1891L83.3381 43.831L83.4871 43.9054H83.788V44.7307L83.6361 44.9542L83.7135 45.1777H83.8625L83.937 45.2522L84.1605 45.1032L84.3095 45.4756L84.384 45.6246L84.4585 45.851L84.6848 45.702L84.9083 45.6246V45.702L85.3553 45.9255L85.2063 45.702L85.0573 45.5502V45.1777L85.3438 44.8911L85.7192 44.8138H85.8682L86.0917 44.8911L86.1662 44.9656V45.2522L86.2436 45.3267L86.4671 45.1777L86.6906 44.8911L86.8395 44.9656L87.0659 45.0401H87.2894L87.5129 45.1146L87.3639 44.8911L87.2149 44.5903L87.3639 44.6648V44.2178L86.9914 43.9943L86.765 44.0688V44.2751L86.914 44.3496L87.1404 44.4241L87.2149 44.5731L86.9914 44.7249L86.765 44.7966L86.4785 44.6476L86.404 44.7249H86.255L86.1031 44.5731L86.0287 44.4241H85.9542V44.3496L85.7307 44.2751L85.4441 44.3496L85.2178 44.2006L85.0688 44.3496H84.9198L84.8453 44.4986H84.6218L84.3954 44.6476L84.2464 44.5731V44.3496L84.3209 44.2006H84.1719L84.0229 44.0516L84.0974 43.8252L84.3209 43.5387V43.2522L84.1719 43.3267L84.0974 43.4012L83.8109 43.6246H83.659L83.51 43.4756L83.361 43.4012H83.212L83.1375 43.2522L82.9885 43.0258L82.8367 43.1003H82.4642L82.3152 43.2522L82.1547 43.235ZM82.6762 44.5043L82.4527 44.3553H82.3782V44.4298L82.4527 44.5788L82.6762 44.5043ZM83.4986 44.7307L83.6476 44.4298L83.4986 44.2808H83.4241L83.2751 44.3553H83.1261L82.9026 44.2808L83.0516 44.1318V43.9054H82.9026L82.7507 43.9828L82.6762 44.0573V44.2063L82.7507 44.2808H82.9026V44.3553L82.9771 44.4298V44.6533L83.0516 44.7307V44.8023L83.1261 44.8797H83.2006L83.4986 44.7307ZM82.9771 42.6361L83.0516 42.7106L83.1261 42.8596L83.2006 42.9341V43.0086L83.3496 43.1605L83.4986 43.235L83.5731 43.3095L83.6476 43.235L83.7994 43.1605V42.9341L83.7249 42.7106H83.6476L83.4986 42.6361L83.212 42.5616H83.1375L82.9771 42.6361ZM84.4699 44.0688H84.6218V43.8424L84.4699 43.9169V44.0688ZM84.7708 43.8424L84.9943 43.9169L85.3668 44.0688L85.5931 44.1433L85.7421 44.2178L85.6676 43.9943L85.5186 43.7679L85.2178 43.4814L84.9943 43.4069L84.7708 43.6304V43.8424ZM85.7421 45.1891H85.8911L85.9656 45.1146L85.8911 44.9656H85.7421L85.6676 45.1146L85.7421 45.1891ZM88.0602 45.788H87.9599L87.6734 45.4871L87.5244 45.2636L87.1519 45.3381L86.851 45.4126V45.788L86.7765 46.0115L86.6275 46.086L86.553 45.8625L86.4785 45.5759V45.4269L86.0287 45.5014L85.9542 45.8023L86.0287 45.8768L86.1777 45.9513L86.1031 46.0258L86.404 46.4728L86.6906 46.6246H86.765L86.914 46.5501L87.0659 46.3983L87.3524 46.5501L87.4269 46.6246L87.7994 46.5501L87.9599 46.2808L88.1117 45.9943L88.0602 45.788ZM86.2407 44.1948L86.3926 44.3438H86.4671L86.5415 44.1948V44.1203L86.4671 44.0459L86.2407 44.1948ZM87.5874 44.7192L87.6619 44.8682L87.7364 44.7908H87.8109L87.8854 44.5043V44.3553L87.7364 44.1318L87.6619 44.2808V44.5673L87.5874 44.7192ZM87.9599 44.9427L87.8854 45.0172V45.0917H88.1117L88.2607 45.1662L88.3352 45.3152L88.2607 45.4642L88.3352 45.5387V45.6905L88.5587 45.6132L88.6332 45.4642L88.7077 45.2407L88.7822 44.8682L88.7077 44.5673H88.1863L88.1117 44.7192L88.0372 44.7908L87.9599 44.9427ZM90.8653 46.2808L90.7163 46.2063L90.6418 46.1318L90.49 46.0573L90.4183 45.9828L90.341 46.1318L90.2665 46.2063L90.043 46.1318V45.9083L90.1175 45.6848L89.9685 45.533L89.745 45.384L89.6705 45.4585H89.5931V45.6075L89.6705 45.6848L89.5931 45.9083H89.3696L89.0831 45.9828H89.0086L88.9341 45.9083L88.7822 46.1318H88.4097L88.3352 46.5072L88.4842 46.9542L88.5587 46.8052L88.7077 46.7307V46.5072L89.0831 46.1318V46.0573H89.6046L89.7564 46.2063L89.9799 46.3553H90.2665L90.4183 46.5072L90.5673 46.7307L90.7163 46.6562L90.7908 46.5817L90.8653 46.4298V46.2808ZM88.8596 45.7593L88.9341 45.8338H89.0086L89.0831 45.7593L89.3066 45.6075L89.4556 45.4585V45.384L89.3066 45.4585H89.0831L89.0086 45.533H88.8596V45.7593ZM88.9341 44.6361L89.0086 44.7851L89.1576 44.937L89.2321 44.8625L89.3811 44.7851L89.3066 44.6361H88.9341ZM89.5301 45.235H89.6791L89.7536 45.3095H89.8281L90.0516 45.384L90.1261 45.533L90.2751 45.6075L90.3496 45.533V45.4585L90.4269 45.235L90.3496 45.086H90.2006V44.937L90.1261 44.7851V44.6361H89.9026L89.9771 44.7851L89.9026 44.937L89.7536 45.0115L89.5301 45.235ZM90.5014 45.384L90.4298 45.533V45.6848L90.6533 45.8338L90.7278 45.7593V45.6075L90.6533 45.533V45.384L90.7278 45.3095V45.1605L90.8023 44.937L90.5788 44.6361V44.8625L90.6533 45.149L90.5014 45.298V45.384ZM90.9513 45.6848H91.1003L91.4012 45.7593L91.3238 45.6075L91.1748 45.533H90.9513V45.6848ZM91.1748 45.235L91.2493 45.3095L91.4012 45.384L91.4756 45.4585L91.7622 45.6075L91.8367 45.533H91.9112V45.384L91.9857 45.3095V45.235L91.9112 45.0115H91.8367L91.7622 44.937L91.6132 45.086H91.3983L91.1719 45.1605L91.1748 45.235ZM91.4756 46.3553L91.4012 46.2063H91.2493V46.3553L91.4012 46.5817V46.4298L91.4756 46.3553ZM91.8481 44.6361L91.9971 44.7135L92.1461 44.6361L92.0716 44.4871H91.9226V44.5616L91.8481 44.6361ZM92.298 46.1318H92.2235L91.9971 46.2063L91.9226 46.2808L92.0716 46.4298H92.2235L92.298 46.2808V46.1318ZM92.298 45.1605H92.1461L92.0716 45.235V45.384L92.2235 45.533H92.298L92.3725 45.6075V45.235L92.298 45.1605ZM92.5215 44.8739H92.6705L92.8195 44.9484H92.894L93.0458 44.8739V44.7966L92.9714 44.7249H92.745L92.6705 44.7966L92.5215 44.8739ZM93.1948 45.0229L93.0458 44.9484L92.8195 45.3954H92.9714L93.1204 45.3209H93.1948L93.4814 45.1719L93.5559 45.0229H93.7794L93.9312 44.9484L93.7049 44.8739H93.5559L93.4069 45.0229L93.3324 45.1719L93.1948 45.0229ZM93.0458 45.6189L92.894 45.5444L92.8195 45.6189V45.6963L92.894 45.8453L93.0458 45.6963V45.6189ZM93.7163 44.6476L93.9427 44.7249L94.0917 44.6476V44.4986L93.8682 44.2751L93.7908 44.3496H93.7163V44.6476ZM94.0172 44.2006L94.1662 44.3496L94.2407 44.2006V44.1261L94.0917 44.0516L94.0172 44.2006Z" fill="#000"/>
</svg>
