<svg class="firma" width="112" height="23" viewBox="0 0 112 23" fill="none" xmlns="http://www.w3.org/2000/svg">
    <g clip-path="url(#clip0_1485_23262)">
        <path d="M8.79128 20.9702C8.74968 21.0665 8.68461 21.1481 8.60334 21.206C8.5273 21.2543 8.4405 21.2782 8.35276 21.275H4.0041C3.88123 21.2819 3.75932 21.2479 3.65433 21.1772C3.54329 21.0991 3.45743 20.9844 3.40897 20.8495C3.26926 20.4062 3.20381 19.9386 3.21581 19.4695C3.18449 18.0722 3.15839 16.5945 3.14794 15.0707C3.1375 13.547 3.14794 11.891 3.14794 10.1372C3.14794 8.56174 3.14794 7.26224 3.14794 6.30199C3.14794 5.34174 3.13228 4.54249 3.16883 3.96749C3.20537 3.39249 3.16883 2.98999 3.22103 2.73124C3.27324 2.47249 3.25757 2.27124 3.27324 2.15624C3.36198 1.65599 3.59691 1.40299 3.98322 1.40299H4.57835V0.281738H0V1.37999H0.308008C0.48037 1.36063 0.652763 1.41636 0.788291 1.53524C0.902345 1.70153 0.96788 1.90203 0.976228 2.11024C1.00755 2.40349 1.02843 2.68524 1.04931 3.03599C1.0702 3.38674 1.08586 3.78349 1.0963 4.31249C1.10674 4.84149 1.0963 5.51424 1.0963 6.34799C1.0963 7.18174 1.0963 8.22824 1.0963 9.51624V16.5945C1.0963 17.3477 1.0963 17.9457 1.0963 18.3827C1.0963 18.8197 1.0963 19.1762 1.06498 19.4522C1.03365 19.918 1.01277 20.2572 0.99711 20.539C0.991388 20.7606 0.961594 20.9807 0.908362 21.1945C0.878223 21.324 0.808077 21.4378 0.709984 21.5165C0.593278 21.5796 0.463995 21.6093 0.33411 21.6027H0V22.7182H9.9189V19.9582H8.94789C8.96927 20.3082 8.91562 20.6588 8.79128 20.9817"
              fill="#2B333F"/>
        <path d="M12.8117 6.37135C12.7017 6.02145 12.5413 5.69334 12.3366 5.3996C12.1486 5.14086 11.9463 4.89507 11.731 4.6636C11.4146 4.34917 11.0506 4.09813 10.6556 3.92185C10.2546 3.74968 9.82785 3.66191 9.39747 3.6631C8.95181 3.66337 8.51101 3.76517 8.10279 3.9621C7.6965 4.15333 7.32505 4.42412 7.00649 4.76135C6.78386 4.99102 6.58751 5.24977 6.4218 5.53185C6.23857 5.84909 6.0979 6.19381 6.00416 6.55535C5.87845 7.00543 5.79106 7.46742 5.74314 7.93535C5.66834 8.574 5.63519 9.21773 5.64395 9.8616C5.63692 10.4549 5.66132 11.0482 5.71704 11.6383C5.75855 12.0692 5.83721 12.4947 5.95196 12.9091C6.04049 13.2324 6.16684 13.5417 6.32783 13.8291C6.46733 14.0863 6.62074 14.334 6.78723 14.5708C7.11803 14.9734 7.51936 15.2981 7.96706 15.5253C8.62542 15.8659 9.36592 15.9637 10.0787 15.8042C10.7915 15.6447 11.4387 15.2364 11.9242 14.6398C12.1171 14.4053 12.2917 14.1534 12.4462 13.8866C12.6238 13.5865 12.7643 13.2616 12.8639 12.9206C12.9879 12.5057 13.0736 12.078 13.1197 11.6441C13.183 11.0718 13.2126 10.4956 13.2084 9.9191C13.2146 9.21029 13.1814 8.50172 13.1092 7.79735C13.0573 7.30779 12.9575 6.82584 12.8117 6.35985V6.37135ZM10.8644 11.9891C10.8644 12.5181 10.8122 12.9148 10.7757 13.2426C10.7564 13.4699 10.7125 13.6938 10.6452 13.9096C10.5953 14.0373 10.5303 14.1571 10.452 14.2661C10.3313 14.4413 10.1736 14.5815 9.9926 14.6743C9.81155 14.7674 9.61273 14.8108 9.41313 14.8008C9.21085 14.8025 9.01089 14.7533 8.82844 14.6571C8.64181 14.5612 8.47753 14.4196 8.34815 14.2431C8.27312 14.1337 8.21168 14.0139 8.16544 13.8866C8.09429 13.6736 8.04866 13.4513 8.02971 13.2253C7.99838 12.9206 7.96706 12.5008 7.94618 11.9661C7.9253 11.4313 7.90963 10.7471 7.90963 9.8846C7.90963 9.0221 7.90963 8.21135 7.94618 7.64785C7.98272 7.08435 7.99316 6.63585 8.02971 6.31385C8.04877 6.08228 8.09437 5.8543 8.16544 5.63535C8.2076 5.51167 8.27146 5.39835 8.35337 5.30185C8.4824 5.13023 8.64474 4.99268 8.82844 4.89935C9.00607 4.80613 9.20072 4.75893 9.39747 4.76135C9.59686 4.76144 9.79379 4.80992 9.97425 4.90334C10.1547 4.99676 10.3143 5.13282 10.4416 5.30185C10.5156 5.4047 10.5754 5.51901 10.6191 5.6411C10.7072 5.85802 10.7636 6.08897 10.7861 6.32535C10.8105 6.64352 10.8366 7.08051 10.8644 7.63635C10.8905 8.21135 10.8957 8.9416 10.8957 9.86735C10.8957 10.7931 10.8957 11.4486 10.8644 11.9776"
              fill="#2B333F"/>
        <path d="M25.0604 16.1459C25.0604 15.3467 25.0604 14.6739 25.0029 14.1219C24.9769 13.6454 24.914 13.1722 24.815 12.7074C24.7361 12.3528 24.6205 12.0094 24.4704 11.6839C24.3205 11.3832 24.1457 11.0983 23.9484 10.8329C23.3695 10.0674 22.5596 9.55707 21.6671 9.39541C22.1164 8.95017 22.4726 8.40282 22.7111 7.79116C22.9966 7.06571 23.139 6.28175 23.1288 5.49116C23.1288 3.76616 22.8103 2.47241 22.1682 1.60415C21.8182 1.15622 21.3786 0.803893 20.884 0.574905C20.3897 0.344845 19.8531 0.246349 19.3178 0.287405H14.2331V1.3799H14.4524C14.8543 1.3799 15.084 1.4949 15.1415 1.71916C15.1415 1.80541 15.178 1.98941 15.2093 2.29416C15.2406 2.59891 15.2668 3.09916 15.2981 3.80066C15.3294 4.50216 15.3451 5.46816 15.3607 6.67566C15.3764 7.88316 15.3607 9.41266 15.3607 11.2757V15.4674C15.3607 16.6174 15.3607 17.5834 15.319 18.3424C15.2772 19.1014 15.2615 19.7282 15.2145 20.1479C15.1894 20.4769 15.1352 20.8023 15.0527 21.1197C15.018 21.2853 14.9263 21.4296 14.7969 21.5222C14.6868 21.5825 14.5649 21.6121 14.4419 21.6084H14.2227V22.7584H20.435C21.0853 22.7796 21.7308 22.6282 22.3168 22.317C22.9028 22.0057 23.4123 21.5438 23.8022 20.9702C24.2233 20.3495 24.5349 19.6473 24.721 18.9002C24.9484 18.0095 25.0626 17.0884 25.0604 16.1632V16.1459ZM17.3288 7.75091V6.60091C17.3288 6.21566 17.3288 5.82466 17.3549 5.41641C17.381 5.00816 17.3549 4.52516 17.4071 3.95591C17.4593 3.38666 17.4489 3.03016 17.4855 2.67941C17.5072 2.41111 17.558 2.14664 17.6368 1.89166C17.6866 1.74027 17.7733 1.60695 17.8874 1.5064C17.9841 1.42891 18.1021 1.39034 18.2215 1.39716H18.6653C19.005 1.38774 19.3412 1.47488 19.6415 1.65015C19.9218 1.82102 20.1573 2.06857 20.3254 2.36891C20.4154 2.51263 20.4907 2.66691 20.5499 2.82891C20.6126 3.03252 20.6649 3.23984 20.7065 3.44991C20.7535 3.74316 20.7848 4.02491 20.8057 4.33541C20.8266 4.64591 20.837 5.07716 20.837 5.54866C20.8511 6.13671 20.8073 6.72473 20.7065 7.30241C20.6408 7.67553 20.4959 8.02625 20.2836 8.32591C20.1325 8.58282 19.9239 8.79268 19.678 8.93541C19.4227 9.09028 19.134 9.1658 18.8428 9.15391H17.3184L17.3288 7.75091ZM22.6903 17.6639C22.6713 18.0858 22.6312 18.5062 22.5702 18.9232C22.5316 19.2051 22.4687 19.4824 22.3823 19.7512C22.3169 19.9549 22.2273 20.1482 22.116 20.3262C21.8768 20.7403 21.5342 21.0697 21.1293 21.2749C20.6971 21.4929 20.2265 21.6029 19.7511 21.5969H18.185C17.8039 21.5969 17.5638 21.4474 17.475 21.1542C17.3663 20.6693 17.3223 20.1695 17.3445 19.6707V13.0869C17.3445 12.1669 17.3445 11.1952 17.3027 10.2119H19.7459C20.153 10.1924 20.5586 10.277 20.931 10.4592C21.3191 10.6345 21.6617 10.913 21.9281 11.2699C22.072 11.4621 22.1947 11.6725 22.2935 11.8967C22.409 12.1642 22.4949 12.446 22.5493 12.7362C22.6249 13.1462 22.6772 13.561 22.7059 13.9782C22.7425 14.4727 22.7581 15.0937 22.7581 15.8239C22.7581 16.5542 22.7581 17.1694 22.7164 17.6639"
              fill="#2B333F"/>
        <path d="M29.9356 21.609H29.5649C29.4206 21.6226 29.2757 21.5907 29.1473 21.517C29.0507 21.4246 28.9816 21.3024 28.9489 21.1662C28.9228 20.9362 28.9071 20.6947 28.9019 20.459C28.9019 20.0565 28.9019 19.539 28.8706 18.9237C28.8393 18.3085 28.8706 17.6185 28.8706 16.8537C28.8706 16.089 28.8706 15.307 28.8706 14.5135C28.8706 13.72 28.8706 12.9437 28.8706 12.2135V7.67098C28.8706 6.74523 28.8706 5.86548 28.8706 5.03173C28.8706 4.19798 28.8967 3.49073 28.9124 2.89273C28.9088 2.54052 28.9315 2.18859 28.9802 1.84048C29.0161 1.70252 29.0845 1.57751 29.1786 1.47823C29.3048 1.39739 29.4511 1.36313 29.5962 1.38048H29.9669V0.282227H25.7227V1.38048H26.1038C26.2489 1.36313 26.3952 1.39739 26.5214 1.47823C26.6146 1.5755 26.6783 1.70196 26.7041 1.84048C26.7425 2.18377 26.7582 2.52968 26.7511 2.87548C26.772 3.47348 26.7876 4.18648 26.7981 5.01448C26.7981 5.84823 26.7981 6.73948 26.7981 7.65373V16.8537C26.7981 17.6127 26.7981 18.3085 26.7667 18.9237C26.7354 19.539 26.7354 20.0737 26.7198 20.459C26.7198 20.6947 26.7198 20.9305 26.678 21.1662C26.6532 21.3019 26.5891 21.425 26.4953 21.517C26.3668 21.5907 26.222 21.6226 26.0776 21.609H25.7227V22.7245H29.946L29.9356 21.609Z"
              fill="#2B333F"/>
        <path d="M33.9826 12.213V14.513C33.9826 15.3122 33.9826 16.0885 33.9826 16.8532C33.9826 17.618 33.9826 18.308 33.9826 18.9232C33.9826 19.5385 33.9826 20.0732 33.946 20.4585C33.9453 20.695 33.9314 20.9312 33.9043 21.1657C33.8853 21.3023 33.8223 21.4269 33.7268 21.5165C33.598 21.5891 33.4534 21.6209 33.3091 21.6085H32.6618V22.724H37.3289V21.6085H36.7286C36.5843 21.6215 36.4396 21.5896 36.3109 21.5165C36.2154 21.4269 36.1524 21.3023 36.1334 21.1657C36.1065 20.9311 36.0926 20.695 36.0917 20.4585C36.0917 20.056 36.0917 19.5385 36.0551 18.9232C36.0186 18.308 36.0551 17.618 36.0551 16.8532C36.0551 16.0885 36.0551 15.3065 36.0551 14.513C36.0551 13.7195 36.0551 12.9432 36.0551 12.213V7.69349C36.0551 6.76774 36.0551 5.92249 36.0551 5.12324C36.0551 4.32399 36.0864 3.62249 36.1021 3.04749C36.0968 2.71071 36.1177 2.37406 36.1647 2.04124C36.1851 1.90353 36.2478 1.77769 36.3422 1.68474C36.4732 1.61338 36.6196 1.58352 36.7651 1.59849H37.6682C37.8253 1.57362 37.9856 1.59451 38.133 1.65907C38.2805 1.72364 38.41 1.82963 38.5087 1.96649C38.6468 2.3439 38.7057 2.75076 38.681 3.15674H39.6572V0.281738H30.5527V3.15674H31.4715C31.4586 2.76603 31.5117 2.37608 31.6282 2.00674C31.7326 1.71924 31.884 1.57549 32.0928 1.57549H33.2465C33.3901 1.56384 33.5341 1.59356 33.6641 1.66174C33.7588 1.75372 33.82 1.88037 33.8364 2.01824C33.8994 2.35302 33.9309 2.69408 33.9304 3.03599C33.9304 3.61099 33.9617 4.30099 33.9774 5.10599C33.993 5.91099 33.9774 6.76774 33.9774 7.67624V12.1957L33.9826 12.213Z"
              fill="#2B333F"/>
        <path d="M50.4646 16.0993C50.5272 15.001 50.5586 13.621 50.5533 11.9478C50.5481 10.2745 50.522 8.8083 50.4646 7.6353C50.422 6.65288 50.3297 5.67386 50.1879 4.7028C50.0999 4.0483 49.9367 3.40877 49.7024 2.79955C49.5186 2.34718 49.2681 1.93141 48.9611 1.56905C48.5178 1.06933 47.9843 0.677566 47.395 0.419046C46.6865 0.124388 45.9334 -0.0180955 45.1763 -0.000703562C44.4646 -0.0217846 43.7559 0.107023 43.0881 0.378796C42.5297 0.612482 42.0265 0.982002 41.6159 1.4598C41.2931 1.82556 41.0268 2.24704 40.8276 2.70755C40.5806 3.32285 40.4052 3.97006 40.3056 4.6338C40.1526 5.60733 40.0567 6.5907 40.0184 7.5778C39.961 8.7278 39.9297 10.194 39.9297 11.9133C39.9297 13.6325 39.961 14.9723 40.0184 16.0648C40.0587 16.9712 40.1511 17.8738 40.2951 18.7673C40.383 19.3497 40.5465 19.9152 40.7806 20.4463C40.9656 20.835 41.1993 21.1931 41.4749 21.51C41.9356 21.9998 42.488 22.3727 43.0933 22.6025C43.8483 22.881 44.6413 23.0133 45.4373 22.9935C46.1051 23.034 46.7733 22.9204 47.399 22.66C48.0247 22.3996 48.5941 21.9981 49.0707 21.4813C49.3348 21.1706 49.5548 20.8178 49.7233 20.4348C49.9382 19.9154 50.0942 19.3689 50.1879 18.8075C50.3325 17.9141 50.4249 17.0115 50.4646 16.105V16.0993ZM48.1937 16.151C48.1937 17.1918 48.1415 17.9968 48.0997 18.5603C48.0781 18.9733 48.0222 19.3833 47.9327 19.785C47.8742 19.9858 47.7954 20.1787 47.6978 20.36C47.4641 20.8361 47.1177 21.2335 46.6954 21.51C46.2593 21.7806 45.7654 21.9176 45.265 21.9068C44.8055 21.9169 44.3506 21.8044 43.939 21.579C43.5608 21.3676 43.2293 21.0673 42.968 20.6993C42.8331 20.5074 42.729 20.2915 42.66 20.061C42.5357 19.6381 42.4602 19.1995 42.4355 18.7558C42.3729 18.1808 42.3311 17.3125 42.2998 16.2373C42.2685 15.162 42.2841 13.736 42.2841 11.9478C42.2841 10.0311 42.298 8.4978 42.3259 7.3478C42.3572 6.1978 42.399 5.27205 42.4616 4.60505C42.4911 4.11441 42.5681 3.62865 42.6913 3.15605C42.7693 2.89427 42.8781 2.6449 43.015 2.4143C43.2614 2.00138 43.6004 1.6654 43.9991 1.43878C44.3978 1.21216 44.8428 1.10256 45.2911 1.12055C45.7459 1.10762 46.1964 1.22029 46.6014 1.4483C46.9625 1.67215 47.2717 1.98508 47.5046 2.36255C47.641 2.59874 47.7481 2.85401 47.823 3.12155C47.9474 3.60367 48.0244 4.09908 48.0527 4.5993C48.1102 5.2663 48.1571 6.18055 48.1885 7.34205C48.2198 8.50355 48.2302 10.0388 48.2302 11.942C48.2302 13.667 48.2302 15.07 48.1937 16.0878"
              fill="#2B333F"/>
        <path d="M63.1283 16.7902V16.0427H62.956C62.8255 16.0605 62.6933 16.0302 62.5801 15.9565C62.5004 15.8412 62.4597 15.6988 62.4653 15.554C62.4653 15.3412 62.4287 15.1285 62.4183 14.9215C62.4079 14.7145 62.4183 14.4615 62.4183 14.151C62.4183 13.8405 62.4183 13.461 62.4183 13.001V4.2207H60.1944V4.93945H60.4293C60.5417 4.93149 60.6534 4.96376 60.7477 5.03145C60.8387 5.14265 60.8985 5.28043 60.92 5.4282C60.92 5.52595 60.9566 5.64095 60.9722 5.7732C60.9941 5.97937 61.0063 6.18665 61.0088 6.3942C61.0088 6.67595 61.0088 7.06695 61.0349 7.5442C61.061 8.02145 61.0349 8.6942 61.0349 9.4992C60.8983 9.2543 60.7032 9.0554 60.4711 8.9242C60.2368 8.79579 59.9746 8.74201 59.7141 8.76895C59.4247 8.77026 59.1393 8.84295 58.8788 8.9817C58.585 9.15331 58.3326 9.39973 58.1427 9.70045C57.9027 10.0976 57.7261 10.5371 57.6207 11C57.4749 11.6467 57.4065 12.3117 57.4171 12.978C57.4108 13.5599 57.4758 14.1401 57.6102 14.703C57.7156 15.1462 57.8924 15.5649 58.1323 15.9392C58.3438 16.2553 58.619 16.5132 58.9362 16.6925C59.2449 16.8662 59.5867 16.9569 59.9334 16.957C60.2293 16.9494 60.5178 16.8541 60.7686 16.681C61.0337 16.5027 61.2686 16.275 61.4629 16.0082C61.5578 16.2829 61.7447 16.5072 61.985 16.635C62.2634 16.7496 62.5598 16.8024 62.8568 16.7902H63.1283ZM60.9357 14.8007C60.9412 15.1528 60.8522 15.4988 60.6799 15.7955C60.6027 15.939 60.493 16.0579 60.3614 16.1405C60.2292 16.2216 60.0794 16.2613 59.9281 16.2555C59.7833 16.259 59.6399 16.2235 59.5105 16.152C59.3852 16.0827 59.2748 15.9847 59.1868 15.8645C59.134 15.7799 59.0984 15.6838 59.0824 15.5827C59.045 15.4322 59.0205 15.2782 59.0093 15.1227C59.0093 14.9215 58.9728 14.6627 58.9623 14.312C58.9519 13.9612 58.9623 13.53 58.9623 12.978C58.9623 12.426 58.9623 11.8567 58.9623 11.483C58.9623 11.1092 58.9989 10.8102 59.0302 10.5975C59.0464 10.4379 59.0815 10.2813 59.1346 10.1317C59.1678 10.0437 59.2136 9.96214 59.2703 9.8902C59.3437 9.77415 59.4412 9.67914 59.5548 9.61312C59.6683 9.54709 59.7945 9.51198 59.9229 9.5107C60.0696 9.50445 60.2153 9.5401 60.3458 9.6142C60.4787 9.68639 60.5908 9.79788 60.6694 9.9362C60.8406 10.2166 60.9315 10.5471 60.9305 10.885L60.9357 14.8007Z"
              fill="#2B333F"/>
        <path d="M67.2079 15.8069C66.8612 16.1081 66.4274 16.2612 65.9863 16.2381C65.8568 16.2355 65.7295 16.1998 65.6145 16.134C65.4994 16.0682 65.3998 15.9739 65.3233 15.8586C65.2668 15.7854 65.2194 15.7042 65.1824 15.6171C65.1262 15.49 65.0875 15.3543 65.0675 15.2146C65.0318 14.9942 65.0092 14.7714 64.9997 14.5476V13.4781L67.0148 12.4949C67.2223 12.4011 67.4246 12.2935 67.6204 12.1729C67.7536 12.0894 67.8749 11.9847 67.9806 11.8624C68.0653 11.7636 68.1263 11.643 68.1581 11.5116C68.19 11.3707 68.204 11.2256 68.1998 11.0804C68.225 10.7625 68.1858 10.4423 68.085 10.1431C67.9843 9.84458 67.8258 9.57379 67.6204 9.34964C67.1654 8.94544 66.5909 8.74066 66.0072 8.77464C65.6793 8.77283 65.3561 8.8618 65.0675 9.03339C64.7703 9.20109 64.506 9.43165 64.2897 9.71189C64.0163 10.0668 63.8119 10.4797 63.6893 10.9251C63.5296 11.5692 63.4575 12.2358 63.4753 12.9031C63.4647 13.4231 63.5121 13.9426 63.6162 14.4499C63.6977 14.8557 63.8388 15.2441 64.0339 15.5999C64.2443 15.9904 64.5293 16.3259 64.8692 16.5831C65.2083 16.8289 65.6065 16.9571 66.0124 16.9511C67.1296 16.9511 67.8762 16.2765 68.252 14.9271L67.8657 14.8351C67.7507 15.2198 67.5345 15.558 67.2445 15.8069H67.2079ZM65.0153 11.3564C65.0198 11.1025 65.0372 10.8491 65.0675 10.5974C65.0836 10.4554 65.1098 10.3151 65.1459 10.1776C65.1775 10.0966 65.2197 10.021 65.2711 9.95339C65.3622 9.82448 65.4758 9.71696 65.6053 9.63714C65.7307 9.55197 65.8756 9.50808 66.0229 9.51064C66.1853 9.48822 66.3502 9.50993 66.5032 9.57389C66.6571 9.63907 66.7949 9.74351 66.9052 9.87864C67.0769 10.2145 67.1567 10.5979 67.1349 10.9826C67.147 11.1799 67.1147 11.3774 67.0409 11.5576C66.9779 11.6851 66.8735 11.7817 66.7485 11.8279L65.0153 12.6099V11.3564Z"
              fill="#2B333F"/>
        <path d="M84.0461 8.36049V13.685C84.0461 14.789 84.0461 15.7607 84.0148 16.6002C83.9835 17.4397 83.9783 18.1872 83.9574 18.8485C83.9365 19.5097 83.9104 20.1997 83.8791 20.8955C83.8853 21.0006 83.8729 21.1061 83.8425 21.206C83.8085 21.3043 83.757 21.3943 83.6911 21.4705C83.5035 21.5791 83.2917 21.6269 83.0803 21.6085H82.8872V22.724H87.0636V21.6085H86.813C86.6263 21.6139 86.4404 21.5808 86.2648 21.5107C86.1343 21.4417 86.0508 21.2347 86.0195 20.8955C85.9934 20.7057 85.9725 20.4872 85.9516 20.2515C85.9307 20.0157 85.9255 19.7282 85.9098 19.3775C85.8942 19.0267 85.9098 18.6012 85.8785 18.1067C85.8472 17.6122 85.8785 16.997 85.8472 16.2667C85.8159 15.5365 85.8472 14.6682 85.8472 13.6562V6.36524C85.8472 5.41074 85.8472 4.64024 85.8942 4.09974C85.9412 3.55924 85.9412 3.11074 85.9777 2.82899C86.0134 2.56367 86.0622 2.30069 86.1239 2.04124C86.1713 1.82936 86.2793 1.63988 86.4319 1.50074C86.5665 1.41525 86.7203 1.37339 86.8756 1.37999H87.074V0.281738H84.2184C83.8704 2.74274 83.545 4.89324 83.2422 6.73324C82.9498 8.57899 82.6784 10.2177 82.4069 11.6552C82.1354 13.0927 81.9162 14.375 81.6813 15.5077C81.4463 16.6405 81.2166 17.7042 80.9922 18.7335C80.8199 17.6755 80.6319 16.5542 80.4701 15.3697L79.8698 11.799C79.687 10.603 79.5148 9.43574 79.3477 8.27424C79.1806 7.11274 79.0397 6.04324 78.904 5.02549C78.7682 4.00774 78.6534 3.09924 78.5542 2.28274C78.455 1.46624 78.3715 0.810738 78.3245 0.310488H74.8529V1.40874H75.0356C75.207 1.3843 75.3807 1.42704 75.5263 1.52949C75.6252 1.6345 75.705 1.75942 75.7612 1.89749C75.8204 2.08406 75.8623 2.27669 75.8865 2.47249C75.9335 2.88649 75.9596 3.30049 75.9701 3.71449C75.9962 4.28949 76.0118 5.03699 76.0327 5.98574C76.0536 6.93449 76.0327 8.16499 76.0327 9.67149V14.4267C76.0327 15.6285 76.0327 16.5945 75.9962 17.3362C75.9596 18.078 75.9962 18.6472 75.9648 19.0612C75.9335 19.4752 75.9648 19.872 75.9283 20.2457C75.8917 20.6195 75.8761 20.9185 75.8552 21.0507C75.8395 21.159 75.8133 21.265 75.7769 21.367C75.7038 21.5165 75.4637 21.5855 75.046 21.5855H74.8477V22.7355H78.1209V21.6315H77.8546C77.6576 21.6453 77.4604 21.6058 77.2804 21.5165C77.1655 21.4475 77.0977 21.2577 77.082 20.9415C77.082 20.7287 77.0507 20.3665 77.0403 19.7915C77.0298 19.2165 77.0089 18.6415 76.9933 17.9515C76.9776 17.2615 76.9619 16.491 76.9515 15.6975C76.9411 14.904 76.9254 14.1392 76.9202 13.3975C76.915 12.6557 76.9202 12.0175 76.8941 11.4367C76.868 10.856 76.8941 10.4247 76.8941 10.1487V8.62499C76.8941 8.08449 76.8941 7.55549 76.9254 7.05524C77.0194 7.54399 77.1342 8.20524 77.2961 9.06199C77.4579 9.91874 77.6145 10.8617 77.792 11.891L78.3454 15.1167C78.5385 16.2667 78.7108 17.2902 78.8674 18.2907C79.024 19.2912 79.1702 20.1825 79.2851 20.9817C79.3999 21.781 79.4991 22.3617 79.5617 22.7585H81.3263C81.9945 18.4 82.8802 13.1617 83.9835 7.04374V8.38924"
              fill="#2B333F"/>
        <path d="M90.0872 21.5335C90.025 21.5059 89.9721 21.4576 89.9359 21.3955C89.9025 21.3331 89.8896 21.26 89.8993 21.1885V20.97C89.8916 20.8897 89.8916 20.8087 89.8993 20.7285L90.2543 18.2905H94.5455C94.6447 18.9575 94.723 19.544 94.7752 20.0557C94.8274 20.5675 94.8535 20.9355 94.8535 21.1655C94.8535 21.3955 94.5873 21.6082 94.0548 21.6082H93.7833V22.7237H98.4505V21.6082H98.2312C98.1222 21.6094 98.0135 21.5959 97.9075 21.568C97.8327 21.5371 97.7675 21.4832 97.7196 21.4127C97.6833 21.3639 97.6534 21.3097 97.6308 21.2517C97.583 21.1127 97.5429 20.9706 97.5108 20.8262C97.4586 20.6135 97.3959 20.3087 97.3124 19.9062C97.2289 19.5037 97.1192 18.9402 96.9939 18.2272C96.7434 16.9124 96.4841 15.4787 96.2161 13.9262C95.9481 12.3737 95.7027 10.7982 95.48 9.19972C95.2399 7.61272 95.0154 6.05255 94.8066 4.51922C94.5977 2.98397 94.4307 1.56947 94.2845 0.292969H92.118C91.9979 1.18422 91.8465 2.28247 91.6534 3.58197C91.4602 4.88147 91.2357 6.24997 91.0321 7.68747C90.8285 9.12497 90.5832 10.5625 90.3483 12.0345C90.1133 13.5065 89.8889 14.8405 89.68 16.0595C89.4712 17.2785 89.2937 18.3595 89.158 19.2105C89.0223 20.0615 88.8918 20.6422 88.8187 20.901C88.7995 21.0942 88.7166 21.2729 88.5857 21.4033C88.4549 21.5336 88.2851 21.6066 88.1087 21.6082H87.8477V22.7295H90.9382V21.6197H90.6511C90.4625 21.6264 90.2741 21.6012 90.0925 21.545L90.0872 21.5335ZM90.6406 15.864C90.745 15.1855 90.8808 14.3862 91.0374 13.472C91.194 12.5577 91.3558 11.5745 91.5594 10.5452C91.763 9.51597 91.904 8.54422 92.0554 7.64147C92.2068 6.73872 92.3477 5.96822 92.4782 5.34147C92.6087 4.71472 92.6557 4.29497 92.687 4.13397L94.4777 17.221H90.4736C90.5049 17.014 90.5727 16.5655 90.6824 15.8812"
              fill="#2B333F"/>
        <path d="M111.197 21.6085C110.9 21.6257 110.606 21.5392 110.356 21.3612C110.098 21.1293 109.888 20.8391 109.74 20.5102C109.483 19.9736 109.26 19.4184 109.072 18.8485C108.884 18.2735 108.696 17.6985 108.524 17.089C108.351 16.4795 108.169 15.9045 108.002 15.318C107.835 14.7315 107.652 14.168 107.48 13.6332C107.254 13.0288 106.975 12.4509 106.644 11.9082C106.415 11.5138 106.133 11.1592 105.809 10.856C105.631 10.7038 105.447 10.5618 105.256 10.4305C105.077 10.3193 104.883 10.2415 104.681 10.2005C105.107 10.1842 105.529 10.1029 105.934 9.95899C106.276 9.82206 106.59 9.61308 106.858 9.34374C107.263 8.94421 107.575 8.44328 107.767 7.88324C107.997 7.10431 108.101 6.2869 108.075 5.46824C108.063 4.98549 108.028 4.50375 107.97 4.02499C107.933 3.66737 107.871 3.31357 107.782 2.96699C107.709 2.69529 107.606 2.43458 107.474 2.19074C107.34 1.94762 107.188 1.71687 107.02 1.50074C106.706 1.08752 106.302 0.768972 105.846 0.574994C105.335 0.373669 104.796 0.276251 104.253 0.287494H99.1426V1.38574H99.4088C99.6907 1.38574 99.863 1.47199 99.9309 1.65024C99.9987 1.82849 100.014 1.85149 100.051 1.95499C100.096 2.10422 100.126 2.2585 100.14 2.41499C100.14 2.61049 100.181 2.87499 100.192 3.21999C100.202 3.56499 100.234 4.02499 100.234 4.59999C100.234 5.17499 100.234 5.85349 100.234 6.67574C100.234 7.49799 100.234 8.51574 100.234 9.68299V16.5945C100.234 17.365 100.234 17.9745 100.234 18.4345C100.234 18.8945 100.234 19.2912 100.234 19.5845C100.234 19.8777 100.234 20.1595 100.202 20.3147C100.193 20.4985 100.17 20.6812 100.134 20.861C100.138 21.0726 100.069 21.278 99.9413 21.436C99.7643 21.5427 99.563 21.5906 99.3618 21.574H99.1635V22.6895H103.444V21.5855H103.225C103.045 21.6 102.864 21.5602 102.703 21.4705C102.56 21.3176 102.471 21.1138 102.452 20.8955C102.426 20.7057 102.4 20.4355 102.379 20.0962C102.358 19.757 102.337 19.2107 102.322 18.4575C102.306 17.7042 102.296 16.7037 102.291 15.4272C102.285 14.1507 102.291 12.4947 102.291 10.442C102.686 10.5038 103.068 10.6441 103.418 10.856C103.812 11.131 104.138 11.5081 104.368 11.9542C104.711 12.5844 105.021 13.2351 105.298 13.9035C105.668 14.8223 105.982 15.7674 106.237 16.7325C106.519 17.7445 106.832 18.722 107.182 19.6822C107.361 20.2035 107.58 20.7074 107.835 21.1887C108.021 21.5385 108.259 21.8514 108.539 22.1145C108.8 22.3325 109.099 22.489 109.416 22.5745C109.786 22.6674 110.165 22.7118 110.544 22.7067H112.006V21.5567L111.197 21.6085ZM103.627 9.16549H102.275V5.74999C102.275 4.89324 102.275 4.22624 102.317 3.72599C102.358 3.22574 102.374 2.86349 102.405 2.62774C102.443 2.40047 102.499 2.17729 102.572 1.96074C102.708 1.58124 102.907 1.38574 103.173 1.38574H103.617C103.976 1.37063 104.334 1.44944 104.661 1.61574C104.923 1.78198 105.143 2.01705 105.303 2.29999C105.391 2.4459 105.465 2.60209 105.522 2.76574C105.59 2.95031 105.638 3.14343 105.663 3.34074C105.709 3.61611 105.737 3.89474 105.746 4.17449V5.42799C105.758 6.03561 105.725 6.64325 105.647 7.24499C105.594 7.59497 105.477 7.92941 105.303 8.22824C105.124 8.52315 104.879 8.76268 104.593 8.92399C104.279 9.098 103.931 9.18672 103.58 9.18274"
              fill="#2B333F"/>
    </g>
    <defs>
        <clipPath id="clip0_1485_23262">
            <rect width="112" height="23" fill="white"/>
        </clipPath>
    </defs>
</svg>
