<?xml version="1.0" encoding="UTF-8" standalone="no"?>
<!-- Created with Inkscape (http://www.inkscape.org/) -->

<svg
   width="43.041901mm"
   height="40.284554mm"
   viewBox="0 0 43.041901 40.284554"
   version="1.1"
   id="svg934"
   inkscape:version="1.1 (c68e22c387, 2021-05-23)"
   sodipodi:docname="logo.svg"
   xmlns:inkscape="http://www.inkscape.org/namespaces/inkscape"
   xmlns:sodipodi="http://sodipodi.sourceforge.net/DTD/sodipodi-0.dtd"
   xmlns="http://www.w3.org/2000/svg"
   xmlns:svg="http://www.w3.org/2000/svg">
  <sodipodi:namedview
     id="namedview936"
     pagecolor="#ffffff"
     bordercolor="#666666"
     borderopacity="1.0"
     inkscape:pageshadow="2"
     inkscape:pageopacity="0.0"
     inkscape:pagecheckerboard="0"
     inkscape:document-units="mm"
     showgrid="false"
     inkscape:zoom="0.71446409"
     inkscape:cx="145.56365"
     inkscape:cy="442.28955"
     inkscape:window-width="1586"
     inkscape:window-height="1020"
     inkscape:window-x="2524"
     inkscape:window-y="186"
     inkscape:window-maximized="0"
     inkscape:current-layer="layer1" />
  <defs
     id="defs931" />
  <g
     inkscape:label="Capa 1"
     inkscape:groupmode="layer"
     id="layer1"
     transform="translate(-66.558438,-31.326699)">
    <path
       style="fill:#000000;stroke-width:0.0846667"
       d="m 67.150502,71.471862 c -0.484244,-0.25026 -0.592457,-0.58001 -0.592063,-1.80414 5e-4,-1.5464 0.135484,-1.88177 0.819252,-2.03541 0.676323,-0.15196 1.320144,0.18257 1.432343,0.74424 0.04677,0.23415 0.03068,0.27517 -0.10794,0.27517 -0.10787,0 -0.197488,-0.0956 -0.265261,-0.28306 -0.189373,-0.5237 -0.87742,-0.64688 -1.292844,-0.23146 l -0.247487,0.24749 v 1.15372 c 0,1.32947 0.08432,1.60331 0.530232,1.72193 0.310109,0.0825 0.711673,-0.004 0.902334,-0.1949 0.08191,-0.0819 0.140361,-0.34237 0.161736,-0.72066 l 0.03347,-0.5924 h -0.432887 c -0.334032,0 -0.432888,-0.0299 -0.432888,-0.13087 0,-0.10759 0.101638,-0.12641 0.5715,-0.10583 l 0.5715,0.025 0.02708,0.508 c 0.0523,0.98116 -0.24581,1.45353 -0.966461,1.53141 -0.30379,0.0328 -0.494842,0.004 -0.711617,-0.10827 z m 2.49279,0.034 c -0.02244,-0.0585 -0.03052,-0.96271 -0.01796,-2.0094 l 0.02284,-1.90309 0.77538,0.006 c 0.576212,0.005 0.831299,0.043 0.993072,0.14896 0.555023,0.36367 0.630457,1.2484 0.143536,1.68346 -0.145013,0.12957 -0.320209,0.23559 -0.389324,0.23559 -0.06912,0 -0.125664,0.0223 -0.125664,0.0496 0,0.0273 0.19542,0.43001 0.434267,0.895 0.312623,0.60861 0.408493,0.8712 0.342255,0.93744 -0.147552,0.14755 -0.275156,-0.0172 -0.730812,-0.94356 l -0.419956,-0.85379 h -0.363211 -0.36321 v 0.87994 c 0,0.7137 -0.0246,0.88939 -0.130205,0.92991 -0.07161,0.0275 -0.148565,0.002 -0.171005,-0.0564 z m 1.65183,-2.24119 c 0.112211,-0.0909 0.202039,-0.28317 0.230143,-0.4927 0.03804,-0.28362 0.0093,-0.38644 -0.164459,-0.58846 -0.188282,-0.21889 -0.274331,-0.24839 -0.81343,-0.27885 l -0.602874,-0.0341 v 0.77155 0.77156 h 0.583287 c 0.430651,0 0.631449,-0.039 0.767333,-0.14904 z m 1.782047,2.20207 c -0.522819,-0.26118 -0.592386,-0.52849 -0.592536,-2.27681 -1.1e-4,-1.23981 0.02277,-1.54489 0.118591,-1.58167 0.0653,-0.025 0.141498,-0.0228 0.169334,0.005 0.02784,0.0278 0.05061,0.73195 0.05061,1.5647 0,1.93646 0.06615,2.09835 0.857439,2.09835 0.243418,0 0.392671,-0.0571 0.543409,-0.20782 0.206098,-0.20609 0.207818,-0.22116 0.207818,-1.82033 0,-1.55607 0.0059,-1.61251 0.169334,-1.61251 0.163407,0 0.169333,0.0564 0.169333,1.61287 0,1.80855 -0.04477,1.99388 -0.538233,2.22804 -0.377156,0.17897 -0.784024,0.1755 -1.1551,-0.01 z m 2.643497,0.0753 c -0.08197,-0.0507 -0.101463,-0.51662 -0.08396,-2.00731 l 0.0228,-1.94133 0.465667,-0.027 c 0.724648,-0.0419 1.165125,0.0536 1.459559,0.3167 0.22722,0.20302 0.268529,0.3052 0.300155,0.74243 0.03822,0.52844 -0.07986,0.89209 -0.367091,1.13046 -0.08348,0.0693 -0.427839,0.13689 -0.831083,0.16317 l -0.68854,0.0449 -0.02476,0.76136 c -0.02557,0.78617 -0.06995,0.92958 -0.25274,0.81661 z m 1.596348,-2.12179 c 0.202634,-0.20263 0.247488,-0.3189 0.247488,-0.64151 0,-0.32262 -0.04485,-0.43888 -0.247488,-0.64152 -0.223365,-0.22336 -0.30176,-0.24748 -0.804333,-0.24748 h -0.556846 v 0.889 0.889 h 0.556846 c 0.502573,0 0.580968,-0.0241 0.804333,-0.24749 z m 1.898488,2.13855 c -0.249804,-0.0677 -0.47401,-0.28923 -0.604353,-0.59718 -0.16173,-0.38211 -0.158402,-2.38153 0.0046,-2.77168 0.169657,-0.40605 0.474505,-0.57839 1.023072,-0.57839 0.935714,0 1.143,0.35754 1.143,1.97152 0,1.16183 -0.07855,1.51565 -0.400036,1.80178 -0.173948,0.15482 -0.859504,0.25707 -1.166297,0.17395 z m 0.842873,-0.33499 c 0.299499,-0.11493 0.384793,-0.48851 0.384793,-1.68538 v -1.15372 l -0.247487,-0.24749 c -0.183227,-0.18322 -0.327812,-0.24748 -0.556846,-0.24748 -0.229034,0 -0.373619,0.0643 -0.556846,0.24748 l -0.247487,0.24749 v 1.15372 c 0,1.16401 0.08693,1.57222 0.358052,1.68131 0.156183,0.0628 0.705938,0.0654 0.865821,0.004 z m 2.713555,0.29591 c -0.02536,-0.0661 -0.03583,-0.97654 -0.02327,-2.02323 l 0.02284,-1.90309 0.786008,0.007 c 1.275672,0.011 1.448101,0.24707 1.448101,1.98291 0,1.70781 -0.152755,1.92496 -1.411494,2.00651 -0.625857,0.0405 -0.785007,0.027 -0.822187,-0.0699 z m 1.672179,-0.48129 c 0.180011,-0.18002 0.190059,-0.25696 0.190059,-1.45536 0,-1.1984 -0.01005,-1.27535 -0.190059,-1.45536 -0.151866,-0.15186 -0.309248,-0.19679 -0.783166,-0.22357 l -0.593108,-0.0335 v 1.71244 1.71244 l 0.593108,-0.0335 c 0.473918,-0.0268 0.6313,-0.0717 0.783166,-0.22357 z m 1.176009,0.49956 c -0.09115,-0.0563 -0.05507,-0.25836 0.184601,-1.03364 0.163845,-0.52999 0.436341,-1.41129 0.605547,-1.95845 0.248597,-0.80389 0.337919,-0.99483 0.465371,-0.99483 0.174219,0 0.193386,0.051 0.935496,2.48833 0.345456,1.1346 0.412234,1.44432 0.323259,1.49931 -0.148661,0.0919 -0.193245,0.031 -0.364975,-0.49821 l -0.145233,-0.44758 -0.766672,0.0242 -0.766673,0.0242 -0.121653,0.42334 c -0.142398,0.49552 -0.19583,0.56796 -0.349068,0.47325 z m 1.901271,-1.32816 c -0.02854,-0.0744 -0.173624,-0.55063 -0.322402,-1.05833 -0.148778,-0.5077 -0.294816,-0.9231 -0.324527,-0.9231 -0.02971,0 -0.179659,0.42863 -0.333217,0.9525 -0.153559,0.52388 -0.297121,1.00013 -0.319028,1.05834 -0.02985,0.0793 0.134461,0.10583 0.65562,0.10583 0.602226,0 0.688493,-0.0181 0.643554,-0.13524 z m 1.354391,1.34296 c -0.08368,-0.0837 -0.05739,-3.90287 0.02723,-3.95517 0.143863,-0.0889 0.334252,0.20484 1.082516,1.67019 l 0.744643,1.45826 0.04233,-1.54544 c 0.02328,-0.84999 0.07091,-1.54531 0.105833,-1.54517 0.03493,1.7e-4 0.1016,2.6e-4 0.148167,2.6e-4 0.05399,0 0.08467,0.70555 0.08467,1.94733 0,1.86196 -0.0071,1.94734 -0.162107,1.94734 -0.124018,0 -0.340438,-0.34237 -0.921079,-1.45709 -0.417434,-0.80139 -0.792161,-1.46819 -0.832726,-1.48178 -0.04064,-0.0136 -0.06259,0.63589 -0.0489,1.44661 0.02064,1.22149 0.0041,1.47928 -0.09756,1.51828 -0.06733,0.0258 -0.145189,0.0242 -0.173024,-0.004 z m 3.119512,-0.0469 c -0.02244,-0.0585 -0.03052,-0.96271 -0.01796,-2.0094 0.0195,-1.62504 0.04139,-1.90309 0.149838,-1.90309 0.108575,0 0.130294,0.28419 0.149704,1.95885 0.0198,1.70818 0.0058,1.96533 -0.109038,2.00941 -0.07246,0.0278 -0.150102,0.003 -0.172542,-0.0558 z m 2.783188,-0.0147 c -0.479821,-0.20869 -0.549598,-0.4772 -0.51921,-1.99793 0.02636,-1.31941 0.03125,-1.35044 0.246398,-1.56537 0.610923,-0.61028 1.9395,-0.29104 1.9395,0.46604 0,0.3204 -0.226688,0.35381 -0.304235,0.0448 -0.134171,-0.53458 -0.950896,-0.74089 -1.350613,-0.34118 -0.202285,0.20229 -0.207818,0.24184 -0.207818,1.48552 0,1.24368 0.0055,1.28323 0.207818,1.48551 0.310551,0.31056 0.818391,0.30889 1.138273,-0.004 0.169554,-0.1657 0.204507,-0.28696 0.211667,-0.7343 l 0.0086,-0.53581 -0.404245,-0.0423 c -0.585746,-0.0613 -0.493449,-0.20749 0.149478,-0.2367 l 0.5511,-0.025 -0.0012,0.70236 c -6.78e-4,0.38963 -0.04834,0.79662 -0.107011,0.91404 -0.220163,0.44062 -0.991408,0.63069 -1.558429,0.38408 z m 2.268976,0.0452 c -0.09471,-0.0585 -0.06092,-0.24798 0.184346,-1.03364 0.16517,-0.52909 0.438864,-1.40965 0.608209,-1.95681 0.422745,-1.3659 0.51195,-1.35806 0.963491,0.0847 0.874901,2.7954 0.884456,2.83177 0.763604,2.90646 -0.151403,0.0936 -0.195441,0.0343 -0.366669,-0.49346 l -0.144211,-0.44459 h -0.748391 -0.748392 l -0.144211,0.4445 c -0.171451,0.52846 -0.2152,0.58708 -0.367776,0.49278 z m 1.903933,-1.32652 c -0.02854,-0.0744 -0.173625,-0.55063 -0.322402,-1.05833 -0.148778,-0.5077 -0.292923,-0.9231 -0.320322,-0.9231 -0.0274,0 -0.177459,0.42863 -0.333468,0.9525 -0.156007,0.52388 -0.301461,1.00013 -0.323231,1.05834 -0.02965,0.0793 0.134843,0.10583 0.655869,0.10583 0.602225,0 0.688493,-0.0181 0.643554,-0.13524 z m 1.341241,1.29606 c -0.0224,-0.0585 -0.0305,-0.96271 -0.018,-2.0094 l 0.0228,-1.90309 0.45101,-0.0258 c 0.24806,-0.0142 0.65687,0.0169 0.90847,0.0691 0.61942,0.12859 0.79952,0.36126 0.79952,1.03293 0,0.44316 -0.0295,0.53257 -0.24748,0.75058 -0.13612,0.13612 -0.30757,0.24749 -0.381,0.24749 -0.20002,0 -0.17145,0.0942 0.29121,0.96006 0.36924,0.69106 0.40813,0.80866 0.29769,0.90032 -0.14287,0.11858 -0.14289,0.11855 -0.75211,-1.05605 -0.34885,-0.67258 -0.35384,-0.67752 -0.71115,-0.70337 l -0.35983,-0.026 v 0.88481 c 0,0.71807 -0.0245,0.89422 -0.13021,0.93477 -0.0716,0.0275 -0.14856,0.002 -0.171,-0.0564 z m 1.70842,-2.29072 c 0.28927,-0.3363 0.27115,-0.76077 -0.046,-1.07795 -0.22691,-0.22691 -0.29731,-0.24748 -0.84667,-0.24748 h -0.59918 v 0.74788 c 0,0.41134 0.0286,0.77686 0.0635,0.81226 0.0349,0.0354 0.32527,0.0498 0.64521,0.0319 0.50986,-0.0284 0.60659,-0.0614 0.78317,-0.26664 z m 1.66743,2.27598 c -0.4618,-0.20086 -0.53464,-0.46512 -0.53464,-1.93971 0,-1.28377 0.004,-1.31524 0.21785,-1.56894 0.57929,-0.68846 1.98348,-0.3964 1.98348,0.41254 0,0.12566 -0.0251,0.25354 -0.0557,0.28418 -0.0855,0.0855 -0.28296,-0.11387 -0.28296,-0.28571 0,-0.0841 -0.10477,-0.2355 -0.23283,-0.33655 -0.18568,-0.14653 -0.30932,-0.17519 -0.61049,-0.14154 -0.62911,0.0703 -0.68068,0.19764 -0.68068,1.68088 0,1.22963 0.006,1.27019 0.20782,1.47228 0.15701,0.15702 0.29795,0.20782 0.57649,0.20782 0.441,0 0.63502,-0.12442 0.7263,-0.46576 0.0924,-0.3454 0.35206,-0.39503 0.35206,-0.0673 0,0.67046 -0.90789,1.07781 -1.66669,0.74779 z m 2.3839,0.0211 c -0.0247,-0.0643 -0.0342,-0.64804 -0.0212,-1.29716 0.0211,-1.05254 0.0399,-1.18332 0.17408,-1.20906 0.13959,-0.0268 0.14872,0.0639 0.127,1.26199 -0.017,0.93999 -0.0522,1.30041 -0.1292,1.32602 -0.0582,0.0193 -0.12598,-0.0175 -0.15067,-0.0818 z m 0.93034,-0.003 c -0.0252,-0.0657 0.14808,-0.74519 0.38513,-1.50987 0.75562,-2.43743 0.7599,-2.44866 0.93392,-2.44866 0.12773,0 0.21059,0.16976 0.42357,0.86783 0.14562,0.47731 0.41805,1.35836 0.60539,1.95789 0.26907,0.86106 0.31733,1.10445 0.22974,1.15858 -0.16796,0.10381 -0.22275,0.0336 -0.37069,-0.47533 l -0.13583,-0.46724 -0.76974,0.0243 -0.76974,0.0243 -0.13813,0.45894 c -0.13807,0.45877 -0.30716,0.63458 -0.39362,0.40926 z m 1.96782,-1.27766 c -0.0239,-0.0622 -0.17083,-0.53829 -0.32656,-1.05792 -0.15573,-0.51963 -0.30558,-0.94498 -0.33301,-0.94521 -0.0274,-2.5e-4 -0.1755,0.42821 -0.32906,0.95209 -0.15356,0.52387 -0.29712,1.00012 -0.31903,1.05833 -0.0298,0.0793 0.13447,0.10584 0.65562,0.10584 0.5455,0 0.68609,-0.0244 0.65204,-0.11313 z m -2.87983,-1.55022 c -0.032,-0.032 -0.0582,-0.29951 -0.0582,-0.59443 0,-0.48377 0.017,-0.53622 0.17321,-0.53622 0.15968,0 0.17124,0.0441 0.14816,0.56475 -0.0229,0.51785 -0.11445,0.71461 -0.26316,0.5659 z m -19.489208,-5.19776 c -1.81158,-0.1833 -3.811702,-0.74104 -5.418667,-1.51101 -5.077426,-2.43283 -8.482835,-7.26088 -9.096776,-12.89705 -0.661972,-6.0771 2.391914,-12.21097 7.665402,-15.39631 4.178042,-2.52365 9.325222,-3.05184 13.792707,-1.41535 5.492182,2.01185 9.390442,6.59509 10.472422,12.31255 0.25246,1.33411 0.27282,4.27345 0.0383,5.53294 -0.77898,4.18378 -2.91613,7.69065 -6.208621,10.18777 -2.118716,1.6069 -4.965021,2.79277 -7.434787,3.0976 -1.098577,0.1356 -2.926736,0.17823 -3.81,0.0889 z m 2.83592,-0.59248 c 6.390869,-0.56561 11.758868,-4.93887 13.587448,-11.06956 0.4191,-1.40511 0.56093,-2.31322 0.61124,-3.91352 0.17415,-5.54046 -2.5202,-10.59343 -7.255608,-13.60715 -2.655073,-1.68974 -6.199141,-2.56645 -9.350359,-2.31302 -2.076321,0.16698 -3.760564,0.60739 -5.527058,1.44527 -4.651772,2.20643 -7.769225,6.32301 -8.717605,11.51157 -0.208728,1.14194 -0.204888,3.86964 0.0071,5.03425 0.922686,5.0693 4.081177,9.25593 8.628544,11.4373 2.5504,1.22342 5.248507,1.71982 8.016311,1.47486 z m -4.191841,-13.22015 c -0.02421,-0.0631 -0.03383,-1.10468 -0.02138,-2.31465 l 0.02264,-2.19995 0.931333,-0.0223 c 1.070118,-0.0257 1.348392,0.0785 1.594277,0.59663 0.211073,0.44481 0.20594,2.93927 -0.0069,3.35669 -0.272319,0.53405 -0.511871,0.6375 -1.550726,0.66967 -0.720443,0.0223 -0.934954,0.003 -0.96923,-0.0861 z m 1.926085,-0.57057 0.276502,-0.24698 0.0296,-1.15529 c 0.03482,-1.35895 -0.01283,-1.68602 -0.285363,-1.95855 -0.177434,-0.17743 -0.280476,-0.20221 -0.841056,-0.20221 h -0.638848 v 1.905 1.905 h 0.59133 c 0.533664,0 0.618296,-0.0241 0.867835,-0.24697 z m 1.707477,0.50969 c -0.444145,-0.27083 -0.542241,-0.66869 -0.540115,-2.1906 0.0021,-1.51656 0.112807,-1.93127 0.579949,-2.17283 0.374672,-0.19375 1.251932,-0.17544 1.594247,0.0333 0.456152,0.27813 0.71281,1.01708 0.395546,1.13883 -0.175527,0.0674 -0.370268,-0.092 -0.370268,-0.30295 0,-0.0896 -0.09352,-0.25634 -0.207819,-0.37064 -0.166218,-0.16622 -0.2941,-0.20782 -0.638848,-0.20782 -0.344748,0 -0.472631,0.0416 -0.638848,0.20782 -0.204895,0.2049 -0.207819,0.22877 -0.207819,1.69718 0,1.46842 0.0029,1.49229 0.207819,1.69719 0.166217,0.16621 0.2941,0.20781 0.638848,0.20781 0.344748,0 0.47263,-0.0416 0.638848,-0.20781 0.183924,-0.18393 0.207819,-0.28128 0.207819,-0.84667 v -0.63885 h -0.465667 c -0.409222,0 -0.465667,-0.0205 -0.465667,-0.16933 0,-0.15605 0.05645,-0.16934 0.719667,-0.16934 h 0.719667 l -0.0019,0.74084 c -0.0022,0.88322 -0.183131,1.37668 -0.57995,1.58188 -0.369421,0.19104 -1.251907,0.17545 -1.58555,-0.028 z"
       id="path1007" />
  </g>
</svg>
