<?xml version="1.0" encoding="UTF-8" standalone="no"?>
<svg
   width="215"
   height="40"
   viewBox="0 0 215 40"
   fill="none"
   version="1.1"
   id="svg24"
   sodipodi:docname="logo_lobito.svg"
   inkscape:version="1.1 (c68e22c387, 2021-05-23)"
   xmlns:inkscape="http://www.inkscape.org/namespaces/inkscape"
   xmlns:sodipodi="http://sodipodi.sourceforge.net/DTD/sodipodi-0.dtd"
   xmlns="http://www.w3.org/2000/svg"
   xmlns:svg="http://www.w3.org/2000/svg">
  <defs
     id="defs28" />
  <sodipodi:namedview
     id="namedview26"
     pagecolor="#ffffff"
     bordercolor="#666666"
     borderopacity="1.0"
     inkscape:pageshadow="2"
     inkscape:pageopacity="0.0"
     inkscape:pagecheckerboard="0"
     showgrid="false"
     inkscape:zoom="6.3023256"
     inkscape:cx="107.42066"
     inkscape:cy="20.071956"
     inkscape:window-width="2400"
     inkscape:window-height="1261"
     inkscape:window-x="2391"
     inkscape:window-y="-9"
     inkscape:window-maximized="1"
     inkscape:current-layer="svg24" />
  <path
     d="M16.8431 36.47C16.7641 36.6383 16.6381 36.7801 16.4802 36.8782C16.3224 36.9763 16.1395 37.0266 15.9536 37.0229H7.66831C7.4159 37.0358 7.16581 36.9693 6.95312 36.8328C6.74043 36.6962 6.57582 36.4965 6.48242 36.2617C6.21276 35.4897 6.08516 34.6753 6.10581 33.8578C6.04705 31.4272 6.00431 28.8791 5.9776 26.2135C5.9776 23.5372 5.93755 20.6766 5.93755 17.6317C5.93755 14.8913 5.93754 12.6638 5.9776 10.957C6.01767 9.25026 6.03368 7.89609 6.06573 6.90249C6.09778 5.90889 6.12183 5.19575 6.1699 4.74703C6.21798 4.2983 6.24202 3.94574 6.27408 3.72939C6.44235 2.85599 6.89107 2.41528 7.62825 2.41528H8.77409V0.492188H0V2.39925H0.592945C0.921384 2.36672 1.24946 2.46457 1.50643 2.67169C1.73539 2.97117 1.86181 3.33642 1.86699 3.71337C1.92575 4.21551 1.97382 4.7497 2.01122 5.31594C2.05929 5.87684 2.08335 6.62204 2.09937 7.53551C2.1154 8.44898 2.09936 9.63488 2.13943 11.0772C2.17949 12.5195 2.13943 14.3545 2.13943 16.5901V23.8978C2.13943 25.8903 2.13943 27.5437 2.13943 28.8578C2.13943 30.1719 2.13944 31.2056 2.09937 31.9748C2.05931 32.744 2.09936 33.353 2.03525 33.8338C1.97916 34.6351 1.93912 35.228 1.90707 35.7248C1.89976 36.1097 1.84319 36.4921 1.73878 36.8626C1.68694 37.0876 1.55254 37.2849 1.36217 37.4155C1.1381 37.5252 0.890305 37.5775 0.641021 37.5678H0V39.5149H18.9585V34.7072H17.1395C17.1798 35.3151 17.0783 35.924 16.8431 36.486"
     fill="white"
     id="path2"
     style="fill:#000000" />
  <path
     d="M24.5434 11.077C24.3256 10.4708 24.0177 9.90078 23.63 9.38631C23.2726 8.93527 22.8844 8.50957 22.4681 8.11226C21.8635 7.56365 21.1662 7.12683 20.4088 6.82219C19.6437 6.51975 18.8276 6.3674 18.0049 6.37347C17.1531 6.37164 16.31 6.54625 15.529 6.88629C14.7523 7.22332 14.0415 7.69538 13.4296 8.28053C13.0028 8.6795 12.6261 9.12884 12.3078 9.61868C11.9625 10.1732 11.693 10.7715 11.5065 11.3975C11.2583 12.1813 11.0813 12.9859 10.9776 13.8014C10.8389 14.9123 10.7747 16.0313 10.7853 17.1508C10.7764 18.1837 10.8245 19.2162 10.9295 20.2438C11.0095 20.9907 11.1598 21.7285 11.3783 22.4473C11.5489 23.0102 11.7913 23.5488 12.0994 24.0499C12.3766 24.4986 12.6817 24.9294 13.0129 25.34C13.6384 26.0532 14.4051 26.6289 15.2645 27.0307C16.1255 27.4293 17.0642 27.6318 18.0129 27.6236C18.9161 27.6303 19.8109 27.4503 20.6412 27.0948C21.4813 26.7234 22.2325 26.177 22.8447 25.4922C23.2202 25.0835 23.5607 24.644 23.8623 24.1781C24.2005 23.6567 24.4698 23.0938 24.6636 22.5034C24.895 21.7776 25.0586 21.0318 25.1524 20.2758C25.2732 19.2789 25.3294 18.2752 25.3207 17.271C25.3337 16.0369 25.2695 14.8031 25.1284 13.577C25.0299 12.7255 24.8392 11.8873 24.5595 11.077H24.5434ZM20.8094 20.8527C20.7614 21.7662 20.7053 22.4553 20.6412 23.0322C20.601 23.4282 20.5149 23.8181 20.3848 24.1941C20.2929 24.4151 20.1716 24.6226 20.0242 24.8111C19.7896 25.1137 19.4862 25.356 19.1392 25.5176C18.7922 25.6793 18.4115 25.7558 18.029 25.7406C17.6411 25.7432 17.2577 25.6583 16.9071 25.4922C16.5529 25.3226 16.2408 25.0763 15.9937 24.771C15.8462 24.584 15.7274 24.376 15.6411 24.154C15.5041 23.78 15.4178 23.3892 15.3847 22.9922C15.3153 22.458 15.2592 21.7288 15.2164 20.8047C15.1684 19.8912 15.1523 18.6813 15.1523 17.1828C15.1523 15.6844 15.1523 14.2742 15.2164 13.2886C15.2805 12.303 15.3126 11.5258 15.3847 10.9729C15.4166 10.5678 15.5028 10.169 15.6411 9.78695C15.7194 9.57562 15.8393 9.38216 15.9937 9.21804C16.2402 8.91836 16.5514 8.67836 16.9039 8.516C17.2563 8.35365 17.641 8.27315 18.029 8.28053C18.417 8.27256 18.8019 8.35279 19.1544 8.51519C19.507 8.67759 19.8181 8.91791 20.0642 9.21804C20.2021 9.39999 20.3152 9.59936 20.4008 9.81099C20.5484 10.1986 20.6349 10.6068 20.6572 11.0209C20.7133 11.5658 20.7614 12.327 20.8094 13.3046C20.8575 14.2822 20.8735 15.5723 20.8735 17.1828C20.8735 18.7934 20.8735 19.9313 20.8094 20.8527Z"
     fill="white"
     id="path4"
     style="fill:#000000" />
  <path
     d="M47.9812 28.0805C47.9812 26.6943 47.9411 25.5244 47.869 24.5628C47.8206 23.7339 47.6999 22.9108 47.5084 22.1029C47.3622 21.4855 47.1416 20.8882 46.8514 20.324C46.5734 19.7981 46.2432 19.3015 45.8658 18.8417C44.7603 17.5076 43.2089 16.6195 41.4988 16.3416C42.368 15.5681 43.0573 14.6136 43.518 13.5451C44.065 12.2812 44.3381 10.9158 44.3193 9.53869C44.3193 6.54989 43.7103 4.29026 42.4763 2.78384C41.8144 2.00419 40.9787 1.39071 40.0366 0.992702C39.0944 0.594691 38.0721 0.423248 37.0516 0.492151H27.2599V2.39921H27.6846C28.4458 2.39921 28.8865 2.59954 28.9987 2.99217C28.9987 3.1364 29.0708 3.46493 29.1269 3.98577C29.183 4.5066 29.2391 5.38802 29.2952 6.61399C29.3512 7.83996 29.3913 9.50664 29.4234 11.598C29.4554 13.6894 29.4234 16.3577 29.4234 19.6109C29.4234 22.4635 29.4234 24.894 29.4234 26.9026C29.4234 28.9112 29.394 30.5778 29.3352 31.9026C29.2951 33.2328 29.2311 34.3065 29.1429 35.0357C29.0946 35.6108 28.9899 36.1798 28.8304 36.7344C28.7608 37.0199 28.5863 37.2688 28.3416 37.4315C28.1292 37.5335 27.8962 37.5856 27.6605 37.5838H27.2358V39.5309H39.143C40.4125 39.5584 41.6704 39.2837 42.8129 38.7296C43.8989 38.1788 44.8466 37.3899 45.5853 36.4219C46.3957 35.3423 46.9939 34.1187 47.3482 32.8161C47.7742 31.2851 47.9819 29.7016 47.9652 28.1126L47.9812 28.0805ZM33.1894 13.481C33.1894 12.7919 33.1894 12.1108 33.1894 11.4458C33.1894 10.7807 33.1894 10.0996 33.2375 9.39446C33.2856 8.68933 33.2856 7.83996 33.3417 6.84637C33.3977 5.85277 33.4218 5.24379 33.4859 4.6268C33.534 4.16316 33.6334 3.7063 33.7824 3.26461C33.8717 2.99933 34.0359 2.76556 34.2551 2.59152C34.4461 2.46115 34.673 2.39389 34.9042 2.39921H35.7535C36.4033 2.3843 37.046 2.53603 37.6205 2.83993C38.1571 3.13897 38.6092 3.569 38.9347 4.08993C39.1041 4.34126 39.2465 4.60986 39.3593 4.89122C39.4847 5.24125 39.5838 5.60016 39.6558 5.96495C39.7502 6.47084 39.8144 6.98189 39.8481 7.49541C39.8882 8.08836 39.9122 8.79349 39.9122 9.61081C39.9362 10.6347 39.8503 11.6582 39.6558 12.6637C39.5301 13.3107 39.2558 13.9197 38.8545 14.4426C38.561 14.8861 38.1617 15.2496 37.6926 15.5003C37.2011 15.766 36.6486 15.8986 36.0901 15.8849H33.1654L33.1894 13.481ZM43.4619 30.7247C43.4058 31.5901 43.3257 32.3273 43.2295 32.9123C43.1554 33.4034 43.0347 33.8863 42.869 34.3546C42.7388 34.6978 42.5666 35.0234 42.3561 35.3241C41.9081 36.0624 41.2534 36.653 40.4731 37.0229C39.6441 37.4025 38.7405 37.5915 37.8289 37.5758H34.8561C34.1269 37.5758 33.6702 37.3194 33.5019 36.8145C33.2947 35.9682 33.2084 35.0969 33.2455 34.2264V22.7599C33.2455 21.1574 33.2455 19.4747 33.1654 17.7839H37.8529C38.6322 17.7478 39.4092 17.8932 40.1226 18.2089C40.836 18.5246 41.4662 19.0018 41.9635 19.6029C42.2394 19.9364 42.4735 20.3024 42.6606 20.6926C42.8834 21.1566 43.0476 21.6465 43.1494 22.151C43.295 22.8649 43.394 23.5876 43.4459 24.3144C43.518 25.1718 43.5501 26.2455 43.5501 27.5196C43.5501 28.7936 43.5501 29.8594 43.4699 30.7247"
     fill="white"
     id="path6"
     style="fill:#000000" />
  <path
     d="M57.34 37.5758H56.6268C56.3507 37.6023 56.0727 37.5495 55.8255 37.4236C55.6454 37.2599 55.5149 37.0489 55.4489 36.8146C55.3958 36.4053 55.3664 35.9933 55.3608 35.5806C55.3608 34.8755 55.3127 33.978 55.2967 32.9123C55.2807 31.8466 55.2967 30.6366 55.2566 29.3065C55.2166 27.9764 55.2566 26.6222 55.2166 25.244C55.1765 23.8658 55.2166 22.5116 55.2166 21.2375V13.3368C55.2166 11.7343 55.2166 10.1958 55.2566 8.75347C55.2967 7.31115 55.3127 6.06915 55.3448 5.02748C55.3343 4.41593 55.3772 3.80463 55.473 3.20054C55.5442 2.96162 55.6736 2.74412 55.8496 2.56752C56.0915 2.42646 56.3726 2.36743 56.6509 2.39925H57.364V0.492188H49.271V2.39925H49.9521C50.2302 2.37078 50.5102 2.4296 50.7534 2.56752C50.9291 2.73924 51.0491 2.95978 51.0979 3.20054C51.1943 3.80474 51.2425 4.41564 51.2422 5.02748C51.2822 6.06915 51.3143 7.31115 51.3303 8.75347C51.3463 10.1958 51.3303 11.7182 51.3303 13.3368C51.3303 14.9554 51.3303 16.4298 51.3303 17.784V21.2375C51.3303 22.5196 51.3303 23.8577 51.3303 25.244C51.3303 26.6302 51.3303 27.9844 51.3303 29.3065C51.3303 30.6286 51.2902 31.8386 51.2662 32.9123C51.2422 33.986 51.2101 34.8755 51.1781 35.5806C51.173 35.993 51.1462 36.4049 51.0979 36.8146C51.0537 37.0501 50.9325 37.2643 50.7534 37.4236C50.5052 37.5466 50.2281 37.5993 49.9521 37.5758H49.271V39.5229H57.364L57.34 37.5758Z"
     fill="white"
     id="path8"
     style="fill:#000000" />
  <path
     d="M65.0965 21.2375C65.0965 22.5196 65.0965 23.8577 65.0965 25.244C65.0965 26.6302 65.0965 27.9844 65.0484 29.3065C65.0003 30.6286 65.0484 31.8386 65.0083 32.9123C64.9683 33.986 64.9682 34.8755 64.9442 35.5806C64.9432 35.9935 64.9137 36.4058 64.8561 36.8146C64.8176 37.0504 64.6987 37.2656 64.5195 37.4236C64.271 37.5455 63.9942 37.5981 63.7182 37.5758H62.5724V39.5229H71.5068V37.5758H70.3609C70.0849 37.5993 69.8078 37.5466 69.5596 37.4236C69.3805 37.2643 69.2593 37.0501 69.2151 36.8146C69.1668 36.4049 69.14 35.993 69.1349 35.5806C69.1349 34.8755 69.0869 33.978 69.0708 32.9123C69.0548 31.8466 69.0708 30.6366 69.0308 29.3065C68.9907 27.9764 69.0308 26.6222 68.9907 25.244C68.9506 23.8658 68.9907 22.5116 68.9907 21.2375V13.3769C68.9907 11.7743 68.9907 10.3 69.0308 8.90571C69.0708 7.51147 69.0869 6.30153 69.1189 5.29992C69.1082 4.7126 69.1484 4.12546 69.2391 3.54509C69.2811 3.30644 69.4025 3.089 69.5837 2.9281C69.8318 2.80503 70.109 2.75237 70.385 2.77586H72.1237C72.925 2.77586 73.4699 2.9922 73.7263 3.41689C73.9936 4.07441 74.1087 4.78391 74.0629 5.49222H75.9299V0.492188H58.5259V5.46819H60.2887C60.2658 4.79786 60.3691 4.12919 60.5932 3.49702C60.7855 3.00022 61.082 2.75182 61.4826 2.75182H63.6862C63.9621 2.72955 64.2389 2.78215 64.4875 2.90406C64.6683 3.06411 64.7873 3.2824 64.824 3.52106C64.924 4.1004 64.9669 4.68815 64.9522 5.27588C64.9522 6.27749 65.0083 7.47942 65.0404 8.88167C65.0724 10.2839 65.0804 11.7663 65.0804 13.3529V21.2135L65.0965 21.2375Z"
     fill="white"
     id="path10"
     style="fill:#000000" />
  <path
     d="M96.6674 27.9763C96.7903 26.0692 96.849 23.6653 96.8437 20.7647C96.8437 17.7999 96.7849 15.2999 96.6674 13.2646C96.5897 11.5545 96.4131 9.85021 96.1386 8.16043C95.9681 7.02284 95.6559 5.91108 95.2091 4.85111C94.8562 4.06535 94.3771 3.34265 93.7908 2.71167C92.9384 1.84357 91.9115 1.16625 90.7779 0.724477C89.4247 0.213026 87.9854 -0.0318585 86.5391 0.00331685C85.1902 -0.027958 83.8473 0.19494 82.5808 0.660373C81.5097 1.06548 80.545 1.70947 79.7602 2.5434C79.1421 3.17644 78.6331 3.9075 78.2538 4.70688C77.7794 5.77576 77.4454 6.90158 77.2602 8.05626C76.9689 9.75244 76.7842 11.4652 76.7073 13.1845C76.5951 15.2144 76.5391 17.7278 76.5391 20.7246C76.5391 23.636 76.5951 26.0398 76.7073 27.9362C76.7857 29.5135 76.9623 31.0844 77.2362 32.6398C77.4067 33.6546 77.7225 34.6396 78.1737 35.5645C78.5257 36.2398 78.9738 36.8606 79.5038 37.4074C80.3846 38.2596 81.4399 38.9103 82.5968 39.3145C84.0455 39.795 85.5661 40.0226 87.092 39.9876C88.3628 40.0538 89.6334 39.8543 90.8227 39.4018C92.012 38.9492 93.0939 38.2536 93.9991 37.3594C94.5039 36.8185 94.9252 36.2055 95.2491 35.5404C95.6644 34.6391 95.9633 33.6887 96.1386 32.7119C96.4164 31.1571 96.5931 29.586 96.6674 28.0083V27.9763ZM92.3244 28.0724C92.2844 29.8753 92.2203 31.2776 92.1401 32.2632C92.0975 32.9792 91.9903 33.6899 91.8196 34.3866C91.7138 34.7561 91.5631 35.1114 91.3709 35.4443C90.92 36.2632 90.2553 36.9444 89.4478 37.4155C88.6128 37.8878 87.6667 38.1285 86.7074 38.1126C85.8274 38.1284 84.9565 37.9333 84.1673 37.5437C83.4426 37.1695 82.8082 36.6417 82.3083 35.9972C82.0517 35.6634 81.8514 35.2898 81.7154 34.8914C81.4841 34.1551 81.3416 33.3938 81.2907 32.6238C81.1705 31.5661 81.0904 30.1077 81.0343 28.2407C80.9782 26.3737 80.9461 23.8897 80.9461 20.7807C80.9461 17.4741 80.9755 14.8031 81.0343 12.7678C81.0904 10.7486 81.1705 9.16204 81.2907 8.00017C81.3464 7.14542 81.4942 6.29917 81.7314 5.47612C81.8838 5.0226 82.091 4.58937 82.3484 4.18604C82.8178 3.4659 83.4665 2.88034 84.2308 2.48696C84.9951 2.09357 85.8486 1.90591 86.7074 1.94243C87.5779 1.9191 88.4403 2.11472 89.2154 2.51135C89.9274 2.89644 90.5373 3.44584 90.9943 4.11393C91.2516 4.52468 91.4562 4.96619 91.6033 5.42803C91.8429 6.25632 91.9934 7.10786 92.052 7.96812C92.1642 9.12732 92.2496 10.7165 92.3084 12.7358C92.3672 14.755 92.3939 17.426 92.3885 20.7487C92.3885 23.7775 92.3886 26.1894 92.3244 27.9603"
     fill="white"
     id="path12"
     style="fill:#000000" />
  <path
     d="M120.922 29.2024V27.9043H120.586C120.338 27.9344 120.087 27.8808 119.873 27.7521C119.723 27.5511 119.644 27.3058 119.648 27.055C119.608 26.6783 119.576 26.3098 119.56 25.9492C119.544 25.5886 119.56 25.1479 119.52 24.611C119.48 24.0742 119.52 23.4091 119.52 22.5998V10.7648C119.52 10.2279 119.52 9.76316 119.52 9.37053C119.52 8.97789 119.52 8.63334 119.52 8.32083C119.52 8.00833 119.52 7.6798 119.52 7.34326H115.265V8.59328H115.714C115.926 8.57748 116.136 8.63091 116.315 8.74552C116.491 8.94122 116.608 9.18302 116.651 9.44264C116.692 9.61091 116.724 9.81123 116.756 10.0436C116.788 10.276 116.804 10.6285 116.82 11.1173C116.836 11.6061 116.82 12.2872 116.868 13.1366C116.916 13.9859 116.868 15.1238 116.868 16.5421C116.609 16.1146 116.235 15.7685 115.788 15.5432C115.342 15.318 114.842 15.2226 114.344 15.268C113.788 15.2717 113.24 15.4004 112.741 15.6446C112.175 15.939 111.691 16.3683 111.331 16.8946C110.867 17.583 110.528 18.3479 110.329 19.1543C110.05 20.2781 109.921 21.434 109.945 22.5918C109.928 23.603 110.052 24.6117 110.313 25.5886C110.52 26.3625 110.865 27.0927 111.331 27.7441C111.738 28.291 112.264 28.7377 112.869 29.0502C113.459 29.3549 114.113 29.5117 114.776 29.5069C115.345 29.4965 115.899 29.3302 116.379 29.0261C116.889 28.7196 117.34 28.3232 117.709 27.8562C117.886 28.329 118.231 28.7199 118.679 28.954C119.213 29.1545 119.783 29.2444 120.353 29.2184L120.922 29.2024ZM116.724 25.7408C116.731 26.354 116.559 26.9559 116.227 27.4716C116.082 27.7222 115.873 27.929 115.62 28.07C115.368 28.2111 115.082 28.2812 114.793 28.2729C114.515 28.2758 114.24 28.2126 113.991 28.0886C113.749 27.9716 113.535 27.8018 113.366 27.5918C113.269 27.4441 113.203 27.2776 113.174 27.103C113.102 26.8409 113.053 26.5727 113.03 26.3017C112.99 25.9492 112.966 25.5005 112.942 24.8915C112.917 24.2825 112.942 23.5293 112.942 22.5677C112.942 21.486 112.942 20.6206 112.982 19.9716C113.022 19.3225 113.054 18.8017 113.11 18.4251C113.141 18.1503 113.208 17.8809 113.31 17.6238C113.372 17.4692 113.459 17.3258 113.567 17.1991C113.706 16.9963 113.892 16.8304 114.11 16.716C114.328 16.6015 114.57 16.5418 114.817 16.5421C115.099 16.5272 115.381 16.5876 115.633 16.7171C115.885 16.8466 116.098 17.0406 116.251 17.2792C116.579 17.7668 116.752 18.3422 116.748 18.9299L116.724 25.7408Z"
     fill="white"
     id="path14"
     style="fill:#000000" />
  <path
     d="M128.743 27.4877C128.08 28.0139 127.248 28.2815 126.403 28.2409C126.155 28.2342 125.911 28.1716 125.691 28.0579C125.47 27.9441 125.278 27.7821 125.129 27.5838C125.021 27.454 124.929 27.3114 124.856 27.1591C124.751 26.9383 124.679 26.7035 124.64 26.462C124.575 26.0776 124.532 25.6896 124.512 25.3002C124.512 24.8194 124.512 24.2024 124.512 23.4412L128.374 21.7344C128.847 21.5261 129.231 21.3418 129.528 21.1735C129.783 21.0272 130.016 20.8436 130.217 20.6286C130.382 20.4587 130.501 20.2489 130.562 20.0197C130.62 19.773 130.647 19.5199 130.642 19.2665C130.686 18.7147 130.61 18.1599 130.417 17.6408C130.225 17.1218 129.921 16.6511 129.528 16.2616C128.66 15.5555 127.56 15.1983 126.443 15.26C125.814 15.2584 125.195 15.4125 124.64 15.7087C124.073 16.0025 123.567 16.4024 123.15 16.8866C122.617 17.5166 122.221 18.2507 121.988 19.0421C121.683 20.1616 121.546 21.3199 121.579 22.4796C121.563 23.3847 121.655 24.2884 121.852 25.1719C122.011 25.8652 122.282 26.5281 122.653 27.1351C123.054 27.8179 123.601 28.4035 124.255 28.8499C124.904 29.2783 125.666 29.5017 126.443 29.4909C128.58 29.4909 130.009 28.3157 130.73 25.9652L129.969 25.797C129.75 26.4656 129.337 27.0541 128.783 27.4877H128.743ZM124.544 19.7472C124.552 19.3078 124.584 18.869 124.64 18.4331C124.668 18.1858 124.719 17.9416 124.792 17.7039C124.849 17.5616 124.927 17.4291 125.025 17.3113C125.201 17.0873 125.418 16.8996 125.666 16.7584C125.906 16.6102 126.185 16.5351 126.467 16.5421C126.78 16.5028 127.097 16.5407 127.392 16.6525C127.687 16.7642 127.95 16.9464 128.158 17.1831C128.488 17.7648 128.641 18.4305 128.598 19.0982C128.619 19.4335 128.559 19.7689 128.422 20.0758C128.304 20.3002 128.102 20.4697 127.861 20.5485L124.536 21.9107C124.536 21.0213 124.536 20.3081 124.536 19.7472"
     fill="white"
     id="path16"
     style="fill:#000000" />
  <path
     d="M160.962 14.5388V16.7663C160.962 19.5335 160.962 21.8786 160.962 23.8017C160.962 25.7247 160.922 27.4074 160.898 28.8658C160.874 30.3241 160.834 31.6302 160.786 32.7841C160.738 33.9379 160.698 35.1319 160.642 36.3418C160.654 36.5246 160.628 36.7079 160.566 36.8803C160.504 37.0526 160.407 37.2103 160.281 37.3434C159.921 37.5306 159.515 37.6113 159.111 37.5758H158.735V39.5229H166.748V37.5758H166.275C165.915 37.5909 165.555 37.5337 165.217 37.4075C164.969 37.2873 164.808 36.9348 164.752 36.3418C164.696 36.0053 164.656 35.6287 164.624 35.22C164.592 34.8114 164.568 34.3065 164.544 33.6976C164.52 33.0886 164.496 32.3514 164.48 31.494C164.464 30.6366 164.44 29.5629 164.416 28.2889C164.392 27.0148 164.368 25.5084 164.368 23.7536V17.6157C164.368 14.8967 164.368 12.7145 164.368 11.0692C164.368 9.41052 164.408 8.09641 164.456 7.12685C164.504 6.15729 164.552 5.4121 164.624 4.92331C164.689 4.4591 164.78 3.99895 164.897 3.54509C164.993 3.17911 165.2 2.85178 165.49 2.60759C165.748 2.46074 166.042 2.38861 166.339 2.39925H166.724V0.492188H161.251C160.567 4.76572 159.945 8.50507 159.384 11.7102C158.815 14.9154 158.302 17.768 157.781 20.268C157.26 22.768 156.836 25.0036 156.387 26.9667C155.938 28.9299 155.498 30.7889 155.073 32.5758C154.736 30.7408 154.384 28.7937 154.031 26.7344L152.973 20.5244C152.621 18.441 152.292 16.4058 151.98 14.3945C151.667 12.3833 151.387 10.5083 151.13 8.73744C150.874 6.9666 150.65 5.38806 150.457 3.96978C150.265 2.5515 150.113 1.41367 150.025 0.540263H143.374V2.44733H143.719C144.048 2.41144 144.38 2.48463 144.664 2.65567C144.852 2.8397 145.004 3.05707 145.113 3.2967C145.224 3.63269 145.302 3.97895 145.345 4.33036C145.438 5.04818 145.494 5.77028 145.513 6.49383C145.562 7.47141 145.594 8.78552 145.626 10.4362C145.658 12.0868 145.666 14.2263 145.666 16.8465C145.666 20.2706 145.666 23.0271 145.666 25.1158C145.666 27.2071 145.666 28.8898 145.602 30.1799C145.538 31.47 145.554 32.4636 145.537 33.1847C145.521 33.9059 145.537 34.587 145.473 35.2441C145.409 35.9011 145.369 36.4139 145.329 36.6383C145.296 36.8271 145.245 37.0122 145.177 37.1912C145.041 37.4476 144.576 37.5678 143.783 37.5678H143.398V39.563H149.672V37.6159H149.159C148.783 37.6414 148.407 37.5754 148.062 37.4236C147.837 37.2953 147.709 36.9668 147.685 36.43C147.685 36.0614 147.621 35.4123 147.597 34.4828C147.573 33.5533 147.541 32.4636 147.509 31.2777C147.477 30.0918 147.453 28.7376 147.429 27.3594C147.405 25.9812 147.38 24.651 147.364 23.3529C147.348 22.0548 147.364 20.9491 147.316 19.9394C147.268 18.9298 147.316 18.1766 147.316 17.6958C147.316 16.8465 147.316 15.949 147.316 15.0035C147.316 14.058 147.316 13.1445 147.38 12.2711C147.557 13.1205 147.781 14.2824 148.086 15.7647C148.39 17.2471 148.695 18.8898 149.039 20.6846C149.384 22.4795 149.728 24.3385 150.097 26.2937C150.465 28.2488 150.802 30.0677 151.114 31.8065C151.427 33.5453 151.699 35.0998 151.916 36.486C152.132 37.8723 152.332 38.8899 152.445 39.579H155.834C157.105 32.0042 158.801 22.8935 160.922 12.2471C160.922 13.0484 160.922 13.8497 160.922 14.5949"
     fill="white"
     id="path18"
     style="fill:#000000" />
  <path
     d="M172.557 37.4475C172.439 37.4034 172.34 37.321 172.274 37.2135C172.209 37.1059 172.182 36.9795 172.197 36.8545V36.4699C172.197 36.3274 172.21 36.1853 172.237 36.0452L172.918 31.8064H181.139C181.331 32.9683 181.484 33.9939 181.58 34.8834C181.676 35.7728 181.732 36.4138 181.732 36.8145C181.732 37.2151 181.219 37.5757 180.202 37.5757H179.681V39.5228H188.623V37.5757H188.198C187.991 37.583 187.783 37.5614 187.581 37.5116C187.438 37.4572 187.312 37.3627 187.221 37.2392C187.151 37.1548 187.094 37.0602 187.053 36.9587C186.959 36.7182 186.882 36.472 186.82 36.2215C186.724 35.8529 186.596 35.3161 186.436 34.6189C186.275 33.9218 186.075 32.9442 185.827 31.7022C185.346 29.4106 184.849 26.9159 184.336 24.2182C183.823 21.5205 183.34 18.7828 182.886 16.005C182.427 13.2539 181.999 10.5429 181.604 7.87194C181.203 5.19564 180.883 2.74369 180.626 0.516113H176.476C176.251 2.07061 175.955 3.97768 175.586 6.23731C175.218 8.49694 174.785 10.8768 174.4 13.3768C174.016 15.8768 173.535 18.4009 173.086 20.9409C172.637 23.481 172.205 25.8208 171.812 27.9522C171.419 30.0836 171.067 31.9106 170.77 33.425C170.474 34.9394 170.258 35.917 170.121 36.3657C169.921 37.167 169.464 37.5997 168.759 37.5997H168.254V39.5469H174.184V37.5997H173.631C173.269 37.6117 172.907 37.5685 172.557 37.4715V37.4475ZM173.615 27.5916C173.823 26.4057 174.077 25.0168 174.376 23.4249C174.673 21.8224 174.993 20.1316 175.33 18.3368C175.666 16.5419 175.987 14.8592 176.283 13.2886C176.58 11.7181 176.836 10.38 177.085 9.28221C177.333 8.18444 177.429 7.46328 177.485 7.18283L180.923 29.9394H173.246C173.311 29.5788 173.439 28.8016 173.655 27.6077"
     fill="white"
     id="path20"
     style="fill:#000000" />
  <path
     d="M212.966 37.5756C212.4 37.6095 211.838 37.4606 211.364 37.1509C210.867 36.7467 210.463 36.2413 210.178 35.6685C209.686 34.738 209.26 33.7741 208.904 32.7839C208.535 31.7662 208.182 30.7406 207.846 29.715C207.509 28.6893 207.173 27.6556 206.852 26.638C206.532 25.6204 206.179 24.6508 205.811 23.7133C205.38 22.6596 204.843 21.6527 204.208 20.7085C203.768 20.0228 203.228 19.407 202.605 18.8815C202.268 18.6142 201.915 18.368 201.548 18.1443C201.206 17.9497 200.836 17.8117 200.45 17.7357C201.267 17.7125 202.077 17.5722 202.854 17.319C203.505 17.0811 204.104 16.7192 204.617 16.2533C205.391 15.5579 205.987 14.6868 206.356 13.7132C206.8 12.3598 207.001 10.9381 206.948 9.51448C206.953 8.66606 206.91 7.81803 206.82 6.97439C206.749 6.35155 206.628 5.73532 206.46 5.13143C206.323 4.65566 206.124 4.20025 205.867 3.77725C205.606 3.36572 205.314 2.97464 204.993 2.60737C204.39 1.89483 203.619 1.34399 202.75 1.0048C201.772 0.650304 200.737 0.479171 199.697 0.499985H189.913V2.40705H190.418C190.955 2.40705 191.291 2.55929 191.436 2.8718C191.523 3.0437 191.6 3.22025 191.668 3.40065C191.757 3.65986 191.813 3.92896 191.836 4.20194C191.876 4.53848 191.916 5.00322 191.94 5.60419C191.964 6.20516 191.996 6.97439 192.004 7.95196C192.012 8.92953 192.004 10.1315 192.053 11.5578C192.101 12.9841 192.053 14.7629 192.053 16.7902V23.8976C192.053 25.8608 192.053 27.5114 192.053 28.8576C192.053 30.2037 192.053 31.2614 192.004 32.0627C191.956 32.864 192.004 33.5531 191.964 34.082C191.924 34.6108 191.964 35.0275 191.9 35.348C191.878 35.6683 191.835 35.9868 191.772 36.3015C191.777 36.6709 191.643 37.0286 191.395 37.3032C191.059 37.4901 190.673 37.571 190.29 37.5355H189.913V39.4826H198.11V37.5355H197.686C197.351 37.5613 197.016 37.4948 196.716 37.3432C196.436 37.066 196.267 36.6951 196.243 36.3015C196.19 35.965 196.142 35.5002 196.099 34.9073C196.059 34.3143 196.019 33.3688 195.995 32.0627C195.971 30.7566 195.939 29.0098 195.931 26.7902C195.923 24.5707 195.931 21.686 195.931 18.1203C196.69 18.2262 197.423 18.4706 198.094 18.8415C198.846 19.3205 199.47 19.9749 199.913 20.7485C200.564 21.8467 201.158 22.9781 201.692 24.138C202.399 25.737 203.002 27.3805 203.495 29.0579C204.029 30.8154 204.63 32.5248 205.298 34.1861C205.644 35.0942 206.062 35.9731 206.548 36.8144C206.906 37.421 207.364 37.9628 207.902 38.4169C208.396 38.8008 208.968 39.074 209.577 39.2182C210.286 39.3812 211.012 39.4592 211.74 39.4506H214.537V37.5035L212.966 37.5756ZM198.471 15.9408H195.883C195.883 13.4568 195.883 11.4723 195.883 9.98724C195.883 8.50485 195.923 7.33497 195.963 6.46958C196.003 5.60419 196.067 4.97117 196.131 4.56252C196.198 4.1653 196.305 3.77597 196.452 3.40065C196.708 2.74359 197.085 2.42308 197.597 2.42308H198.447C199.132 2.39615 199.813 2.53352 200.434 2.82372C200.952 3.09813 201.391 3.50096 201.708 3.9936C201.876 4.24608 202.018 4.51448 202.133 4.79489C202.258 5.11828 202.35 5.454 202.405 5.7965C202.486 6.27907 202.536 6.76609 202.557 7.25485C202.557 7.83177 202.557 8.56094 202.557 9.44236C202.581 10.4982 202.517 11.5543 202.365 12.5994C202.268 13.2106 202.044 13.7947 201.708 14.3142C201.365 14.8246 200.9 15.2406 200.354 15.5241C199.749 15.8246 199.082 15.9757 198.407 15.9648"
     fill="white"
     id="path22"
     style="fill:#000000" />
</svg>
