<svg width="301" height="28" viewBox="0 0 301 28" fill="none" xmlns="http://www.w3.org/2000/svg">
<g clip-path="url(#clip0_1531_54582)">
<path d="M51.7016 27.618L51.6599 4.40275L40.3058 24.0139H39.3405L27.9863 4.47914V27.618H26.0488V0.486084H27.7155L39.8405 21.4514L51.9724 0.486084H53.5974L53.6391 27.618H51.7016Z" fill="#000"/>
<path d="M59.9238 14.0555C59.9238 6.18747 65.9238 0.298584 74.028 0.298584C82.1322 0.298584 88.1322 6.15275 88.1322 14.0555C88.1322 21.9583 82.0697 27.8264 74.0072 27.8264C65.9447 27.8264 59.9238 21.9236 59.9238 14.0555ZM86.1183 14.0555C86.1183 7.19442 80.9238 2.11803 74.028 2.11803C67.1322 2.11803 61.896 7.19442 61.896 14.0555C61.896 20.9166 67.0905 25.993 74.028 25.993C80.9655 25.993 86.1183 20.9166 86.1183 14.0555Z" fill="#000"/>
<path d="M103.049 14.25L96.9655 20.4861V27.618H94.9863V0.486084H96.9655V17.9305L113.896 0.486084H116.299L104.368 12.8125L117.118 27.618H114.715L103.049 14.25Z" fill="#000"/>
<path d="M140.965 25.8333V27.618H122.243V0.486084H140.382V2.27081H124.222V12.9722H138.674V14.7083H124.222V25.8333H140.965Z" fill="#000"/>
<path d="M204.84 14.0763C204.84 6.20822 210.847 0.319336 218.951 0.319336C227.056 0.319336 233.056 6.16656 233.056 14.0763C233.056 21.986 227.014 27.8263 218.951 27.8263C210.889 27.8263 204.84 21.9374 204.84 14.0693V14.0763ZM231.042 14.0693C231.042 7.20823 225.847 2.13184 218.951 2.13184C212.056 2.13184 206.82 7.20823 206.82 14.0693C206.82 20.9304 212.007 26.0138 218.951 26.0138C225.896 26.0138 231.042 20.9304 231.042 14.0763" fill="#000"/>
<path d="M237.333 14.0763C237.333 6.20822 243.34 0.319336 251.445 0.319336C259.549 0.319336 265.549 6.16656 265.549 14.0763C265.549 21.986 259.507 27.8263 251.445 27.8263C243.382 27.8263 237.333 21.9374 237.333 14.0693V14.0763ZM263.535 14.0693C263.535 7.20823 258.34 2.13184 251.445 2.13184C244.549 2.13184 239.313 7.20823 239.313 14.0693C239.313 20.9304 244.507 26.0068 251.445 26.0068C258.382 26.0068 263.535 20.9235 263.535 14.0693Z" fill="#000"/>
<path d="M298.077 27.6388L298.042 4.4235L286.688 24.0346H285.722L274.361 4.49989V27.6388H272.424V0.506836H274.09L286.222 21.4721L298.354 0.506836H299.979L300.014 27.6388H298.077Z" fill="#000"/>
<path d="M18.6886 23.7648V23.7568H18.6807L18.6886 23.7648Z" fill="#000"/>
<path d="M147.424 0.423584H158.16C166.764 0.423584 172.577 6.08331 172.577 13.9861C172.577 21.8889 166.764 27.5486 158.16 27.5486H147.424V0.423584ZM157.993 25.743C165.632 25.743 170.59 20.8819 170.59 13.9375C170.59 6.99303 165.667 2.13192 157.993 2.13192H149.396V25.743H157.993Z" fill="#000"/>
<path d="M0 24.7362L1.75 20.8056C4.34654 22.7418 7.49715 23.7912 10.7361 23.7987C14.9722 23.7987 16.7639 22.2848 16.7639 20.264C16.7639 14.3889 0.583336 18.2431 0.583336 8.132C0.583336 3.73617 4.05555 5.67086e-05 11.5486 5.67086e-05C14.7226 -0.0454268 17.8473 0.788613 20.5764 2.40978L18.9861 6.34033C16.7222 4.99501 14.1469 4.26263 11.5139 4.21533C7.3125 4.21533 5.60417 5.84728 5.60417 7.90979C5.60417 13.7015 21.7431 9.93061 21.7431 19.9237C21.7431 24.2848 18.2014 28.014 10.7361 28.014C6.49306 28.014 2.25694 26.6945 0 24.7501" fill="#000"/>
<path d="M195.868 27.6111L190.313 19.6389C189.964 19.6736 189.614 19.6875 189.264 19.6806H183.118V27.6111H178.062V0.388916H189.264C196.417 0.388916 200.854 4.04864 200.854 10.1111C200.937 11.9755 200.417 13.817 199.373 15.3638C198.329 16.9106 196.815 18.0807 195.056 18.7014L201.306 27.6459L195.868 27.6111ZM189.021 4.69448H183.111V15.5486H189.021C193.458 15.5486 195.75 13.5209 195.75 10.1042C195.75 6.68753 193.458 4.69448 189.021 4.69448Z" fill="#000"/>
</g>
<defs>
<clipPath id="clip0_1531_54582">
<rect width="300.014" height="28" fill="#000"/>
</clipPath>
</defs>
</svg>
