<?xml version="1.0" encoding="UTF-8" standalone="no"?>
<!-- Created with Inkscape (http://www.inkscape.org/) -->

<svg
   width="160.1611mm"
   height="25.573002mm"
   viewBox="0 0 160.1611 25.573002"
   version="1.1"
   id="svg5"
   inkscape:version="1.1 (c68e22c387, 2021-05-23)"
   sodipodi:docname="tragabuches.svg"
   xmlns:inkscape="http://www.inkscape.org/namespaces/inkscape"
   xmlns:sodipodi="http://sodipodi.sourceforge.net/DTD/sodipodi-0.dtd"
   xmlns="http://www.w3.org/2000/svg"
   xmlns:svg="http://www.w3.org/2000/svg">
  <sodipodi:namedview
     id="namedview7"
     pagecolor="#ffffff"
     bordercolor="#666666"
     borderopacity="1.0"
     inkscape:pageshadow="2"
     inkscape:pageopacity="0.0"
     inkscape:pagecheckerboard="0"
     inkscape:document-units="mm"
     showgrid="false"
     inkscape:zoom="0.71446409"
     inkscape:cx="363.90912"
     inkscape:cy="440.8899"
     inkscape:window-width="1586"
     inkscape:window-height="1020"
     inkscape:window-x="2670"
     inkscape:window-y="80"
     inkscape:window-maximized="0"
     inkscape:current-layer="layer1" />
  <defs
     id="defs2" />
  <g
     inkscape:label="Capa 1"
     inkscape:groupmode="layer"
     id="layer1"
     transform="translate(-8.7972543,-31.74229)">
    <path
       style="fill:#000000;stroke-width:0.352778"
       d="m 13.383365,54.513891 c 0,-1.44376 0.15875,-2.72313 0.352778,-2.84305 0.209944,-0.12975 0.352778,0.29032 0.352778,1.03752 0,1.25286 0.0034,1.25554 1.5875,1.25554 1.521624,0 1.587499,-0.043 1.587499,-1.03751 0,-0.57064 0.15875,-1.13563 0.352778,-1.25555 0.22412,-0.13851 0.352778,0.82643 0.352778,2.64584 0,1.81941 -0.128658,2.78434 -0.352778,2.64583 -0.194028,-0.11991 -0.352778,-0.68491 -0.352778,-1.25554 0,-0.99446 -0.06588,-1.03751 -1.587499,-1.03751 -1.579101,0 -1.5875,0.007 -1.5875,1.23472 0,0.67909 -0.15875,1.23472 -0.352778,1.23472 -0.203579,0 -0.352778,-1.11019 -0.352778,-2.62501 z m 7.16886,2.20565 c -1.854953,-0.89679 -1.836999,-3.48338 0.03268,-4.70844 2.677026,-1.75405 5.50114,1.98219 3.221437,4.26189 -0.914457,0.91446 -1.982995,1.06109 -3.25412,0.44655 z m 3.077296,-0.83416 c 0.67854,-0.81759 0.564068,-2.64698 -0.20062,-3.20614 -2.2017,-1.60992 -4.922288,1.10828 -3.111693,3.10897 0.717702,0.79305 2.686842,0.85082 3.312313,0.0972 z m 2.365649,1.05118 c -0.362814,-0.36754 -0.335969,-5.00357 0.03028,-5.22992 0.162176,-0.10024 0.995614,0.75714 1.852083,1.90527 0.856469,1.14813 1.668703,2.09389 1.804966,2.10169 0.136262,0.008 0.304112,-0.978 0.372999,-2.19067 0.113619,-2.00012 0.131561,-1.9306 0.193222,0.74875 0.07749,3.36724 0.0099,3.37725 -2.299644,0.34057 l -1.336548,-1.75733 -0.176389,2.17483 c -0.09701,1.19616 -0.295451,2.05423 -0.440972,1.90681 z m 6.085416,-2.61988 v -2.82222 h 1.763889 c 0.970139,0 1.763889,0.15875 1.763889,0.35277 0,0.19403 -0.714375,0.35278 -1.5875,0.35278 -1.458148,0 -1.5875,0.0719 -1.5875,0.88195 0,0.79375 0.141111,0.88194 1.411111,0.88194 0.776111,0 1.411111,0.15875 1.411111,0.35278 0,0.19403 -0.635,0.35278 -1.411111,0.35278 -1.27,0 -1.411111,0.0882 -1.411111,0.88194 0,0.81008 0.129352,0.88194 1.5875,0.88194 0.873125,0 1.5875,0.15875 1.5875,0.35278 0,0.19403 -0.79375,0.35278 -1.763889,0.35278 h -1.763889 z m 5.027083,2.58858 c -0.881815,-0.35582 -0.408029,-0.6483 1.050163,-0.6483 1.104439,0 1.521894,-0.1511 1.606942,-0.58164 0.08172,-0.41369 -0.323491,-0.72713 -1.403396,-1.08554 -1.211756,-0.40217 -1.540367,-0.68949 -1.627629,-1.42311 -0.136499,-1.14756 0.948303,-1.8152 2.423084,-1.49128 1.469765,0.32281 1.290576,0.76525 -0.237673,0.58684 -2.233363,-0.26074 -2.328783,1.3964 -0.108486,1.88406 0.57029,0.12525 1.206974,0.54554 1.414853,0.93396 0.719792,1.34495 -1.331671,2.54575 -3.117858,1.82501 z m 5.626346,-2.14761 -0.0701,-2.55764 h -1.058333 c -0.582084,0 -1.058334,-0.15875 -1.058334,-0.35278 0,-0.19598 0.940741,-0.35277 2.116667,-0.35277 1.175926,0 2.116666,0.15679 2.116666,0.35277 0,0.19403 -0.389921,0.35278 -0.866489,0.35278 -0.829261,0 -0.87172,0.10989 -0.988237,2.55764 l -0.121748,2.55764 z m 3.816319,1.92758 c -2.966197,-1.50079 -0.604203,-6.10872 2.477068,-4.83241 1.927172,0.79826 2.357232,2.94744 0.884495,4.42017 -0.955506,0.95551 -2.027912,1.08702 -3.361563,0.41224 z m 2.967552,-0.80625 c 0.712978,-0.71298 0.712978,-2.41163 0,-3.1246 -1.281507,-1.28151 -3.678967,-0.2442 -3.678967,1.59178 0,1.25823 0.840662,2.08718 2.116666,2.08718 0.554366,0 1.257402,-0.24946 1.562301,-0.55436 z m 4.346727,0.87889 c -0.763383,-0.44463 -0.799726,-1.4979 -0.07251,-2.10143 0.368353,-0.30571 0.475294,-0.76887 0.330133,-1.42978 -0.165143,-0.75189 -0.05249,-1.06441 0.487927,-1.35363 0.386453,-0.20682 0.952267,-0.28025 1.257366,-0.16318 0.738738,0.28348 0.710512,1.766 -0.0391,2.05366 -0.531347,0.20389 -0.511571,0.30993 0.188002,1.00788 0.67546,0.67389 0.832404,0.70802 1.153594,0.25084 0.296598,-0.42217 0.33661,-0.36875 0.197894,0.26424 -0.09563,0.43636 -0.03002,0.8823 0.145785,0.99095 0.175814,0.10866 0.319659,0.36638 0.319659,0.57272 0,0.26469 -0.133332,0.2645 -0.452804,-6.4e-4 -0.287045,-0.23822 -0.642183,-0.25601 -0.970139,-0.0486 -0.67443,0.42655 -1.77141,0.408 -2.545806,-0.043 z m 2.529631,-0.54613 c 0.08161,-0.0737 -0.222013,-0.52822 -0.674715,-1.0101 -0.629225,-0.66978 -0.934233,-0.78392 -1.29491,-0.48458 -0.594646,0.49351 -0.613301,1.60153 -0.03083,1.8319 0.417403,0.16508 1.679783,-0.0477 2.000465,-0.33722 z m -0.391149,-3.39842 c 0.08153,-0.42333 -0.108451,-0.61331 -0.613311,-0.61331 -0.504857,0 -0.731421,0.22656 -0.731421,0.73142 0,0.90405 1.167634,0.80149 1.344732,-0.11811 z m 4.159542,3.62002 c 0.267734,-1.01698 2.190846,-4.93888 2.421795,-4.93888 0.14224,0 0.917469,1.60687 2.170003,4.49791 0.273202,0.63059 0.346548,1.14653 0.16299,1.14653 -0.183557,0 -0.434509,-0.3175 -0.557674,-0.70556 -0.338244,-1.0657 -3.04679,-1.00361 -3.847313,0.0882 l -0.581981,0.79375 z m 3.102974,-2.55763 c -0.3207,-0.63059 -0.63057,-1.20097 -0.688601,-1.26751 -0.111514,-0.12786 -1.21587,1.88865 -1.21587,2.22013 0,0.10664 0.559703,0.1939 1.243781,0.1939 h 1.243782 z m 2.69198,0.35277 0.01034,-2.91041 0.959795,1.05943 c 0.52789,0.58269 1.394601,1.61457 1.926026,2.29306 l 0.966226,1.23362 0.0039,-2.00765 c 0.0022,-1.10421 0.162666,-2.10577 0.356694,-2.22569 0.224038,-0.13846 0.352777,0.81949 0.352777,2.62502 0,1.56367 -0.119062,2.83588 -0.264583,2.82712 -0.145521,-0.009 -1.018646,-0.98342 -1.940278,-2.16592 l -1.675694,-2.15 v 2.16592 c 0,1.20876 -0.155899,2.16592 -0.352778,2.16592 -0.207514,0 -0.348519,-1.19843 -0.342437,-2.91042 z m 6.134039,2.43229 c -0.100912,-0.26297 -0.135615,-1.49328 -0.07712,-2.73403 l 0.106352,-2.2559 1.761712,0.0645 c 1.417991,0.0519 1.916998,0.24503 2.557639,0.98981 0.437759,0.50893 0.795927,1.14713 0.795927,1.41822 0,0.95842 -0.794233,2.21714 -1.642999,2.60386 -1.199035,0.54632 -3.278396,0.49498 -3.50151,-0.0865 z m 3.793814,-0.81127 c 1.532019,-1.38646 0.366872,-3.64949 -1.878982,-3.64949 h -1.356434 v 2.11667 2.11666 h 1.295139 c 0.712325,0 1.58545,-0.26272 1.940277,-0.58384 z m 1.702601,1.04564 c -0.0018,-0.5874 2.256659,-5.40068 2.53407,-5.40068 0.158961,0 0.289024,0.0596 0.289024,0.13234 0,0.0728 0.551617,1.34279 1.225814,2.82222 0.674201,1.47944 1.081772,2.68988 0.905718,2.68988 -0.176054,0 -0.420867,-0.3175 -0.544033,-0.70556 -0.184061,-0.57993 -0.533763,-0.70555 -1.964051,-0.70555 -1.279909,0 -1.740115,0.13444 -1.740115,0.50835 0,0.27959 -0.15875,0.60646 -0.352778,0.72637 -0.194028,0.11992 -0.353169,0.0896 -0.353649,-0.0674 z m 3.528649,-1.99665 c 0,-0.0681 -0.174279,-0.62369 -0.38729,-1.23473 -0.431902,-1.23896 -0.85151,-1.42405 -1.119043,-0.49361 -0.09763,0.33955 -0.291877,0.89517 -0.431666,1.23472 -0.209969,0.51003 -0.0636,0.61736 0.841922,0.61736 0.602844,0 1.096077,-0.0557 1.096077,-0.12374 z m 2.469444,-0.60263 c 0,-1.80553 0.128739,-2.76348 0.352778,-2.62502 0.194028,0.11992 0.352778,1.24054 0.352778,2.49027 v 2.27223 h 1.411111 c 0.776111,0 1.411111,0.15875 1.411111,0.35278 0,0.19403 -0.79375,0.35278 -1.763889,0.35278 h -1.763889 z m 4.938889,2.13748 c -0.553822,-0.55382 -0.705556,-1.17592 -0.705556,-2.89277 0,-2.80173 0.62617,-2.31679 0.774379,0.59972 0.105692,2.07978 0.126535,2.11852 1.195945,2.22287 1.453459,0.14184 1.84579,-0.435 2.000042,-2.94063 l 0.129557,-2.10446 0.06671,2.32657 c 0.0534,1.86241 -0.06201,2.44306 -0.578435,2.91042 -0.867456,0.78503 -2.024754,0.73617 -2.882639,-0.12172 z m 4.952343,0.26459 c 0.0074,-0.24254 0.721364,-1.3141 1.586587,-2.38125 l 1.573131,-1.94028 -1.586586,-0.10752 c -0.872621,-0.0591 -1.586587,-0.25758 -1.586587,-0.44098 0,-0.36916 3.629526,-0.46688 3.98901,-0.1074 0.124326,0.12433 -0.577261,1.23558 -1.55908,2.46945 l -1.785126,2.24339 h 1.794267 c 0.986842,0 1.794262,0.15875 1.794262,0.35278 0,0.19599 -0.940741,0.35278 -2.116666,0.35278 -1.465326,0 -2.112525,-0.1357 -2.103212,-0.44097 z m 17.62543,-2.38125 v -2.82222 h 1.06966 c 1.76605,0 3.4617,0.89377 3.73096,1.96657 0.53728,2.14067 -0.90382,3.66255 -3.47771,3.67267 l -1.32291,0.005 z m 3.67897,1.5623 c 0.3049,-0.3049 0.55436,-0.96709 0.55436,-1.47153 0,-1.3782 -0.9482,-2.20744 -2.52412,-2.20744 h -1.35643 v 2.11667 2.11666 h 1.38591 c 0.78955,0 1.62445,-0.23854 1.94028,-0.55436 z m 2.17808,0.55436 c 0.26773,-1.01698 2.19085,-4.93888 2.4218,-4.93888 0.14224,0 0.91746,1.60687 2.17,4.49791 0.2732,0.63059 0.34655,1.14653 0.16299,1.14653 -0.18356,0 -0.43451,-0.3175 -0.55768,-0.70556 -0.33824,-1.0657 -3.04679,-1.00361 -3.84731,0.0882 l -0.58198,0.79375 z m 3.10297,-2.55763 c -0.3207,-0.63059 -0.63057,-1.20097 -0.6886,-1.26751 -0.11151,-0.12786 -1.21587,1.88865 -1.21587,2.22013 0,0.10664 0.55971,0.1939 1.24378,0.1939 h 1.24379 z m 3.04476,0.35277 0.0103,-2.91041 0.95979,1.05943 c 0.52789,0.58269 1.3946,1.61457 1.92603,2.29306 l 0.96623,1.23362 0.004,-2.00765 c 0.002,-1.10421 0.16267,-2.10577 0.35669,-2.22569 0.22404,-0.13846 0.35278,0.81949 0.35278,2.62502 0,1.56367 -0.11906,2.83588 -0.26458,2.82712 -0.14552,-0.009 -1.01865,-0.98342 -1.94028,-2.16592 l -1.67569,-2.15 v 2.16592 c 0,1.20876 -0.1559,2.16592 -0.35278,2.16592 -0.20752,0 -0.34852,-1.19843 -0.34244,-2.91042 z m 6.57485,2.67523 c -0.37539,-0.37538 -0.27163,-4.99231 0.11759,-5.23287 0.22404,-0.13846 0.35278,0.81949 0.35278,2.62502 0,2.85117 -0.0347,3.04353 -0.47037,2.60785 z m 5.28044,-0.49597 c -1.19321,-0.93858 -1.30122,-3.05643 -0.20642,-4.04722 0.78031,-0.70616 2.92464,-0.88722 3.51507,-0.29679 0.24163,0.24163 -0.18087,0.35033 -1.3027,0.33514 -1.45415,-0.0197 -1.72853,0.098 -2.20969,0.94767 -0.49508,0.87423 -0.49574,1.06605 -0.007,1.94028 0.44927,0.80312 0.78271,0.97014 1.93682,0.97014 1.26354,0 1.41531,-0.0991 1.62042,-1.05834 l 0.22631,-1.05833 0.0417,1.13411 c 0.0686,1.86395 -1.901,2.48146 -3.61486,1.13334 z m 4.71493,0.59881 c 0,-0.36634 2.4804,-5.51209 2.65699,-5.51209 0.28587,0 2.6962,5.34772 2.49915,5.54477 -0.0881,0.0881 -0.33729,-0.171 -0.55386,-0.57567 -0.56406,-1.05395 -3.52064,-1.07749 -3.79451,-0.0302 -0.15087,0.57692 -0.80777,1.04307 -0.80777,0.57321 z m 3.39141,-3.06664 c -0.25029,-0.59528 -0.58581,-1.08232 -0.74558,-1.08232 -0.15977,0 -0.49529,0.48704 -0.74558,1.08232 l -0.45508,1.08232 h 1.20066 1.20066 z m 3.18398,2.80906 c -0.14395,-0.31148 -0.21385,-1.58148 -0.15536,-2.82223 l 0.10635,-2.2559 1.48006,0.029 c 0.81404,0.016 1.72685,0.23384 2.02847,0.48417 0.71212,0.591 0.71661,2.44302 0.007,2.71548 -0.48349,0.18553 -0.48046,0.30157 0.0282,1.07787 0.3135,0.47847 0.49064,0.94932 0.39362,1.04634 -0.097,0.097 -0.44546,-0.23426 -0.77431,-0.73617 -0.40906,-0.62428 -0.91204,-0.91255 -1.59227,-0.91255 -0.81737,0 -1.01793,0.17265 -1.12699,0.97014 -0.10119,0.74001 -0.19474,0.8358 -0.39436,0.40382 z m 2.99872,-2.41019 c 1.13481,-0.93128 0.54682,-1.92061 -1.23137,-2.07187 l -1.28719,-0.10949 v 1.43241 c 0,1.275 0.0926,1.4324 0.84286,1.4324 0.46358,0 1.21764,-0.30755 1.6757,-0.68345 z m 3.58547,2.37786 c -1.56914,-0.75812 -1.73168,-3.31449 -0.28698,-4.51349 0.73383,-0.60902 2.84707,-0.65235 3.42911,-0.0703 0.33378,0.33378 0.0755,0.37858 -1.18582,0.2057 -1.42337,-0.1951 -1.68036,-0.12421 -2.19061,0.60427 -1.37209,1.95893 -0.16611,3.71571 2.32444,3.38607 1.36919,-0.18122 1.44451,-0.15327 0.82243,0.30526 -0.79363,0.58499 -1.81279,0.61386 -2.91257,0.0825 z m 4.83208,-1.47638 c 0,-1.06715 0.15875,-2.03839 0.35278,-2.1583 0.21885,-0.13526 0.35278,0.51856 0.35278,1.72224 0,1.06716 -0.15875,2.0384 -0.35278,2.15831 -0.21885,0.13526 -0.35278,-0.51856 -0.35278,-1.72225 z m 1.78239,1.82999 c -0.0307,-0.40627 2.39487,-5.57579 2.61617,-5.57579 0.17659,0 2.657,5.14575 2.657,5.51209 0,0.46084 -0.69767,0.007 -0.88195,-0.57321 -0.33892,-1.06784 -3.05639,-1.00508 -3.81902,0.0882 -0.30453,0.43656 -0.56202,0.68348 -0.5722,0.54871 z m 3.26905,-3.26763 c -0.65925,-1.38246 -0.94347,-1.35141 -1.47057,0.16063 -0.36352,1.04279 -0.35065,1.05898 0.8415,1.05898 h 1.21066 z m -58.96005,0.25353 c 0.1771,-0.9196 1.34473,-1.02216 1.34473,-0.11812 0,0.50486 -0.22656,0.73143 -0.73142,0.73143 -0.50486,0 -0.69484,-0.18998 -0.61331,-0.61331 z m 53.91983,-1.90114 c -0.006,-0.31579 0.22691,-0.77179 0.51795,-1.01333 0.67823,-0.56289 0.68537,0.0114 0.0112,0.90271 -0.43513,0.57529 -0.51974,0.59298 -0.52917,0.11062 z M 13.383365,40.205571 v -5.99723 H 11.09031 8.7972543 v -1.05833 -1.05833 h 5.9972217 5.997222 v 1.05833 1.05833 h -2.293055 -2.293056 v 5.99723 5.99722 h -1.411111 -1.411111 z m 9.525,-1.05834 v -7.05555 h 3.894609 c 3.165218,0 4.147161,0.12884 5.24312,0.68796 2.864325,1.46127 3.357987,5.47748 0.945081,7.68874 l -1.275597,1.169 1.417227,2.08696 c 0.779474,1.14783 1.417226,2.18463 1.417226,2.304 0,0.11937 -0.593868,0.16777 -1.319706,0.10755 -1.163448,-0.0965 -1.484471,-0.34967 -2.711265,-2.13796 l -1.391559,-2.02847 h -1.874846 -1.874846 v 2.11666 2.11667 h -1.234722 -1.234722 z m 7.704882,0.14079 c 1.111305,-0.77839 1.519157,-2.00352 1.083252,-3.25396 -0.461679,-1.32438 -1.620109,-1.82572 -4.218623,-1.82572 h -2.100067 v 2.82223 2.82222 h 2.21456 c 1.459581,0 2.489447,-0.19254 3.020878,-0.56477 z m 5.091856,6.4738 c 0.09472,-0.24254 1.500771,-3.42424 3.124549,-7.07045 l 2.952323,-6.62948 1.393297,0.10309 1.393298,0.10309 2.861041,6.35 c 1.573572,3.4925 2.965669,6.62781 3.093547,6.96736 0.196568,0.52193 0.0206,0.61736 -1.138357,0.61736 -1.301168,0 -1.401904,-0.0813 -1.981489,-1.59891 l -0.610627,-1.5989 -3.708003,0.0996 -3.708004,0.0996 -0.545949,1.4993 c -0.514997,1.41431 -0.623959,1.49931 -1.9219,1.49931 -0.95743,0 -1.323566,-0.13413 -1.203726,-0.44097 z m 9.781038,-5.33429 c 0,-0.85464 -2.223369,-5.54868 -2.492176,-5.26155 -0.244548,0.26121 -2.446713,5.30662 -2.446713,5.60569 0,0.0767 1.11125,0.13945 2.469445,0.13945 1.85644,0 2.469444,-0.12004 2.469444,-0.48359 z m 10.039572,5.13405 c -5.379456,-2.52616 -5.410634,-10.46857 -0.05089,-12.96404 2.987265,-1.39086 7.078581,-0.88931 8.6971,1.06616 0.463695,0.56023 0.434136,0.6932 -0.283245,1.2741 -0.778873,0.63069 -0.832093,0.62961 -1.928837,-0.0391 -1.520825,-0.9273 -4.205633,-0.91699 -5.724937,0.022 -0.701241,0.4334 -1.38193,1.28555 -1.738288,2.17618 -1.607418,4.01733 1.841489,7.83231 6.123929,6.77392 l 1.269763,-0.31381 0.104313,-2.38125 0.104313,-2.38125 h 1.218604 1.218604 v 2.92254 c 0,2.91457 -0.0032,2.92438 -1.130392,3.59029 -1.682221,0.99372 -6.008161,1.13331 -7.880035,0.25429 z m 12.068953,-2.97476 c 0.883892,-1.98879 2.274676,-5.1241 3.09063,-6.96736 l 1.483557,-3.35139 1.407054,-0.10515 1.407054,-0.10514 3.066867,6.85066 c 1.686775,3.76786 3.066866,6.95049 3.066866,7.07251 0,0.12201 -0.56455,0.22184 -1.254559,0.22184 -1.147667,0 -1.31439,-0.13526 -1.956784,-1.5875 l -0.702229,-1.5875 h -3.639731 -3.639728 l -0.606274,1.5875 c -0.573849,1.5026 -0.679097,1.5875 -1.968034,1.5875 h -1.361764 z m 8.583139,-1.81515 c 0,-0.30117 -2.203037,-5.3454 -2.449452,-5.60843 -0.244859,-0.26138 -2.489436,4.59581 -2.489436,5.38705 0,0.21156 1.021606,0.36083 2.469444,0.36083 1.358195,0 2.469444,-0.0627 2.469444,-0.13945 z m 7.055556,-1.62444 v -7.05555 h 4.268212 c 3.122213,0 4.577242,0.14664 5.419174,0.54617 1.95822,0.92923 2.576301,3.5068 1.246339,5.19757 l -0.707937,0.89999 1.060715,1.06072 c 0.83603,0.83603 1.060718,1.36878 1.060718,2.515 0,2.91175 -2.099804,3.88658 -8.378472,3.88969 l -3.968749,0.002 z m 9.377259,4.07772 c 0.661529,-0.90508 0.631497,-1.36836 -0.151384,-2.33517 -0.564924,-0.69765 -1.05912,-0.82644 -3.704166,-0.96527 l -3.052265,-0.1602 v 2.19601 2.196 l 3.203649,-0.12329 c 2.676983,-0.10303 3.285934,-0.23587 3.704166,-0.80808 z m -0.84764,-6.18452 c 0.35343,-0.43647 0.642602,-0.91716 0.642602,-1.0682 0,-0.15103 -0.289172,-0.63172 -0.642602,-1.06819 -0.536526,-0.66258 -1.089752,-0.82228 -3.351389,-0.96742 l -2.708786,-0.17384 v 2.20945 2.20946 l 2.708786,-0.17384 c 2.261637,-0.14515 2.814863,-0.30484 3.351389,-0.96742 z m 9.46736,8.54445 c -0.6989,-0.35065 -1.571704,-1.22572 -2.022667,-2.02792 -0.7184,-1.27795 -0.793809,-1.88553 -0.799066,-6.4382 l -0.0058,-5.02708 h 1.234722 1.234721 v 4.35708 c 0,4.95972 0.35609,6.3802 1.78462,7.11891 1.61108,0.83313 3.07035,0.65664 4.23974,-0.51274 l 1.0312,-1.0312 v -4.96603 -4.96602 h 1.4111 1.41111 l -0.002,4.32153 c -0.003,6.08693 -0.65129,7.9451 -3.2437,9.29393 -1.34026,0.69734 -4.77377,0.63043 -6.274,-0.12226 z m 15.92904,-0.13906 c -2.81733,-1.39454 -4.34513,-4.90283 -3.56011,-8.17511 1.04364,-4.35042 6.2043,-6.77386 10.37992,-4.87441 0.77611,0.35304 1.63617,0.91384 1.91124,1.24621 0.43827,0.52956 0.41198,0.69246 -0.21261,1.31705 l -0.71274,0.71274 -1.1985,-0.73066 c -2.45922,-1.49925 -5.97011,-0.63392 -7.21787,1.77897 -0.81819,1.58221 -0.5296,4.26912 0.58882,5.48221 1.81844,1.97234 4.40895,2.39006 6.40819,1.03333 l 1.2525,-0.84996 0.77397,0.82385 c 0.92327,0.98277 0.74436,1.36472 -1.07372,2.29223 -1.91707,0.97802 -5.3018,0.95199 -7.33909,-0.0564 z m 11.93508,-6.29859 v -7.05555 h 1.23473 1.23472 v 2.82222 2.82222 h 3.70416 3.70417 v -2.82222 -2.82222 h 1.23472 1.23472 v 7.05555 7.05556 h -1.23472 -1.23472 v -2.99861 -2.99861 h -3.70417 -3.70416 v 2.99861 2.99861 h -1.23472 -1.23473 z m 16.22778,0 v -7.05555 h 5.11528 5.11527 v 1.05833 1.05833 h -3.70416 -3.70417 v 1.76389 1.76389 h 3.35139 3.35139 v 1.05834 1.05833 h -3.35139 -3.35139 v 2.11667 2.11666 h 3.88056 3.88055 v 1.05834 1.05833 h -5.29166 -5.29167 z m 13.8572,6.36428 c -1.44578,-0.65632 -1.47779,-0.70688 -1.11202,-1.75614 0.20714,-0.5942 0.4069,-1.08036 0.4439,-1.08036 0.037,0 0.69005,0.3175 1.4512,0.70556 0.86727,0.44216 2.08039,0.70555 3.24959,0.70555 1.39532,0 2.04357,-0.17788 2.57124,-0.70555 1.39235,-1.39235 0.58924,-2.23239 -3.16788,-3.31357 -3.52894,-1.01552 -4.59323,-1.9626 -4.59323,-4.08737 0,-2.77702 2.7573,-4.52479 6.52639,-4.13688 2.0159,0.20748 3.70416,0.87876 3.70416,1.47285 0,0.22281 -0.19843,0.66812 -0.44097,0.98957 -0.40646,0.53871 -0.57173,0.54085 -2.11172,0.0272 -1.97357,-0.65822 -3.76752,-0.42596 -4.70418,0.60904 -1.15748,1.279 0.0224,2.29723 3.86944,3.3394 2.62263,0.71047 4.09299,2.07208 4.09299,3.79028 0,1.39284 -0.99585,2.84047 -2.48308,3.60954 -1.47254,0.76148 -5.44887,0.66929 -7.29583,-0.16916 z"
       id="path836" />
  </g>
</svg>
